STARTFONT 2.1
COMMENT
COMMENT Converted from OpenType font "RuthlessSketch_Regular.ttf" by "otf2bdf 3.0".
COMMENT
FONT -FreeType-Ruthless Sketch-Medium-R-Normal--77-560-100-100-P-385-ISO10646-1
SIZE 56 100 100
FONTBOUNDINGBOX 91 86 -35 -15
STARTPROPERTIES 19
FOUNDRY "FreeType"
FAMILY_NAME "Ruthless Sketch"
WEIGHT_NAME "Medium"
SLANT "R"
SETWIDTH_NAME "Normal"
ADD_STYLE_NAME ""
PIXEL_SIZE 77
POINT_SIZE 560
RESOLUTION_X 100
RESOLUTION_Y 100
SPACING "P"
AVERAGE_WIDTH 385
CHARSET_REGISTRY "ISO10646"
CHARSET_ENCODING "1"
FONT_ASCENT 72
FONT_DESCENT 15
COPYRIGHT "© 2024 GGBotNet. All Rights Reserved."
_OTF_FONTFILE "RuthlessSketch_Regular.ttf"
_OTF_PSNAME "RuthlessSketch-Regular"
ENDPROPERTIES
CHARS 1105
STARTCHAR 0020
ENCODING 32
SWIDTH 308 0
DWIDTH 24 0
BBX 0 0 0 0
BITMAP
ENDCHAR
STARTCHAR 0021
ENCODING 33
SWIDTH 295 0
DWIDTH 23 0
BBX 21 59 1 -1
BITMAP
000FF0
7FFFF8
FFFFF8
FFFFF8
FFFFF0
FFFFF0
FFFFF0
FFFFF0
7FFFE0
7FFFE0
7FFFE0
7FFFE0
7FFFC0
7FFFC0
7FFFC0
7FFFC0
7FFFC0
3FFFC0
3FFFC0
3FFF80
3FFF80
3FFF80
3FFF80
3FFF80
3FFF80
1FFF80
1FFF80
1FFF80
1FFF80
1FFF00
1FFF00
0FFF00
0FFF00
0FFF00
0FFF00
0FFF00
0FFF00
0FFE00
07FC00
03E000
000000
000000
000000
000000
000000
00FE00
03FF00
07FF80
0FFF80
0FFF80
0FFFC0
0FFFC0
0FFFC0
0FFFC0
0FFFC0
07FF80
03FF80
01FF00
00F800
ENDCHAR
STARTCHAR 0022
ENCODING 34
SWIDTH 385 0
DWIDTH 30 0
BBX 29 29 1 28
BITMAP
00000300
7FE03FE0
7FE03FF0
7FF07FF0
7FF07FF8
7FF07FF8
7FF07FF8
FFF07FF8
FFF07FF0
FFF07FF0
FFF07FF0
FFF03FF0
FFF03FF0
7FF03FF0
7FE03FF0
7FE03FE0
7FE03FE0
3FE03FE0
3FE01FE0
3FC01FE0
3FC01FC0
1FC01FC0
1FC00FC0
1F800FC0
1F800FC0
0F800F80
0F800780
0F000780
07000600
ENDCHAR
STARTCHAR 0023
ENCODING 35
SWIDTH 514 0
DWIDTH 40 0
BBX 38 54 1 1
BITMAP
0003EC0188
0007FC03F8
0007FC03F8
0007FC03F8
0007FC07F0
000FFC07F0
000FF807F0
000FF80FE0
000FF80FE0
001FF80FE0
001FF81FE0
001FF01FC0
001FF01FC0
007FFFFFFC
7FFFFFFFFC
7FFFFFFFFC
7FFFFFFFFC
7FFFFFFFFC
7FFFFFFFFC
7FFFFFFFFC
7FFFFFFFFC
7FFFFFFFFC
7FFFFFFF7C
1FFF81FE00
00FF81FE00
00FF01FE00
00FF03FE00
01FF03FE00
01FF03FCC0
01FFFFFFFC
FFFFFFFFFC
FFFFFFFFFC
FFFFFFFFFC
FFFFFFFFFC
FFFFFFFFFC
FFFFFFFFFC
7FFFFFFFFC
7FFFFFFFFC
7FFFFFFFF8
7FFFFFF000
0FF03FF000
0FF03FE000
0FE03FE000
0FE03FE000
1FE07FE000
1FC07FE000
1FC07FC000
3FC07FC000
3F807FC000
3F807FC000
3F00FF8000
7F00FF8000
27007F8000
0200000000
ENDCHAR
STARTCHAR 0024
ENCODING 36
SWIDTH 501 0
DWIDTH 39 0
BBX 37 72 1 -8
BITMAP
0007FE0000
0007FF0000
0007FF0000
0007FF0000
0007FF0000
0007FF0000
0007FE0000
0007FE0000
0007FE0000
0007FFC000
0007FFF800
001FFFFE00
007FFFFF00
00FFFFFFC0
03FFFFFFE0
0FFFFFFFF0
0FFFFFFFF8
1FFFFFFFF8
1FFFFFFFF8
3FFFFFFFF8
3FFFFFFFF8
3FFFFFFFF8
3FFFFFFFF8
3FFFFF87F0
3FFFFF01E0
3FFFFF00C0
3FFFFF0000
1FFFFF0000
1FFFFF0000
1FFFFF0000
0FFFFF0000
0FFFFF0000
07FFFFF000
07FFFFFC00
03FFFFFE00
007FFFFF00
001FFFFF00
0007FFFF80
0007FFFF80
0007FFFFC0
0007FFFFC0
0007FFFFC0
0007FFFFE0
1807FFFFE0
1FFFFFFFE0
1FFFFFFFE0
1FFFFFFFC0
3FFFFFFFC0
3FFFFFFFC0
3FFFFFFF80
3FFFFFFF80
7FFFFFFF80
7FFFFFFF00
7FFFFFFF00
7FFFFFFE00
7FFFFFFE00
7FFFFFFE00
7FFFFFFC00
FFFFFFFC00
FFFFFFF000
FFFFFFC000
07FFFF0000
0007FF0000
0007FF0000
0007FF0000
0007FF0000
0007FF0000
0007FF0000
0007FE0000
0007FE0000
0003FE0000
0000020000
ENDCHAR
STARTCHAR 0025
ENCODING 37
SWIDTH 565 0
DWIDTH 44 0
BBX 42 53 1 1
BITMAP
00000001C000
00000001F800
01F80003FC00
07FC0007FC00
0FFE0007FC00
1FFF000FF800
1FFF800FF800
3FFF801FF000
7F1FC01FF000
7E0FC03FE000
7E0FE03FE000
FE0FE07FC000
FC07E07FC000
FC07E0FF8000
FE07E0FF8000
FE07E1FF0000
7E0FE3FF0000
7E0FC3FE0000
7F1FC7FE0000
7FFFC7FC0000
3FFF8FF80000
1FFF0FF80000
0FFF1FF00000
07FC3FF00000
01F03FE00000
00007FC00000
00007FC00000
0000FF87E000
0001FF8FF800
0001FF1FFC00
0003FE3FFE00
0003FE7FFF00
0007FCFFFF00
000FFCFE3F80
000FF8FC1F80
001FF0FC1FC0
001FF1FC0FC0
003FE1F80FC0
007FC1F80FC0
007FC1F80FC0
00FF81F81FC0
00FF81FC1FC0
01FF00FC1F80
03FE00FF3F80
03FE007FFF80
07FC007FFF00
07F8003FFE00
0FF8001FFC00
1FF0000FF800
1FE00001E000
1FE000000000
0FC000000000
078000000000
ENDCHAR
STARTCHAR 0026
ENCODING 38
SWIDTH 501 0
DWIDTH 39 0
BBX 38 53 1 1
BITMAP
0006000000
007FF00000
01FFFC0000
07FFFE0000
0FFFFE0000
1FFFFF0000
1FFFFF0000
1FFFFF0000
1FFFFF8000
1FF0FF8000
1FE0FF8000
1FE07F8000
1FE0FF0000
1FF0FF0000
1FF9FF0000
0FFFFE0000
0FFFFE0000
07FFFC0000
07FFFC0000
03FFF80000
03FFF81FF0
07FFFC1FF0
0FFFFE1FF0
0FFFFF1FE0
1FFFFF1FE0
1FFFFF9FE0
3FFFFFFFE0
3FFDFFFFE0
3FF8FFFFC0
7FF0FFFFC0
7FF07FFFC0
7FE03FFFC0
7FE01FFF80
FFE00FFF80
FFE007FF80
FFE003FF80
FFE001FFC0
FFE001FFE0
FFF003FFE0
FFF803FFF0
7FFE7FFFF8
7FFFFFFFF8
7FFFFFFFFC
7FFFFFFFFC
3FFFFFFFFC
1FFFFFFDFC
1FFFFFF9FC
0FFFFFF8FC
07FFFFF07C
01FFFFE03C
007FFF8018
000FFE0008
0000E00000
ENDCHAR
STARTCHAR 0027
ENCODING 39
SWIDTH 205 0
DWIDTH 16 0
BBX 14 29 1 28
BITMAP
0780
7FF0
7FF8
FFFC
FFFC
FFFC
FFFC
FFFC
7FFC
FFFC
FFFC
FFFC
FFFC
FFFC
7FFC
7FF8
7FF8
7FF8
3FF8
3FF0
3FF0
1FF0
1FE0
1FE0
0FE0
0FC0
0FC0
0FC0
0780
ENDCHAR
STARTCHAR 0028
ENCODING 40
SWIDTH 347 0
DWIDTH 27 0
BBX 25 74 1 -11
BITMAP
0000C000
0001F000
0003F800
0003FE00
0007FF80
000FFF80
001FFF00
003FFE00
003FFC00
007FFC00
00FFF800
00FFE000
01FFC000
03FF8000
03FF0000
07FF0000
0FFE0000
0FFE0000
1FFC0000
3FF80000
1FF80000
3FF00000
3FF00000
3FE00000
7FE00000
7FE00000
7FC00000
FFC00000
FFC00000
FFC00000
FFC00000
FFC00000
FFC00000
FFC00000
FFC00000
FFC00000
FFC00000
FFE00000
7FE00000
7FE00000
7FE00000
7FE00000
7FE00000
FFE00000
FFE00000
FFE00000
7FE00000
7FE00000
7FE00000
7FE00000
3FE00000
3FE00000
1FF00000
1FF00000
1FF80000
0FFC0000
0FFE0000
07FE0000
07FE0000
03FF0000
03FF0000
01FF8000
00FF8000
00FFE000
007FF000
003FF800
003FFC00
001FFE00
000FFF00
0007FF80
0003FF00
0001F800
0001F000
0000E000
ENDCHAR
STARTCHAR 0029
ENCODING 41
SWIDTH 347 0
DWIDTH 27 0
BBX 25 74 1 -11
BITMAP
01800000
07C00000
0FE00000
3FE00000
7FF00000
7FF80000
3FFC0000
1FFE0000
0FFE0000
07FF0000
03FF8000
00FF8000
007FC000
007FE000
007FE000
003FF000
003FF000
001FF800
001FF800
000FFC00
0007FC00
0003FE00
0003FE00
0003FE00
0001FF00
0001FF00
0001FF00
0001FF80
0001FF80
0001FF80
0001FF80
0001FF00
0001FF00
0001FF00
0001FF00
0001FF00
0001FF80
0001FF80
0001FF80
0001FF80
0001FF80
0001FF80
0001FF80
0001FF80
0001FF80
0000FF80
0001FF80
0001FF00
0001FF00
0001FF00
0003FF00
0003FE00
0007FE00
0007FC00
000FFE00
001FFC00
001FF800
003FF800
003FF000
003FF000
007FE000
00FFC000
01FFC000
07FF8000
0FFF0000
1FFF0000
1FFE0000
3FFC0000
7FF80000
FFF80000
7FF00000
1FE00000
07C00000
00800000
ENDCHAR
STARTCHAR 002A
ENCODING 42
SWIDTH 321 0
DWIDTH 25 0
BBX 23 23 1 34
BITMAP
007800
007800
007C00
107C10
3C7C78
FE7CFE
7FFBFC
1FFFF8
0FFFE0
07FFC0
01FF00
00FE00
03FF80
07FFC0
0FFFE0
1FFFF8
7FFDFC
FE78FE
3C783C
107810
007800
007800
007800
ENDCHAR
STARTCHAR 002B
ENCODING 43
SWIDTH 475 0
DWIDTH 37 0
BBX 35 35 1 10
BITMAP
0007FC0000
000FFE0000
000FFE0000
0007FE0000
0007FE0000
0007FE0000
0007FE0000
0007FE0000
0007FE0000
000FFE0000
000FFE0000
000FFE0000
7FFFFFFFE0
7FFFFFFFE0
7FFFFFFFE0
7FFFFFFFE0
7FFFFFFFE0
7FFFFFFFE0
FFFFFFFFE0
FFFFFFFFE0
FFFFFFFFE0
FFFFFFFFE0
7FFFFFCFE0
000FFE0000
000FFE0000
000FFE0000
000FFE0000
000FFE0000
000FFE0000
000FFE0000
000FFE0000
000FFE0000
000FFE0000
000FFE0000
000FFE0000
ENDCHAR
STARTCHAR 002C
ENCODING 44
SWIDTH 205 0
DWIDTH 16 0
BBX 18 27 -3 -13
BITMAP
003C00
01FF00
03FF00
07FF80
07FFC0
07FFC0
07FFC0
07FFC0
07FFC0
07FFC0
07FFC0
03FFC0
01FF80
00FF00
00FE00
01FE00
07FC00
1FFC00
3FF800
FFF800
7FF000
3FF000
1FE000
0FE000
07C000
03C000
018000
ENDCHAR
STARTCHAR 002D
ENCODING 45
SWIDTH 385 0
DWIDTH 30 0
BBX 28 13 1 21
BITMAP
00600800
FFFFFFF0
FFFFFFF0
FFFFFFF0
FFFFFFF0
FFFFFFF0
FFFFFFF0
FFFFFFF0
FFFFFFF0
FFFFFFF0
FFFFFFF0
FFFFFFF0
00000180
ENDCHAR
STARTCHAR 002E
ENCODING 46
SWIDTH 205 0
DWIDTH 16 0
BBX 14 15 1 -1
BITMAP
0300
0FF0
3FF8
3FFC
7FFC
7FFC
FFFC
FFFC
FFFC
FFFC
FFFC
7FF8
1FF8
0FE0
0080
ENDCHAR
STARTCHAR 002F
ENCODING 47
SWIDTH 450 0
DWIDTH 35 0
BBX 33 62 1 -4
BITMAP
000000C000
000001E180
000001FF80
000003FF80
000003FF80
000007FF00
000007FF00
00000FFE00
00000FFE00
00001FFE00
00001FFC00
00003FFC00
00003FF800
00007FF800
00007FF800
0000FFF000
0000FFF000
0000FFF000
0001FFE000
0001FFE000
0003FFE000
0003FFC000
0003FFC000
0007FFC000
0007FF8000
000FFF8000
000FFF8000
000FFF0000
001FFF0000
001FFF0000
003FFE0000
003FFE0000
007FFE0000
007FFC0000
007FFC0000
00FFFC0000
00FFF80000
01FFF80000
01FFF80000
03FFF80000
03FFF00000
03FFF00000
07FFF00000
07FFE00000
07FFE00000
0FFFE00000
0FFFE00000
0FFFC00000
1FFFC00000
1FFFC00000
1FFF800000
3FFF800000
3FFF800000
3FFF000000
7FFF000000
7FFF000000
7FFE000000
7FFE000000
FFFE000000
FFFC000000
FFFC000000
7FFC000000
ENDCHAR
STARTCHAR 0030
ENCODING 48
SWIDTH 398 0
DWIDTH 31 0
BBX 29 55 1 0
BITMAP
00180000
007E0000
01FF8000
03FFC000
07FFE000
07FFE000
0FFFF000
0FFFF800
1FFFFC00
1FFFFE00
1FFFFF00
1FFFFF80
1FFFFFC0
3FFFFFC0
3FFFFFC0
3FFFFFE0
3FFFFFE0
7FFFFFE0
7FFC7FF0
7FF87FF0
7FF03FF0
7FF03FF0
7FF03FF8
FFF01FF8
FFF01FF8
FFF01FF8
FFF01FF8
FFF01FF8
FFF01FF8
FFF01FF8
FFF01FF8
FFF03FF8
FFF83FF8
7FF83FF8
7FFE7FF8
7FFFFFF8
7FFFFFF0
3FFFFFF0
3FFFFFF0
1FFFFFF0
1FFFFFF0
1FFFFFF0
0FFFFFE0
0FFFFFE0
07FFFFE0
07FFFFE0
07FFFFC0
03FFFFC0
03FFFFC0
01FFFF80
00FFFF80
007FFF00
001FFE00
000FFE00
0003F800
ENDCHAR
STARTCHAR 0031
ENCODING 49
SWIDTH 424 0
DWIDTH 33 0
BBX 31 51 1 2
BITMAP
0000FC00
0003FF00
0007FFC0
000FFFC0
003FFFE0
007FFFE0
01FFFFE0
07FFFFE0
0FFFFFE0
3FFFFFE0
7FFFFFE0
FFFFFFE0
7FFFFFE0
3FFBFFE0
1FF3FFE0
0FF3FFE0
07E7FFE0
03E7FFE0
01C7FFE0
00C7FFE0
0007FFE0
0007FFF0
000FFFF0
000FFFE0
000FFFE0
000FFFF0
000FFFF0
000FFFF0
000FFFF0
001FFFF0
001FFFF0
001FFFF0
001FFFF0
001FFFF0
001FFFF0
001FFFF0
003FFFF0
003FFFF8
003FFFF8
003FFFF8
003FFFF8
003FFFF8
003FFFF8
003FFFF8
003FFFF8
007FFFFC
007FFFFC
007FFFFC
003FFFFE
0003FFFE
000003FC
ENDCHAR
STARTCHAR 0032
ENCODING 50
SWIDTH 514 0
DWIDTH 40 0
BBX 38 53 1 1
BITMAP
000F000000
003FF00000
00FFFC0000
01FFFF0000
03FFFFC000
07FFFFF000
0FFFFFF800
1FFFFFF800
7FFFFFF800
7FFFFFF800
FFFFFFF800
FFFFFFF800
7FFFFFF800
3FFCFFF800
1FF01FF800
0FE01FF800
0F801FF800
07001FF800
03001FF800
00003FF800
00003FF000
00003FF000
00007FF000
00007FE000
00007FE000
0000FFE000
0000FFC000
0001FFC000
0001FF8000
0003FF8000
0003FF0000
0007FF003C
0007FFFFFC
000FFFFFFC
000FFFFFF8
001FFFFFF8
001FFFFFF8
003FFFFFF8
003FFFFFF0
007FFFFFF0
00FFFFFFF0
00FFFFFFF0
01FFFFFFF0
01FFFFFFE0
03FFFFFFE0
0FFFFFFFE0
3FFFFFFFE0
3FFFFFFFC0
3FFFFFFFC0
1FFFFFFE00
07FFFFF000
00FFFF0000
0007F80000
ENDCHAR
STARTCHAR 0033
ENCODING 51
SWIDTH 462 0
DWIDTH 36 0
BBX 35 53 1 0
BITMAP
000C080000
03FFFC0000
0FFFFC0000
3FFFFE0000
3FFFFE0000
3FFFFE0000
3FFFFE0000
1FFFFE0000
0FFFFC0000
07C7FC0000
0007FC0000
000FF80000
001FF80000
001FF80000
003FF00000
007FF00000
007FF00000
00FFF00000
01FFFF0000
01FFFFC000
03FFFFF000
07FFFFFC00
07FFFFFE00
0FFFFFFE00
0FFFFFFF00
0FFFFFFF00
03FFFFFF00
00787FFF80
000007FF80
000003FF80
000001FF80
000000FFC0
000000FFC0
0000007FC0
0000007FC0
0000007FC0
0000007FE0
000000FFE0
000000FFC0
000001FFC0
000003FFC0
F8000FFFC0
FF807FFF80
FFFFFFFF80
7FFFFFFF00
7FFFFFFE00
3FFFFFFE00
1FFFFFFC00
07FFFFF800
01FFFFF000
00FFFFC000
003FFF0000
0003FC0000
ENDCHAR
STARTCHAR 0034
ENCODING 52
SWIDTH 437 0
DWIDTH 34 0
BBX 33 54 1 -1
BITMAP
0007E00000
007FE00000
00FFE00000
01FFE00000
01FFC00000
01FFC00000
01FFC00000
01FFC00000
01FF800000
03FF800000
03FF800000
03FF000000
03FF000000
07FF000000
07FF000000
07FE000000
0FFE000000
0FFE000000
0FFE000000
0FFC013E00
1FFDFFFE00
1FFFFFFF00
1FFFFFFF00
1FFFFFFF00
3FFFFFFF00
3FFFFFFF00
3FFFFFFF00
7FFFFFFF00
7FFFFFFF80
7FFFFFFE00
7FFFFFF000
FFFFFF8000
FE00FF0000
4001FF0000
0001FF0000
0003FF0000
0003FF0000
0003FF0000
0007FF0000
0007FF8000
0007FF8000
000FFF8000
000FFF8000
000FFF8000
001FFF8000
001FFF8000
001FFFC000
001FFFC000
003FFFC000
003FFFC000
003FFFC000
007FFFC000
007FFF8000
0078000000
ENDCHAR
STARTCHAR 0035
ENCODING 53
SWIDTH 475 0
DWIDTH 37 0
BBX 36 54 1 0
BITMAP
0000000200
00001FFF00
00FFFFFF00
00FFFFFF00
00FFFFFF00
00FFFFFF00
00FFFFFF00
00FFFFFE00
00FFFFF800
01FFF20000
01FFE00000
01FFC00000
01FFC00000
01FFC00000
01FFC00000
03FFF00000
03FFFE0000
03FFFF8000
03FFFFC000
03FFFFE000
07FFFFF000
07FFFFF800
07FFFFFC00
0FFFFFFE00
1FFFFFFE00
0E00FFFF00
00007FFF80
00003FFF80
00001FFFC0
00000FFFC0
00000FFFE0
000007FFE0
000007FFE0
000003FFE0
000003FFE0
000003FFE0
000003FFE0
000003FFF0
000003FFF0
E00003FFF0
E00007FFE0
F0000FFFE0
7C000FFFC0
7F003FFFC0
7FFFFFFFC0
7FFFFFFF80
7FFFFFFF80
3FFFFFFF00
3FFFFFFE00
1FFFFFFC00
07FFFFFC00
01FFFFF000
003FFFE000
0007FF8000
ENDCHAR
STARTCHAR 0036
ENCODING 54
SWIDTH 488 0
DWIDTH 38 0
BBX 36 56 1 -2
BITMAP
000000E000
00000FF800
00007FFC00
0000FFFE00
0003FFFF00
0007FFFF80
000FFFFF80
001FFFFF80
007FFFFF80
00FFFFFF00
01FFFF3C00
01FFE00000
03FF800000
07FF000000
07FF000000
0FFE000000
1FFE000000
1FFC000000
3FFC000000
3FFE000000
3FFF000000
7FFFFF0000
7FFFFFC000
7FFFFFF000
7FFFFFF800
7FFFFFFC00
7FFFFFFE00
7FFFFFFF00
FFFFFFFF80
FFFFFFFFC0
FFFF3FFFE0
FFFE07FFE0
FFFC01FFF0
FFFC01FFF0
FFF800FFF0
7FF800FFF0
7FF800FFF0
7FF8007FF0
7FF8007FF0
7FF000FFF0
3FF000FFF0
3FF800FFF0
3FF800FFF0
3FF801FFF0
3FFC01FFF0
1FFE03FFE0
1FFF0FFFE0
0FFFFFFFC0
0FFFFFFF80
07FFFFFF80
03FFFFFF00
01FFFFFE00
007FFFFC00
003FFFF000
000FFF8000
0001FC0000
ENDCHAR
STARTCHAR 0037
ENCODING 55
SWIDTH 411 0
DWIDTH 32 0
BBX 31 51 1 2
BITMAP
000000FC
0FFFFFFE
7FFFFFFE
7FFFFFFC
7FFFFFFC
7FFFFFFC
7FFFFFFC
7FFFFFFC
7FFFFFFC
7FFFFFFC
7FFFFFFC
7FFFFFFC
7FFFFFFC
7FFFFFFC
78003FFC
60003FFC
60007FFC
0000FFF8
0000FFF8
0001FFF8
0003FFF8
0003FFF0
0007FFF0
0007FFF0
000FFFE0
000FFFE0
001FFFE0
001FFFE0
003FFFC0
003FFFC0
007FFFC0
007FFFC0
00FFFF80
01FFFF80
01FFFF80
03FFFF80
03FFFF00
07FFFF00
07FFFF00
0FFFFE00
0FFFFE00
1FFFFE00
1FFFFE00
3FFFFE00
3FFFFC00
3FFFFC00
7FFFFE00
7FFFFC00
7FFFC000
FFF80000
FE000000
ENDCHAR
STARTCHAR 0038
ENCODING 56
SWIDTH 501 0
DWIDTH 39 0
BBX 37 55 1 0
BITMAP
0000F80000
0007FF0000
003FFFC000
007FFFE000
00FFFFF000
01FFFFF000
03FFFFF000
03FFFFF800
07FFFFF800
07FFFFF800
07FF07F800
07FF07F800
07FF07F800
03FF0FF800
03FF1FF000
03FFFFF000
01FFFFE000
00FFFFC000
00FFFFC000
01FFFFE000
03FFFFE000
03FFFFF000
07FFFFF800
07FFFFFC00
0FFFFFFE00
0FFFFFFF00
1FFFFFFF00
1FFFFFFF80
3FFF3FFF80
3FFE0FFFC0
3FFC07FFE0
7FFC03FFE0
7FF801FFF0
7FF800FFF0
7FF800FFF0
FFF800FFF0
FFF8007FF0
FFFC007FF0
FFFC007FF8
7FFE00FFF8
7FFF00FFF8
7FFF83FFF8
7FFFFFFFF8
3FFFFFFFF0
3FFFFFFFF0
3FFFFFFFE0
1FFFFFFFE0
0FFFFFFFC0
07FFFFFFC0
03FFFFFF80
01FFFFFF00
007FFFFE00
001FFFFC00
0003FFC000
00007F0000
ENDCHAR
STARTCHAR 0039
ENCODING 57
SWIDTH 462 0
DWIDTH 36 0
BBX 34 51 1 1
BITMAP
01FFFE0000
07FFFFC000
0FFFFFF800
1FFFFFFC00
3FFFFFFE00
3FFFFFFF00
3FFFFFFF00
3FFFFFFF00
3FFF7FFF80
7FF01FFF80
7FF007FF80
7FF003FF80
7FF003FF80
7FF003FF80
7FF003FFC0
FFF003FFC0
FFF003FFC0
FFF003FFC0
FFF807FFC0
FFF80FFFC0
7FFCFFFFC0
7FFFFFFFC0
7FFFFFFFC0
3FFFFFFFC0
1FFFFFFFC0
0FFFFFFFC0
07FFFFFFC0
03FFFFFFC0
007FFFFFC0
00000FFF80
000001FF80
000001FF80
000001FF80
000001FF80
000001FF80
000003FF80
380003FF80
3E0007FF80
3F800FFF80
1FE03FFF80
1FFFFFFF80
1FFFFFFF00
1FFFFFFF00
1FFFFFFF00
1FFFFFFE00
1FFFFFFE00
0FFFFFFC00
0FFFFFFC00
03FFFFF800
00FFFFF000
001FFFC000
ENDCHAR
STARTCHAR 003A
ENCODING 58
SWIDTH 205 0
DWIDTH 16 0
BBX 14 38 1 -1
BITMAP
0FC0
3FF0
7FF0
7FF8
FFFC
FFFC
FFFC
FFFC
FFFC
7FFC
7FFC
3FF8
1FE0
0F80
0000
0000
0000
0000
0000
0000
0000
0000
0000
0000
01C0
0FF0
3FF8
7FF8
FFFC
FFFC
FFFC
FFFC
FFFC
7FFC
7FFC
3FFC
1FF8
0FE0
ENDCHAR
STARTCHAR 003B
ENCODING 59
SWIDTH 205 0
DWIDTH 16 0
BBX 18 51 -3 -13
BITMAP
00FC00
01FF80
03FFC0
07FFC0
07FFC0
07FFC0
0FFFC0
0FFFC0
0FFFC0
0FFFC0
07FF80
03FF80
01FF00
003C00
000000
000000
000000
000000
000000
000000
000000
000000
000000
000000
003C00
01FF00
03FF00
07FF80
07FFC0
07FFC0
07FFC0
07FFC0
07FFC0
07FFC0
07FFC0
03FFC0
01FF80
00FF00
00FE00
01FE00
07FC00
1FFC00
3FF800
FFF800
7FF000
3FF000
1FE000
0FE000
07C000
03C000
018000
ENDCHAR
STARTCHAR 003C
ENCODING 60
SWIDTH 475 0
DWIDTH 37 0
BBX 35 43 1 6
BITMAP
00000000C0
00000003C0
0000000FC0
0000003FE0
000000FFE0
000003FFE0
000007FFE0
00001FFFE0
00007FFFE0
0001FFFFE0
0007FFFFE0
001FFFFFE0
007FFFFFE0
01FFFFFFE0
0FFFFFFFE0
7FFFFFFFC0
7FFFFFFFC0
FFFFFFF000
FFFFFE0000
FFFFE00000
FFFF000000
FFFE000000
FFFF800000
FFFFF80000
7FFFFF0000
3FFFFFE000
1FFFFFFE00
07FFFFFF80
03FFFFFFC0
00FFFFFFC0
007FFFFFC0
003FFFFFC0
000FFFFFC0
0007FFFFC0
0001FFFFC0
0000FFFFC0
00003FFFC0
00001FFFC0
000007FFC0
000001FFE0
0000007FE0
0000001FE0
00000003E0
ENDCHAR
STARTCHAR 003D
ENCODING 61
SWIDTH 475 0
DWIDTH 37 0
BBX 35 28 1 13
BITMAP
03FFFFFFE0
7FFFFFFFE0
7FFFFFFFE0
7FFFFFFFE0
7FFFFFFFE0
7FFFFFFFE0
7FFFFFFFE0
7FFFFFFFE0
7FFFFFFFE0
7FFFFFFFE0
3FFFE00000
0000000000
0000000000
0000000000
0000000000
0000000000
000001FF80
39FFFFFFE0
FFFFFFFFE0
FFFFFFFFE0
FFFFFFFFE0
FFFFFFFFE0
FFFFFFFFE0
FFFFFFFFE0
7FFFFFFFE0
7FFFFFFFE0
7FFFFFFFE0
07FF000000
ENDCHAR
STARTCHAR 003E
ENCODING 62
SWIDTH 475 0
DWIDTH 37 0
BBX 35 44 1 5
BITMAP
4000000000
FC00000000
FF80000000
FFE0000000
7FF8000000
7FFE000000
7FFF000000
7FFFC00000
7FFFE00000
7FFFF80000
7FFFFC0000
7FFFFF0000
7FFFFF8000
7FFFFFE000
7FFFFFF000
7FFFFFF800
1FFFFFFE00
07FFFFFF00
007FFFFFC0
000FFFFFE0
0001FFFFE0
00001FFFE0
00000FFFE0
00003FFFE0
0001FFFFE0
003FFFFFE0
07FFFFFFE0
7FFFFFFFE0
7FFFFFFF80
7FFFFFFC00
7FFFFFF000
FFFFFFC000
FFFFFF0000
FFFFFC0000
FFFFF00000
FFFFC00000
FFFF000000
FFFC000000
FFF0000000
7FC0000000
7F00000000
7E00000000
7800000000
2000000000
ENDCHAR
STARTCHAR 003F
ENCODING 63
SWIDTH 462 0
DWIDTH 36 0
BBX 34 57 1 -1
BITMAP
003F000000
01FFFF8000
07FFFFF800
0FFFFFFE00
1FFFFFFF00
1FFFFFFF00
3FFFFFFF80
3FFFFFFF80
7FFFFFFF80
7FFFFFFFC0
7FFFFFFFC0
FFFFFFFFC0
FFF81FFFC0
7FE00FFFC0
3F8007FFC0
1F0007FFC0
040007FFC0
000007FFC0
000007FFC0
000007FFC0
000007FF80
00000FFF80
00001FFF80
00007FFF80
0003FFFF00
001FFFFF00
003FFFFE00
007FFFFC00
007FFFF000
007FFFC000
007FFF8000
007FFE0000
007FFC0000
007FF80000
007FF80000
007FF80000
007FF80000
007FF00000
007FF00000
0000000000
0000000000
0000000000
0000000000
0000000000
000FE00000
003FF00000
007FF80000
00FFF80000
00FFFC0000
00FFFC0000
00FFFC0000
00FFFC0000
00FFFC0000
007FF80000
003FF00000
001FC00000
0007000000
ENDCHAR
STARTCHAR 0040
ENCODING 64
SWIDTH 655 0
DWIDTH 51 0
BBX 50 67 1 -11
BITMAP
000007FF800000
00007FFFF00000
0003FFFFFC0000
000FFFFFFE0000
003FFFFFFF8000
007FFFFFFFC000
01FFFFFFFFE000
01FFFFFFFFF000
03FFFFFFFFF000
07FFFFFFFFF800
07FFFFFFFFF800
0FFFFFFFFFFC00
0FFFFFFFFFFC00
1FFFFFFFFFFC00
1FFFFFFFFFFE00
3FFFFC00FFFE00
3FFFE0007FFE00
3FFFC0003FFF00
3FFF80003FFF00
7FFF0001FFFF00
7FFE001FFFFF00
7FFC007FFFFF80
7FFC01FFFFFF80
7FF803FFFFFF80
FFF807FFFFFF80
FFF807FFFFFF80
FFF80FFFFFFF80
FFF81FFC07FF80
FFF81FF807FF80
FFF81FF803FFC0
FFF83FF003FFC0
FFF83FF003FF80
FFF83FF003FF80
FFF83FF003FF80
FFF83FF003FF80
FFF83FF003FF80
FFF83FF007FF80
FFF83FF80FFF80
FFF83FF83FFF00
7FF81FFFFFFF00
7FF81FFFFFFF00
7FFC0FFFFFFE00
7FFC0FFFFFFC00
7FFC07FFFFF800
7FFC03FFFFE000
7FFE01FFFFC000
7FFE007FFF0000
3FFE001FF80000
3FFF0000000000
3FFF0000000000
3FFF8000000000
3FFF8000038000
1FFFC0001FC000
1FFFF003FFE000
1FFFFFFFFFF000
0FFFFFFFFFF800
0FFFFFFFFFF800
0FFFFFFFFFFC00
07FFFFFFFFF800
07FFFFFFFFF000
03FFFFFFFFE000
01FFFFFFFFC000
00FFFFFFFF8000
007FFFFFFE0000
001FFFFFFC0000
0007FFFFF00000
00003FFFC00000
ENDCHAR
STARTCHAR 0041
ENCODING 65
SWIDTH 630 0
DWIDTH 49 0
BBX 47 55 1 -2
BITMAP
000000300000
000003F80000
000007FC0000
000007FC0000
000007FC0000
00000FFE0000
00000FFE0000
00001FFE0000
00001FFE0000
00001FFF0000
00003FFF0000
00003FFF0000
00003FFF0000
00007FFF8000
00007FFF8000
0000FFFF8000
0000FFFF8000
0000FFFFC000
0001FFFFC000
0001FFFFC000
0001FFFFE000
0003FFFFE000
0003FFFFE000
0007FFFFF000
0007FFFFF000
000FFFFFF000
000FFFFFF000
000FFFFFF800
001FF3FFF800
001FE1FFF800
003FE1FFFC00
003FC0FFFC00
007F80FFFC00
007F80FFFE00
00FF007FFE00
00FF00FFFE00
00FF0FFFFF00
01FFFFFFFF00
01FFFFFFFF80
03FFFFFFFF80
03FFFFFFFF80
07FFFFFFFFC0
07FFFC7FFFC0
0FFFC07FFFE0
0FFF807FFFE0
0FFF007FFFE0
1FFF003FFFF0
1FFF003FFFF0
3FFE003FFFF8
3FFE001FFFF8
7FFE001FFFFC
7FFE001FFFFC
7FFE000FFFFE
FFF8000F0004
F80000000000
ENDCHAR
STARTCHAR 0042
ENCODING 66
SWIDTH 514 0
DWIDTH 40 0
BBX 38 53 1 1
BITMAP
00F0000000
07FFF00000
1FFFFF0000
7FFFFFC000
FFFFFFF000
FFFFFFF000
FFFFFFF800
FFFFFFF800
FFFFFFFC00
7FFFFFFC00
7FFFFFFE00
7FFFFFFE00
7FFFFFFF00
7FFE0FFF00
3FFC07FF00
3FFC03FF00
3FFE03FF00
3FFE03FE00
1FFE03FE00
1FFE03FE00
1FFE07FC00
1FFF07FC00
1FFF9FFC00
1FFFFFF800
1FFFFFF000
1FFFFFE000
1FFFFFF800
1FFFFFFF00
0FFFFFFF80
0FFFFFFFC0
0FFFFFFFE0
0FFFFFFFF0
0FFFE7FFF0
0FFFE07FF8
0FFFC07FF8
0FFFE07FFC
0FFFE07FFC
0FFFE07FFC
07FFE0FFFC
07FFE0FFFC
07FFE1FFFC
07FFE3FFFC
07FFF7FFFC
07FFFFFFF8
07FFFFFFF8
07FFFFFFF0
03FFFFFFE0
03FFFFFFC0
03FFFFFF80
03FFFFFF00
03FFFFFC00
03FFFFC000
01FFF80000
ENDCHAR
STARTCHAR 0043
ENCODING 67
SWIDTH 488 0
DWIDTH 38 0
BBX 36 52 1 1
BITMAP
00001F8000
0000FFF800
0007FFFE00
001FFFFF80
00FFFFFFC0
01FFFFFFE0
03FFFFFFF0
07FFFFFFF0
0FFFFFFFF0
0FFFFFFFF0
1FFFFFFFF0
1FFFFFFFF0
3FFFFFFFE0
3FFFFFFFE0
7FFFFFFEE0
7FFFFE0200
7FFFF00000
7FFFE00000
FFFFC00000
FFFF800000
FFFF800000
7FFF000000
FFFF000000
7FFF000000
FFFF000000
FFFF000000
7FFF000000
FFFF800000
FFFF800000
FFFFE003E0
FFFFF1FFE0
7FFFFFFFE0
7FFFFFFFE0
7FFFFFFFE0
7FFFFFFFE0
7FFFFFFFE0
3FFFFFFFE0
3FFFFFFFE0
3FFFFFFFE0
1FFFFFFFE0
1FFFFFFFE0
1FFFFFFFE0
0FFFFFFFE0
0FFFFFFFE0
07FFFFFFC0
07FFFFFF80
03FFFFFF00
01FFFFFF00
01FFFFFE00
001FFFF800
000FFFE000
00003F8000
ENDCHAR
STARTCHAR 0044
ENCODING 68
SWIDTH 462 0
DWIDTH 36 0
BBX 34 53 1 0
BITMAP
0FFE000000
3FFF800000
FFFFF00000
FFFFFE0000
FFFFFF0000
FFFFFF8000
FFFFFFC000
FFFFFFE000
FFFFFFF000
FFFFFFF800
FFFFFFF800
FFFFFFFC00
FFFFFFFE00
FFFFFFFE00
FFFF3FFF00
7FFE0FFF00
7FFE03FF80
7FFE01FF80
7FFC00FF80
7FFC00FFC0
7FFC01FFC0
7FFE01FFC0
7FFE01FFC0
7FFE01FFC0
3FFE01FFC0
3FFE03FF80
3FFE03FF80
3FFE07FF80
3FFE0FFF00
3FFF0FFF00
3FFF1FFE00
1FFF7FFE00
1FFFFFFC00
1FFFFFFC00
1FFFFFF800
1FFFFFF800
0FFFFFF000
0FFFFFF000
0FFFFFE000
0FFFFFE000
0FFFFFC000
07FFFF8000
07FFFF0000
07FFFF0000
07FFFE0000
03FFFC0000
03FFF80000
03FFE00000
03FF800000
01FE000000
01F8000000
01E0000000
0180000000
ENDCHAR
STARTCHAR 0045
ENCODING 69
SWIDTH 488 0
DWIDTH 38 0
BBX 36 54 1 0
BITMAP
00FFFF0000
0FFFFFF000
3FFFFFF800
7FFFFFF000
FFFFFFF000
FFFFFFF000
7FFFFFF000
7FFFFFE000
3FFFFFE000
3FFFFFE000
3FFFFFE000
3FFFFFE000
1FFFFFC000
1FFFFFE000
1FFFFFE000
1FFFFFC000
1FFFC00000
1FFF800000
0FFF000000
0FFF800000
0FFF800000
0FFF804000
0FFFCFE000
0FFFFFC000
07FFFFC000
07FFFFC000
07FFFFC000
07FFFFC000
07FFFFE000
03FFFFE000
03FFF00000
03FFE00000
03FFE00000
03FFE00380
03FFFFFF80
01FFFFFFC0
03FFFFFFC0
01FFFFFFC0
01FFFFFFC0
01FFFFFFE0
01FFFFFFE0
01FFFFFFE0
01FFFFFFE0
01FFFFFFF0
01FFFFFFF0
01FFFFFFF0
00FFFFFFF0
00FFFFFFF0
00FFFFFFE0
00FFFFFE00
00FFFFF000
00FFFE0000
007FE00000
0030000000
ENDCHAR
STARTCHAR 0046
ENCODING 70
SWIDTH 501 0
DWIDTH 39 0
BBX 37 55 1 0
BITMAP
000001FC00
0003FFFFC0
03FFFFFFE0
1FFFFFFFF0
7FFFFFFFF0
FFFFFFFFF0
FFFFFFFFF0
FFFFFFFFF0
FFFFFFFFF8
FFFFFFFFF8
FFFFFFFFF8
FFFFFFFFF8
FFFFFF0020
FFFFC00000
FFFF000000
FFFE000000
FFFE000000
FFFE000000
FFFE000000
FFFC000000
FFFC000000
FFFE7E0000
7FFFFE0000
7FFFFE0000
7FFFFE0000
7FFFFE0000
7FFFFE0000
7FFFFE0000
7FFFFE0000
FFFFFE0000
FFFFFE0000
FFFF860000
FFFE060000
FFFC000000
7FFC000000
FFFC000000
FFFC000000
FFFC000000
FFFC000000
FFFC000000
FFFC000000
FFFC000000
FFFC000000
7FFC000000
7FFC000000
7FFC000000
7FFE000000
7FFE000000
7FFE000000
7FFE000000
3FFF000000
3FFF000000
3FFF800000
3FFC000000
1E00000000
ENDCHAR
STARTCHAR 0047
ENCODING 71
SWIDTH 501 0
DWIDTH 39 0
BBX 37 52 1 1
BITMAP
0001FFE000
0003FFFC00
000FFFFE00
001FFFFF80
001FFFFFC0
003FFFFFC0
007FFFFFE0
00FFFFFFE0
00FFFFFFF0
01FFFFFFE0
01FFFFFFE0
03FFFEFFC0
03FFE03F00
07FF800000
07FF000000
07FE000000
0FFC000000
0FFC000000
0FFC000000
1FFC000000
1FF8000000
1FF8000000
1FF8001FF8
3FF003FFF8
3FF01FFFF8
3FF01FFFF8
3FF00FFFF8
3FF00FFFF8
7FF00FFFF8
7FF007FFF8
7FF807FFF8
7FF807FFF8
7FF807FFF8
7FF807FFF0
FFFC07FFF0
FFFE0FFFF0
FFFFFFFFF0
FFFFFFFFF0
FFFFFFFFF0
FFFFFFFFF0
FFFFFFFFF0
7FFFFFFFF0
7FFFFFFFE0
7FFFFFFFC0
3FFFFFFF00
3FFFFFFE00
1FFFFFF800
0FFFFFF000
07FFFFC000
03FFFF0000
00FFF80000
007F800000
ENDCHAR
STARTCHAR 0048
ENCODING 72
SWIDTH 552 0
DWIDTH 43 0
BBX 42 52 1 1
BITMAP
000070000000
003FFC000000
03FFFC03FF80
07FFF807FFC0
07FFF80FFFC0
0FFFF00FFF80
07FFF80FFF80
07FFFC0FFF80
03FFF80FFF80
03FFF80FFF80
07FFF80FFF80
07FFF81FFF80
07FFF81FFF80
07FFF81FFF80
07FFF81FFF80
07FFF81FFF80
07FFF81FFF80
07FFF81FFF80
07FFF81FFF80
0FFFF83FFF00
0FFFFFFFFF00
0FFFFFFFFF00
0FFFFFFFFF00
0FFFFFFFFF00
0FFFFFFFFF00
0FFFFFFFFF00
0FFFFFFFFF00
0FFFFFFFFF00
0FFFFFFFFF00
1FFFFFFFFF80
1FFFFFFFFF80
1FFFFFFFFF80
1FFFFFFFFF80
1FFFFFFFFF80
1FFFFFFFFF80
1FFFF07FFF80
1FFFE07FFF00
1FFFE07FFF00
1FFFE07FFF00
1FFFE07FFF00
1FFFE07FFF00
1FFFE07FFF00
3FFFE07FFF00
3FFFE07FFF00
3FFFE07FFF00
3FFFE0FFFE00
3FFFE07FFE00
3FFFE07FFE00
7FFFE07FFE00
7FFFE07FFC00
FFFFC0FF0000
00FFC0F00000
ENDCHAR
STARTCHAR 0049
ENCODING 73
SWIDTH 334 0
DWIDTH 26 0
BBX 23 52 2 0
BITMAP
03FFF6
07FFFE
07FFFE
07FFFC
03FFFC
07FFFC
07FFF8
07FFF8
07FFF8
07FFF8
07FFF8
0FFFF8
0FFFF8
0FFFF8
0FFFF0
0FFFF0
0FFFF0
0FFFF0
0FFFF0
0FFFF0
1FFFF0
1FFFF0
1FFFF0
1FFFF0
1FFFF0
1FFFF0
1FFFF0
1FFFF0
1FFFF0
1FFFF0
1FFFF0
1FFFF0
1FFFF0
1FFFF0
1FFFF0
1FFFF0
1FFFF0
1FFFF0
3FFFF0
3FFFF0
3FFFF0
3FFFF0
3FFFE0
3FFFE0
3FFFE0
3FFFC0
3FFFE0
7FFFE0
7FFFC0
FFFF80
FFE000
FC0000
ENDCHAR
STARTCHAR 004A
ENCODING 74
SWIDTH 450 0
DWIDTH 35 0
BBX 34 53 1 -1
BITMAP
0000000600
0000FFFF00
0000FFFF00
0001FFFF00
0001FFFF00
0001FFFF00
0001FFFF80
0003FFFF80
0003FFFF80
0003FFFF80
0003FFFF80
0003FFFF80
0007FFFF80
0007FFFF80
0007FFFF80
0007FFFF80
0007FFFF80
0007FFFF80
0007FFFF80
0007FFFF80
0007FFFF80
0007FFFF80
0003FFFFC0
0007FFFFC0
0003FFFFC0
0003FFFFC0
0003FFFFC0
0003FFFFC0
0001FFFFC0
0001FFFFC0
0001FFFF80
0000FFFF80
0000FFFF80
0000FFFF80
0000FFFF80
00E07FFF80
3FF07FFF80
FFF07FFF80
7FF87FFF00
FFFC7FFF00
7FFCFFFF00
FFFE7FFE00
FFFE7FFE00
7FFFFFFC00
7FFFFFFC00
3FFFFFF800
1FFFFFF000
1FFFFFE000
0FFFFFC000
07FFFF8000
01FFFF0000
007FFE0000
000FF80000
ENDCHAR
STARTCHAR 004B
ENCODING 75
SWIDTH 552 0
DWIDTH 43 0
BBX 41 54 1 0
BITMAP
000000008000
00101803C000
FFFFF807E000
FFFFFC0FF000
3FFFF81FF800
3FFFF81FFD00
3FFFF83FFF80
3FFFF87FFF00
7FFFF87FFE00
7FFFF8FFFE00
7FFFF8FFFC00
7FFFF9FFF800
7FFFF9FFF800
7FFFFBFFF000
7FFFFBFFE000
7FFFFBFFC000
7FFFFFFFC000
7FFFFFFF8000
7FFFFFFF0000
7FFFFFFE0000
7FFFFFFE0000
7FFFFFFC0000
7FFFFFFC0000
7FFFFFFC0000
7FFFFFF80000
7FFFFFF00000
7FFFFFF00000
7FFFFFE00000
FFFFFF800000
FFFFFFC00000
FFFFFFE00000
FFFFFFF00000
FFFFFFF80000
FFFFFFFC0000
FFFFFFFE0000
FFFFFFFF0000
FFFFFFFF8000
FFFFFFFFC000
FFFFFFFFE000
FFFFFBFFE000
FFFFFBFFF000
FFFFF9FFF800
FFFFF0FFF800
FFFFF0FFFC00
FFFFF07FFE00
FFFFF03FFE00
FFFFF03FFF00
FFFFF81FFF00
7FFFF81FFF00
7FFFF80FFF80
7FFFF807F380
FFFFF807C000
7FFFE0078000
000200030000
ENDCHAR
STARTCHAR 004C
ENCODING 76
SWIDTH 514 0
DWIDTH 40 0
BBX 38 54 1 -1
BITMAP
0001FFC000
003FFFE000
00FFFFE000
01FFFFE000
01FFFFE000
01FFFFE000
01FFFFE000
01FFFFE000
03FFFFC000
03FFFFC000
03FFFFC000
03FFFFC000
03FFFFC000
03FFFFC000
03FFFF8000
03FFFF8000
03FFFF8000
03FFFF8000
03FFFF8000
03FFFF8000
03FFFF0000
07FFFF0000
07FFFF0000
07FFFF0000
07FFFF0000
07FFFF0000
0FFFFE0000
0FFFFE0000
0FFFFE0000
0FFFFE0000
0FFFFE0000
0FFFFE0000
1FFFFC0000
1FFFFC0000
1FFFFC0000
1FFFFC0000
1FFFFE0000
1FFFFFFFF8
1FFFFFFFF0
1FFFFFFFF0
3FFFFFFFF0
3FFFFFFFF0
1FFFFFFFF0
3FFFFFFFF8
3FFFFFFFF0
3FFFFFFFF0
3FFFFFFFF8
3FFFFFFFF8
3FFFFFFFF8
3FFFFFFFFC
3FFFFFFE00
3FFFFFFF00
7FFE000000
FE00000000
ENDCHAR
STARTCHAR 004D
ENCODING 77
SWIDTH 642 0
DWIDTH 50 0
BBX 48 54 1 -1
BITMAP
01E000000000
01F000000380
01F000000FC0
01F800001FC0
01FC00001FC0
01FE00003FC0
01FE00003FE0
01FF00007FE0
01FF80007FE0
01FF8000FFE0
03FFC000FFE0
03FFC001FFE0
03FFE001FFE0
03FFF003FFE0
03FFF007FFF0
07FFF807FFF0
07FFF80FFFF0
07FFFC0FFFF8
07FFFE1FFFF8
07FFFE3FFFF8
07FFFF3FFFF8
07FFFFFFFFF8
07FFFFFFFFF8
0FFFFFFFFFF8
0FFFFFFFFFF8
0FFFFFFFFFF8
0FFFFFFFFFF8
0FFFFFFFFFF8
0FFFFFFFFFF8
0FFFFFFFFFF8
1FFFFBFBFFFC
1FFFF1FBFFFC
1FFFF1F3FFFC
1FFFE0F3FFFC
1FFFE073FFFC
1FFFC003FFFC
1FFFC003FFFC
3FFFC003FFFE
3FFF8007FFFE
3FFF8007FFFE
3FFF8007FFFE
3FFF0007FFFE
3FFF0007FFFE
7FFF0007FFFE
7FFE0007FFFF
7FFE0007FFFF
7FFE0007FFFF
7FFE0007FFFF
7FFC0007FFFF
FFFC0007FFFF
FFFC0007FFFA
7FF800000F00
FEF800000000
C00000000000
ENDCHAR
STARTCHAR 004E
ENCODING 78
SWIDTH 565 0
DWIDTH 44 0
BBX 42 51 1 1
BITMAP
007C0000FC00
01FFE003FF00
07FFF81FFF80
07FFF81FFFC0
07FFF81FFFC0
07FFF81FFFC0
07FFF81FFFC0
07FFF01FFF80
0FFFF81FFF80
0FFFF81FFF80
0FFFF81FFF80
0FFFF83FFF80
0FFFFC3FFF80
0FFFFC3FFF80
1FFFFC3FFF80
1FFFFC3FFF80
1FFFFE3FFF00
1FFFFE3FFF00
1FFFFE3FFF00
1FFFFE3FFF00
1FFFFF3FFF00
1FFFFF3FFF00
3FFFFF3FFF00
3FFFFF3FFF00
3FFFFFBFFF00
3FFFFFBFFF00
3FFFFFBFFE00
3FFFFFFFFE00
3FFFFFFFFE00
3FFFFFFFFE00
3FFFBFFFFE00
3FFFBFFFFE00
3FFF9FFFFE00
3FFF9FFFFE00
3FFF9FFFFE00
3FFF8FFFFE00
7FFF8FFFFE00
7FFF8FFFFE00
7FFF87FFFE00
7FFF87FFFC00
7FFF87FFFE00
7FFF03FFFE00
7FFF03FFFC00
7FFF03FFFC00
7FFF01FFFC00
7FFF01FFFC00
7FFF01FFFC00
7FFF01FFFC00
FFFF01FFFC00
FFFF01FFF800
FFE0003FC000
ENDCHAR
STARTCHAR 004F
ENCODING 79
SWIDTH 527 0
DWIDTH 41 0
BBX 40 55 1 -1
BITMAP
000FC00000
001FF00000
003FFC0000
007FFF0000
007FFF8000
00FFFFE000
00FFFFF000
01FFFFFC00
03FFFFFE00
03FFFFFE00
03FFFFFF00
07FFFFFF80
07FFFFFFC0
0FFFFFFFC0
0FFFFFFFE0
1FFFFFFFE0
1FFFFFFFF0
1FFFFFFFF0
3FFFFFFFF8
3FFFFFFFF8
3FFF83FFFC
7FFF00FFFC
7FFF00FFFC
7FFE00FFFE
FFFE00FFFE
FFFE007FFE
FFFE007FFE
FFFE007FFE
FFFE00FFFF
FFFE00FFFF
FFFE00FFFF
7FFF00FFFF
7FFF81FFFF
7FFFE3FFFE
7FFFFFFFFE
7FFFFFFFFE
3FFFFFFFFE
3FFFFFFFFE
3FFFFFFFFC
3FFFFFFFFC
1FFFFFFFFC
1FFFFFFFFC
1FFFFFFFF8
0FFFFFFFF8
0FFFFFFFF8
07FFFFFFF8
07FFFFFFF0
03FFFFFFF0
01FFFFFFE0
00FFFFFFC0
007FFFFF80
001FFFFE00
0007FFFC00
0000FFF000
00000F0000
ENDCHAR
STARTCHAR 0050
ENCODING 80
SWIDTH 488 0
DWIDTH 38 0
BBX 37 53 1 0
BITMAP
003FF80000
07FFFF8000
1FFFFFF000
1FFFFFF800
1FFFFFFC00
1FFFFFFE00
1FFFFFFF00
1FFFFFFF80
1FFFFFFF80
1FFFFFFFC0
1FFFFFFFC0
1FFFFFFFC0
1FFF01FFE0
1FFF007FE0
1FFF007FE0
1FFF003FE0
1FFF803FF0
1FFF807FF0
3FFF807FF0
3FFF807FF0
3FFFC0FFF0
3FFFC0FFF0
3FFFC1FFF0
3FFFE3FFF0
3FFFFFFFF8
3FFFFFFFF0
3FFFFFFFE0
3FFFFFFFC0
3FFFFFFF80
7FFFFFFF00
7FFFFFFE00
7FFFFFF800
7FFFF00000
7FFFF00000
7FFFF00000
7FFFE00000
7FFFE00000
7FFFE00000
7FFFE00000
FFFFF00000
FFFFF00000
FFFFF00000
FFFFF00000
FFFFF00000
FFFFF00000
FFFFF00000
FFFFF00000
FFFFF00000
FFFFF00000
FFFFF00000
FFFFF00000
FFFFF80000
7FFFF00000
ENDCHAR
STARTCHAR 0051
ENCODING 81
SWIDTH 617 0
DWIDTH 48 0
BBX 46 57 1 -3
BITMAP
0001FC000000
001FFF000000
007FFFC00000
00FFFFE00000
01FFFFF00000
01FFFFF80000
03FFFFFC0000
07FFFFFE0000
07FFFFFF0000
0FFFFFFF8000
0FFFFFFFC000
0FFFFFFFE000
1FFFFFFFF000
1FFFFFFFF000
1FFF8FFFF800
1FFF07FFF800
3FFE03FFF800
3FFE01FFFC00
3FFE00FFFC00
3FFE007FFC00
7FFE007FFC00
7FFE003FFC00
7FFE003FFE00
7FFE001FFE00
7FFE001FFE00
7FFE001FFE00
FFFE001FFE00
FFFE003FFE00
FFFE003FFE00
FFFF003FFE00
FFFF803FFE00
FFFFE0FFFC00
FFFFFFFFFC00
FFFFFFFFFC00
7FFFFFFFFC00
7FFFFFFFFC00
7FFFFFFFF800
7FFFFFFFF800
7FFFFFFFF000
7FFFFFFFF000
3FFFFFFFF000
3FFFFFFFF000
1FFFFFFFF800
1FFFFFFFFC00
0FFFFFFFFE00
07FFFFFFFF00
03FFFFFFFF00
01FFFFFFFF80
00FFFFFFFFC0
007FFFFFFFE0
001FFFFFFFF0
0007FFFFFFF8
00007C3FFFF8
0000001FFFFC
0000000FFFFC
0000000FFF80
000000070000
ENDCHAR
STARTCHAR 0052
ENCODING 82
SWIDTH 578 0
DWIDTH 45 0
BBX 43 54 1 -1
BITMAP
000FFE000000
01FFFF800000
1FFFFFF00000
3FFFFFFC0000
7FFFFFFE0000
FFFFFFFF8000
FFFFFFFFC000
FFFFFFFFE000
FFFFF3FFE000
FFFFC07FF000
7FFFC01FF000
7FFFC00FF000
7FFFC00FF000
7FFFC00FF800
7FFFC00FF800
7FFFE00FF800
7FFFE00FF800
7FFFE00FF800
7FFFE01FF800
7FFFF03FF800
7FFFF87FF000
7FFFF9FFF000
3FFFFFFFF000
3FFFFFFFE000
3FFFFFFFE000
3FFFFFFFC000
3FFFFFFF8000
3FFFFFFC0000
3FFFFFFC0000
3FFFFFFE0000
3FFFFFFE0000
3FFFFFFF0000
3FFFFFFF8000
3FFFFFFF8000
3FFFFBFFC000
3FFFFBFFC000
3FFFF9FFE000
1FFFF8FFF000
1FFFF8FFF000
3FFFF87FF800
3FFFF87FF800
1FFFF83FFC00
1FFFFC3FFE00
1FFFFC1FFE00
1FFFFC1FFF00
1FFFFC0FFF00
1FFFFC0FFF80
1FFFFC0FFFC0
0FFFFC07FFC0
0FFFFE07FFE0
0FFFFC03FFE0
07FFFC03FFC0
07FFFC01FC00
03FFF0018000
ENDCHAR
STARTCHAR 0053
ENCODING 83
SWIDTH 501 0
DWIDTH 39 0
BBX 37 55 1 -1
BITMAP
00003F8000
0007FFFFC0
003FFFFFF8
007FFFFFF8
01FFFFFFF0
01FFFFFFF0
01FFFFFFE0
03FFFFFFE0
03FFFFFFC0
07FFFFFFC0
07FFFFFFC0
07FFFFFF80
0FFFFFFF80
0FFFFFFF00
1FFFFFFF00
1FFFFFFE00
1FFFFFFE00
1FFFFFFC00
1FFFFFFC00
1FFFFFFC00
1FFF80F800
1FFF001C00
1FFF800000
0FFFE00000
0FFFF80000
0FFFFE0000
07FFFF8000
03FFFFF000
03FFFFFC00
01FFFFFF00
00FFFFFF80
000FFFFF80
0001FFFFC0
00003FFFC0
00000FFFC0
000003FFC0
000003FFE0
000007FFE0
3C0007FFE0
7E001FFFE0
7F8FFFFFE0
7FFFFFFFE0
FFFFFFFFE0
FFFFFFFFE0
FFFFFFFFE0
FFFFFFFFC0
FFFFFFFFC0
7FFFFFFFC0
3FFFFFFF80
1FFFFFFC00
0FFFFFF800
07FFFFF000
01FFFFC000
007FFF0000
0003F00000
ENDCHAR
STARTCHAR 0054
ENCODING 84
SWIDTH 565 0
DWIDTH 44 0
BBX 43 53 1 0
BITMAP
00000000E000
0FFFFFFFFC00
7FFFFFFFFF00
7FFFFFFFFF80
7FFFFFFFFF80
7FFFFFFFFF80
7FFFFFFFFFC0
7FFFFFFFFFC0
7FFFFFFFFFC0
7FFFFFFFFFC0
7FFFFFFFFFC0
7FFFFFFFFFC0
7FFFFFFFFFC0
FFFFFFFFFFE0
FFFFFFFFFFC0
FFFFFFFFC000
FFFEFFFE0000
7FC07FFC0000
7C007FF80000
40007FF80000
0000FFF00000
0000FFF00000
0000FFF00000
0000FFF00000
0000FFF00000
0000FFF00000
0000FFF00000
0000FFF00000
0000FFF00000
0000FFF00000
0000FFF00000
0000FFF00000
0000FFF00000
0000FFF00000
0000FFF00000
0000FFF00000
0000FFF00000
0000FFF00000
0000FFF00000
0000FFF00000
0000FFF00000
0000FFE00000
0000FFF00000
0000FFF00000
0000FFF00000
0000FFF00000
0000FFF00000
0000FFF00000
0000FFF00000
0000FFF00000
0000FFE00000
0000FFE00000
00007FE00000
ENDCHAR
STARTCHAR 0055
ENCODING 85
SWIDTH 540 0
DWIDTH 42 0
BBX 41 52 1 1
BITMAP
07F000000000
07FF000FFF00
07FF800FFF00
07FF801FFF00
0FFF000FFF00
0FFF000FFF00
0FFE000FFF00
0FFF0007FF00
1FFF000FFF00
1FFE000FFF00
1FFE000FFF00
1FFE000FFF00
3FFE000FFF00
3FFE000FFF00
3FFE000FFF00
3FFE000FFF00
3FFE000FFF00
7FFE001FFF00
7FFE001FFF00
7FFE001FFF00
7FFE001FFF00
7FFE001FFF00
7FFE001FFF00
7FFE003FFF00
FFFE003FFF00
FFFF003FFF80
FFFF003FFF80
7FFF803FFF00
7FFFC07FFF00
7FFFE07FFF00
7FFFFEFFFE00
7FFFFFFFFE00
7FFFFFFFFE00
7FFFFFFFFC00
7FFFFFFFFC00
7FFFFFFFFC00
3FFFFFFFF800
3FFFFFFFF800
3FFFFFFFF800
1FFFFFFFF000
1FFFFFFFF000
1FFFFFFFE000
0FFFFFFFC000
07FFFFFFC000
07FFFFFF8000
03FFFFFF0000
03FFFFFE0000
01FFFFFC0000
00FFFFF80000
003FFFF80000
0007FFE00000
000040000000
ENDCHAR
STARTCHAR 0056
ENCODING 86
SWIDTH 591 0
DWIDTH 46 0
BBX 44 50 1 2
BITMAP
000000000F00
78000000FFF0
FF00000FFFF0
FFF8000FFFF0
7FFFC00FFFF0
1FFFF00FFFE0
1FFFF00FFFE0
1FFFF80FFFF0
1FFFFC0FFFF0
0FFFF80FFFE0
0FFFF80FFFE0
0FFFFC0FFFE0
07FFFC0FFFE0
07FFFC1FFFC0
07FFFC1FFFC0
03FFFE1FFFC0
03FFFE1FFFC0
01FFFE1FFF80
01FFFE1FFF80
01FFFE1FFF80
00FFFF1FFF80
00FFFF1FFF00
007FFF3FFF00
007FFF3FFF00
003FFF3FFF00
003FFFBFFE00
001FFFFFFE00
001FFFFFFE00
000FFFFFFE00
0007FFFFFC00
0007FFFFFC00
0003FFFFFC00
0003FFFFFC00
0001FFFFFC00
0000FFFFF800
0000FFFFF800
00007FFFF800
00003FFFF800
00003FFFF800
00001FFFF000
00000FFFF000
00000FFFF000
000007FFF000
000003FFF000
000003FFF000
000001FFE000
000000FFE000
0000007FE000
0000007FE000
0000003F8000
ENDCHAR
STARTCHAR 0057
ENCODING 87
SWIDTH 720 0
DWIDTH 56 0
BBX 54 54 1 0
BITMAP
00000000003000
00000000003818
3FF80000007FFC
7FFC0000007FFC
7FFE007C007FFC
FFFE007E00FFFC
FFFF007E00FFF8
7FFF007E00FFF8
FFFF007F01FFF0
FFFF807F01FFF0
7FFF807F03FFF0
7FFF807F83FFE0
7FFFC07F83FFE0
7FFFC07F87FFE0
3FFFE07F87FFE0
3FFFE07F87FFC0
3FFFE0FFCFFFC0
1FFFF0FFCFFFC0
1FFFF0FFEFFFE0
1FFFF8FFFFFFE0
0FFFF8FFFFFFC0
0FFFFDFFFFFFC0
07FFFFFFFFFFC0
07FFFFFFFFFFC0
03FFFFFFFFFF80
03FFFFFFFFFF80
01FFFFFFFFFF80
01FFFFFFFFFF80
01FFFFFFFFFF80
00FFFFFFFFFF00
00FFFFFFFFFF00
007FFFFFFFFF00
007FFFFFFFFF00
003FFFFBFFFF00
003FFFF9FFFF00
001FFFF1FFFE00
001FFFF0FFFE00
000FFFF0FFFE00
000FFFF0FFFE00
0007FFE0FFFE00
0007FFE07FFE00
0003FFC07FFE00
0003FFC07FFE00
0001FFC03FFC00
0001FF803FFC00
0000FF803FFC00
0000FF803FFC00
00007F801FFC00
00007F001FF800
00003F000FF800
00001F000FC000
00001F00000000
00000E00000000
00000600000000
ENDCHAR
STARTCHAR 0058
ENCODING 88
SWIDTH 565 0
DWIDTH 44 0
BBX 43 52 1 1
BITMAP
00000001E000
00000003FFC0
1FFC0003FFE0
3FFE0007FFE0
7FFC000FFFE0
FFFE000FFFC0
FFFF001FFFC0
FFFF001FFF80
FFFF803FFF80
7FFFC03FFF00
7FFFC07FFF00
7FFFE07FFE00
7FFFE07FFE00
3FFFE0FFFC00
3FFFF0FFFC00
1FFFF1FFFC00
1FFFF9FFF800
0FFFF9FFF800
07FFFFFFF000
03FFFFFFF000
01FFFFFFF000
00FFFFFFE000
007FFFFFE000
003FFFFFC000
003FFFFFC000
001FFFFF8000
001FFFFF8000
000FFFFF0000
000FFFFF0000
0007FFFF0000
0007FFFF0000
001FFFFF0000
001FFFFF8000
003FFFFF8000
003FFFFFC000
007FFFFFC000
007FFFFFC000
00FFFFFFE000
00FFFBFFE000
01FFFBFFE000
01FFF1FFF000
03FFF0FFF000
03FFF0FFF800
07FFF07FF800
07FFF03FFC00
07FFF03FFC00
0FFFE01FFE00
0FFFE00FFC00
0FFFE007E000
1FFFC0030000
1FFFC0000000
0C0000000000
ENDCHAR
STARTCHAR 0059
ENCODING 89
SWIDTH 604 0
DWIDTH 47 0
BBX 45 53 1 1
BITMAP
000000003FF8
00000000FFF8
00780000FFF8
07F80000FFF0
3FFC0001FFE0
FFFE0001FFF0
FFFE0003FFE0
7FFF0003FFE0
7FFF0007FFC0
3FFF8007FFC0
3FFF8007FF80
3FFFC00FFF80
1FFFC01FFF00
1FFFE01FFF00
0FFFE03FFE00
07FFE03FFE00
07FFF07FFC00
03FFF07FFC00
03FFF8FFF800
01FFF8FFF800
01FFFDFFF000
00FFFDFFF000
00FFFFFFE000
007FFFFFE000
007FFFFFC000
003FFFFFC000
003FFFFF8000
001FFFFF8000
001FFFFF8000
000FFFFF0000
000FFFFF0000
0007FFFE0000
0007FFFE0000
0003FFFC0000
0003FFFC0000
0001FFF80000
0000FFF80000
0000FFF80000
00007FF80000
00007FF80000
00007FF80000
00007FF80000
00007FF80000
00007FF80000
00007FF80000
00007FFC0000
00007FFC0000
00007FFC0000
00007FFC0000
00007FFC0000
00007FFC0000
00007FF80000
00003F800000
ENDCHAR
STARTCHAR 005A
ENCODING 90
SWIDTH 591 0
DWIDTH 46 0
BBX 44 53 1 0
BITMAP
00000FE00000
0003FFFF8000
003FFFFFFC00
03FFFFFFF800
0FFFFFFFF800
1FFFFFFFF000
1FFFFFFFE000
3FFFFFFFE000
3FFFFFFFC000
7FFFFFFF8000
7FFFFFFF8000
FFFFFFFF0000
FFFFFFFF0000
FFFFFFFE0000
FFF81FFE0000
40003FFC0000
00003FFC0000
00003FF80000
00007FF80000
00007FF80000
00007FF00000
0000FFF00000
0000FFE00000
0001FFE00000
0001FFE00000
0001FFE00000
0003FFC00000
0003FFC00000
0003FFC00000
0007FFC00000
0007FF800000
0007FF800000
000FFF800000
000FFF800000
000FFF800000
001FFF000000
001FFE000000
001FFE000000
003FFC000000
003FFC07FFF0
003FFFFFFFF0
007FFFFFFFF0
007FFFFFFFF0
007FFFFFFFF0
00FFFFFFFFF0
00FFFFFFFFF0
00FFFFFFFFE0
00FFFFFFFFC0
00FFFFFFFFC0
00C7FFFFFF00
0000FFFFFE00
00001FFFFC00
000003FFE000
ENDCHAR
STARTCHAR 005B
ENCODING 91
SWIDTH 347 0
DWIDTH 27 0
BBX 25 74 1 -11
BITMAP
0007FF80
7FFFFF80
7FFFFF80
7FFFFF80
7FFFFF80
7FFFFF80
7FFFFF80
7FFFFF80
7FFFFF80
7FFFFF80
7FFFE000
7FF00000
7FF00000
7FF00000
7FF00000
7FF00000
7FF00000
7FF00000
7FF00000
7FF00000
7FF00000
7FF00000
7FF00000
7FF00000
7FF00000
7FF00000
7FF00000
7FF00000
7FF00000
7FF00000
7FF00000
7FF00000
7FF00000
7FF00000
7FF00000
7FF00000
7FF00000
7FF00000
7FF00000
7FF00000
7FF00000
7FF00000
7FF00000
7FF00000
7FF00000
7FF00000
7FF00000
7FF00000
7FF00000
7FF00000
7FF00000
7FF00000
7FF00000
7FF00000
7FF00000
7FF00000
FFF00000
FFF00000
FFF00000
FFF00000
FFF00000
FFF00000
FFF00000
FFF7FF00
FFFFFF80
FFFFFF80
FFFFFF80
FFFFFF80
FFFFFF80
FFFFFF80
FFFFFF80
FFFFFF80
FFFFFF80
FFFFFC00
ENDCHAR
STARTCHAR 005C
ENCODING 92
SWIDTH 450 0
DWIDTH 35 0
BBX 33 62 1 -4
BITMAP
7FFC000000
FFFC000000
FFFC000000
FFFE000000
7FFE000000
7FFE000000
7FFF000000
7FFF000000
3FFF000000
3FFF800000
3FFF800000
3FFF800000
1FFFC00000
1FFFC00000
1FFFC00000
0FFFE00000
0FFFE00000
0FFFE00000
07FFE00000
07FFF00000
03FFF00000
03FFF00000
03FFF80000
01FFF80000
01FFF80000
00FFFC0000
00FFFC0000
00FFFC0000
007FFC0000
007FFE0000
003FFE0000
003FFE0000
003FFF0000
001FFF0000
001FFF0000
000FFF8000
000FFF8000
0007FF8000
0007FFC000
0007FFC000
0003FFC000
0003FFE000
0001FFE000
0001FFE000
0000FFF000
0000FFF000
0000FFF000
00007FF800
00007FF800
00003FF800
00003FFC00
00001FFC00
00001FFE00
00001FFE00
00000FFE00
00000FFF00
000007FF00
000007FF80
000003FF80
000001FF80
000001E180
000000C000
ENDCHAR
STARTCHAR 005D
ENCODING 93
SWIDTH 347 0
DWIDTH 27 0
BBX 25 74 1 -11
BITMAP
001FFF80
FFFFFF80
FFFFFF80
FFFFFF80
FFFFFF80
FFFFFF80
FFFFFF80
FFFFFF80
FFFFFF80
FFFFFF80
FFFFFF80
0007FF80
0007FF80
0007FF80
0007FF80
0007FF80
0007FF80
0007FF80
0007FF80
0007FF80
0007FF80
0007FF80
0007FF80
0007FF80
0007FF80
0007FF80
0007FF80
0007FF80
0003FF80
0003FF80
0003FF80
0003FF80
0003FF80
0003FF80
0007FF80
0007FF80
0007FF80
0007FF80
0007FF80
0007FF80
0007FF80
0007FF80
0007FF80
0003FF80
0003FF80
0003FF80
0007FF80
0007FF80
0007FF80
0007FF80
0007FF80
0007FF80
0007FF80
0007FF80
0007FF80
0007FF80
0007FF00
0007FF80
0003FF80
0003FF80
0003FF80
0003FF80
0003FF80
007FFF80
FFFFFF80
FFFFFF80
FFFFFF80
FFFFFF80
FFFFFF80
FFFFFF80
FFFFFF80
FFFFFF80
7FFFFF80
7FFC0000
ENDCHAR
STARTCHAR 005E
ENCODING 94
SWIDTH 488 0
DWIDTH 38 0
BBX 36 32 1 25
BITMAP
0000380000
0001FE0000
0001FF0000
0003FF0000
0007FF0000
0007FF8000
000FFF8000
001FFFC000
001FFFC000
003FFFE000
003FFFE000
007FFFE000
00FFFFF000
00FFFFF000
01FFDFF800
01FFDFF800
03FFCFFC00
07FF8FFC00
07FF8FFE00
0FFF8FFE00
0FFF07FF00
1FFF07FF00
1FFF07FF80
3FFF07FF80
3FFE07FFC0
7FFE03FFC0
7FFE03FFE0
7FFE03FFE0
7FFC03FFF0
FFFC03FFF0
FFF803FFF0
F00001FFE0
ENDCHAR
STARTCHAR 005F
ENCODING 95
SWIDTH 385 0
DWIDTH 30 0
BBX 28 10 1 -9
BITMAP
FFFFFFE0
FFFFFFF0
FFFFFFF0
FFFFFFF0
FFFFFFF0
FFFFFFF0
FFFFFFF0
7FFFFFF0
7FFFFFF0
037E0000
ENDCHAR
STARTCHAR 0060
ENCODING 96
SWIDTH 231 0
DWIDTH 18 0
BBX 16 12 1 55
BITMAP
7FE0
FFE0
7FF0
3FF0
1FF8
0FFC
07FC
07FE
03FE
01FF
00FF
0078
ENDCHAR
STARTCHAR 0061
ENCODING 97
SWIDTH 630 0
DWIDTH 49 0
BBX 47 55 1 -2
BITMAP
000000300000
000003F80000
000007FC0000
000007FC0000
000007FC0000
00000FFE0000
00000FFE0000
00001FFE0000
00001FFE0000
00001FFF0000
00003FFF0000
00003FFF0000
00003FFF0000
00007FFF8000
00007FFF8000
0000FFFF8000
0000FFFF8000
0000FFFFC000
0001FFFFC000
0001FFFFC000
0001FFFFE000
0003FFFFE000
0003FFFFE000
0007FFFFF000
0007FFFFF000
000FFFFFF000
000FFFFFF000
000FFFFFF800
001FF3FFF800
001FE1FFF800
003FE1FFFC00
003FC0FFFC00
007F80FFFC00
007F80FFFE00
00FF007FFE00
00FF00FFFE00
00FF0FFFFF00
01FFFFFFFF00
01FFFFFFFF80
03FFFFFFFF80
03FFFFFFFF80
07FFFFFFFFC0
07FFFC7FFFC0
0FFFC07FFFE0
0FFF807FFFE0
0FFF007FFFE0
1FFF003FFFF0
1FFF003FFFF0
3FFE003FFFF8
3FFE001FFFF8
7FFE001FFFFC
7FFE001FFFFC
7FFE000FFFFE
FFF8000F0004
F80000000000
ENDCHAR
STARTCHAR 0062
ENCODING 98
SWIDTH 514 0
DWIDTH 40 0
BBX 38 53 1 1
BITMAP
00F0000000
07FFF00000
1FFFFF0000
7FFFFFC000
FFFFFFF000
FFFFFFF000
FFFFFFF800
FFFFFFF800
FFFFFFFC00
7FFFFFFC00
7FFFFFFE00
7FFFFFFE00
7FFFFFFF00
7FFE0FFF00
3FFC07FF00
3FFC03FF00
3FFE03FF00
3FFE03FE00
1FFE03FE00
1FFE03FE00
1FFE07FC00
1FFF07FC00
1FFF9FFC00
1FFFFFF800
1FFFFFF000
1FFFFFE000
1FFFFFF800
1FFFFFFF00
0FFFFFFF80
0FFFFFFFC0
0FFFFFFFE0
0FFFFFFFF0
0FFFE7FFF0
0FFFE07FF8
0FFFC07FF8
0FFFE07FFC
0FFFE07FFC
0FFFE07FFC
07FFE0FFFC
07FFE0FFFC
07FFE1FFFC
07FFE3FFFC
07FFF7FFFC
07FFFFFFF8
07FFFFFFF8
07FFFFFFF0
03FFFFFFE0
03FFFFFFC0
03FFFFFF80
03FFFFFF00
03FFFFFC00
03FFFFC000
01FFF80000
ENDCHAR
STARTCHAR 0063
ENCODING 99
SWIDTH 488 0
DWIDTH 38 0
BBX 36 52 1 1
BITMAP
00001F8000
0000FFF800
0007FFFE00
001FFFFF80
00FFFFFFC0
01FFFFFFE0
03FFFFFFF0
07FFFFFFF0
0FFFFFFFF0
0FFFFFFFF0
1FFFFFFFF0
1FFFFFFFF0
3FFFFFFFE0
3FFFFFFFE0
7FFFFFFEE0
7FFFFE0200
7FFFF00000
7FFFE00000
FFFFC00000
FFFF800000
FFFF800000
7FFF000000
FFFF000000
7FFF000000
FFFF000000
FFFF000000
7FFF000000
FFFF800000
FFFF800000
FFFFE003E0
FFFFF1FFE0
7FFFFFFFE0
7FFFFFFFE0
7FFFFFFFE0
7FFFFFFFE0
7FFFFFFFE0
3FFFFFFFE0
3FFFFFFFE0
3FFFFFFFE0
1FFFFFFFE0
1FFFFFFFE0
1FFFFFFFE0
0FFFFFFFE0
0FFFFFFFE0
07FFFFFFC0
07FFFFFF80
03FFFFFF00
01FFFFFF00
01FFFFFE00
001FFFF800
000FFFE000
00003F8000
ENDCHAR
STARTCHAR 0064
ENCODING 100
SWIDTH 462 0
DWIDTH 36 0
BBX 34 53 1 0
BITMAP
0FFE000000
3FFF800000
FFFFF00000
FFFFFE0000
FFFFFF0000
FFFFFF8000
FFFFFFC000
FFFFFFE000
FFFFFFF000
FFFFFFF800
FFFFFFF800
FFFFFFFC00
FFFFFFFE00
FFFFFFFE00
FFFF3FFF00
7FFE0FFF00
7FFE03FF80
7FFE01FF80
7FFC00FF80
7FFC00FFC0
7FFC01FFC0
7FFE01FFC0
7FFE01FFC0
7FFE01FFC0
3FFE01FFC0
3FFE03FF80
3FFE03FF80
3FFE07FF80
3FFE0FFF00
3FFF0FFF00
3FFF1FFE00
1FFF7FFE00
1FFFFFFC00
1FFFFFFC00
1FFFFFF800
1FFFFFF800
0FFFFFF000
0FFFFFF000
0FFFFFE000
0FFFFFE000
0FFFFFC000
07FFFF8000
07FFFF0000
07FFFF0000
07FFFE0000
03FFFC0000
03FFF80000
03FFE00000
03FF800000
01FE000000
01F8000000
01E0000000
0180000000
ENDCHAR
STARTCHAR 0065
ENCODING 101
SWIDTH 488 0
DWIDTH 38 0
BBX 36 54 1 0
BITMAP
00FFFF0000
0FFFFFF000
3FFFFFF800
7FFFFFF000
FFFFFFF000
FFFFFFF000
7FFFFFF000
7FFFFFE000
3FFFFFE000
3FFFFFE000
3FFFFFE000
3FFFFFE000
1FFFFFC000
1FFFFFE000
1FFFFFE000
1FFFFFC000
1FFFC00000
1FFF800000
0FFF000000
0FFF800000
0FFF800000
0FFF804000
0FFFCFE000
0FFFFFC000
07FFFFC000
07FFFFC000
07FFFFC000
07FFFFC000
07FFFFE000
03FFFFE000
03FFF00000
03FFE00000
03FFE00000
03FFE00380
03FFFFFF80
01FFFFFFC0
03FFFFFFC0
01FFFFFFC0
01FFFFFFC0
01FFFFFFE0
01FFFFFFE0
01FFFFFFE0
01FFFFFFE0
01FFFFFFF0
01FFFFFFF0
01FFFFFFF0
00FFFFFFF0
00FFFFFFF0
00FFFFFFE0
00FFFFFE00
00FFFFF000
00FFFE0000
007FE00000
0030000000
ENDCHAR
STARTCHAR 0066
ENCODING 102
SWIDTH 501 0
DWIDTH 39 0
BBX 37 55 1 0
BITMAP
000001FC00
0003FFFFC0
03FFFFFFE0
1FFFFFFFF0
7FFFFFFFF0
FFFFFFFFF0
FFFFFFFFF0
FFFFFFFFF0
FFFFFFFFF8
FFFFFFFFF8
FFFFFFFFF8
FFFFFFFFF8
FFFFFF0020
FFFFC00000
FFFF000000
FFFE000000
FFFE000000
FFFE000000
FFFE000000
FFFC000000
FFFC000000
FFFE7E0000
7FFFFE0000
7FFFFE0000
7FFFFE0000
7FFFFE0000
7FFFFE0000
7FFFFE0000
7FFFFE0000
FFFFFE0000
FFFFFE0000
FFFF860000
FFFE060000
FFFC000000
7FFC000000
FFFC000000
FFFC000000
FFFC000000
FFFC000000
FFFC000000
FFFC000000
FFFC000000
FFFC000000
7FFC000000
7FFC000000
7FFC000000
7FFE000000
7FFE000000
7FFE000000
7FFE000000
3FFF000000
3FFF000000
3FFF800000
3FFC000000
1E00000000
ENDCHAR
STARTCHAR 0067
ENCODING 103
SWIDTH 501 0
DWIDTH 39 0
BBX 37 52 1 1
BITMAP
0001FFE000
0003FFFC00
000FFFFE00
001FFFFF80
001FFFFFC0
003FFFFFC0
007FFFFFE0
00FFFFFFE0
00FFFFFFF0
01FFFFFFE0
01FFFFFFE0
03FFFEFFC0
03FFE03F00
07FF800000
07FF000000
07FE000000
0FFC000000
0FFC000000
0FFC000000
1FFC000000
1FF8000000
1FF8000000
1FF8001FF8
3FF003FFF8
3FF01FFFF8
3FF01FFFF8
3FF00FFFF8
3FF00FFFF8
7FF00FFFF8
7FF007FFF8
7FF807FFF8
7FF807FFF8
7FF807FFF8
7FF807FFF0
FFFC07FFF0
FFFE0FFFF0
FFFFFFFFF0
FFFFFFFFF0
FFFFFFFFF0
FFFFFFFFF0
FFFFFFFFF0
7FFFFFFFF0
7FFFFFFFE0
7FFFFFFFC0
3FFFFFFF00
3FFFFFFE00
1FFFFFF800
0FFFFFF000
07FFFFC000
03FFFF0000
00FFF80000
007F800000
ENDCHAR
STARTCHAR 0068
ENCODING 104
SWIDTH 552 0
DWIDTH 43 0
BBX 42 52 1 1
BITMAP
000070000000
003FFC000000
03FFFC03FF80
07FFF807FFC0
07FFF80FFFC0
0FFFF00FFF80
07FFF80FFF80
07FFFC0FFF80
03FFF80FFF80
03FFF80FFF80
07FFF80FFF80
07FFF81FFF80
07FFF81FFF80
07FFF81FFF80
07FFF81FFF80
07FFF81FFF80
07FFF81FFF80
07FFF81FFF80
07FFF81FFF80
0FFFF83FFF00
0FFFFFFFFF00
0FFFFFFFFF00
0FFFFFFFFF00
0FFFFFFFFF00
0FFFFFFFFF00
0FFFFFFFFF00
0FFFFFFFFF00
0FFFFFFFFF00
0FFFFFFFFF00
1FFFFFFFFF80
1FFFFFFFFF80
1FFFFFFFFF80
1FFFFFFFFF80
1FFFFFFFFF80
1FFFFFFFFF80
1FFFF07FFF80
1FFFE07FFF00
1FFFE07FFF00
1FFFE07FFF00
1FFFE07FFF00
1FFFE07FFF00
1FFFE07FFF00
3FFFE07FFF00
3FFFE07FFF00
3FFFE07FFF00
3FFFE0FFFE00
3FFFE07FFE00
3FFFE07FFE00
7FFFE07FFE00
7FFFE07FFC00
FFFFC0FF0000
00FFC0F00000
ENDCHAR
STARTCHAR 0069
ENCODING 105
SWIDTH 334 0
DWIDTH 26 0
BBX 23 52 2 0
BITMAP
03FFF6
07FFFE
07FFFE
07FFFC
03FFFC
07FFFC
07FFF8
07FFF8
07FFF8
07FFF8
07FFF8
0FFFF8
0FFFF8
0FFFF8
0FFFF0
0FFFF0
0FFFF0
0FFFF0
0FFFF0
0FFFF0
1FFFF0
1FFFF0
1FFFF0
1FFFF0
1FFFF0
1FFFF0
1FFFF0
1FFFF0
1FFFF0
1FFFF0
1FFFF0
1FFFF0
1FFFF0
1FFFF0
1FFFF0
1FFFF0
1FFFF0
1FFFF0
3FFFF0
3FFFF0
3FFFF0
3FFFF0
3FFFE0
3FFFE0
3FFFE0
3FFFC0
3FFFE0
7FFFE0
7FFFC0
FFFF80
FFE000
FC0000
ENDCHAR
STARTCHAR 006A
ENCODING 106
SWIDTH 450 0
DWIDTH 35 0
BBX 34 53 1 -1
BITMAP
0000000600
0000FFFF00
0000FFFF00
0001FFFF00
0001FFFF00
0001FFFF00
0001FFFF80
0003FFFF80
0003FFFF80
0003FFFF80
0003FFFF80
0003FFFF80
0007FFFF80
0007FFFF80
0007FFFF80
0007FFFF80
0007FFFF80
0007FFFF80
0007FFFF80
0007FFFF80
0007FFFF80
0007FFFF80
0003FFFFC0
0007FFFFC0
0003FFFFC0
0003FFFFC0
0003FFFFC0
0003FFFFC0
0001FFFFC0
0001FFFFC0
0001FFFF80
0000FFFF80
0000FFFF80
0000FFFF80
0000FFFF80
00E07FFF80
3FF07FFF80
FFF07FFF80
7FF87FFF00
FFFC7FFF00
7FFCFFFF00
FFFE7FFE00
FFFE7FFE00
7FFFFFFC00
7FFFFFFC00
3FFFFFF800
1FFFFFF000
1FFFFFE000
0FFFFFC000
07FFFF8000
01FFFF0000
007FFE0000
000FF80000
ENDCHAR
STARTCHAR 006B
ENCODING 107
SWIDTH 552 0
DWIDTH 43 0
BBX 41 54 1 0
BITMAP
000000008000
00101803C000
FFFFF807E000
FFFFFC0FF000
3FFFF81FF800
3FFFF81FFD00
3FFFF83FFF80
3FFFF87FFF00
7FFFF87FFE00
7FFFF8FFFE00
7FFFF8FFFC00
7FFFF9FFF800
7FFFF9FFF800
7FFFFBFFF000
7FFFFBFFE000
7FFFFBFFC000
7FFFFFFFC000
7FFFFFFF8000
7FFFFFFF0000
7FFFFFFE0000
7FFFFFFE0000
7FFFFFFC0000
7FFFFFFC0000
7FFFFFFC0000
7FFFFFF80000
7FFFFFF00000
7FFFFFF00000
7FFFFFE00000
FFFFFF800000
FFFFFFC00000
FFFFFFE00000
FFFFFFF00000
FFFFFFF80000
FFFFFFFC0000
FFFFFFFE0000
FFFFFFFF0000
FFFFFFFF8000
FFFFFFFFC000
FFFFFFFFE000
FFFFFBFFE000
FFFFFBFFF000
FFFFF9FFF800
FFFFF0FFF800
FFFFF0FFFC00
FFFFF07FFE00
FFFFF03FFE00
FFFFF03FFF00
FFFFF81FFF00
7FFFF81FFF00
7FFFF80FFF80
7FFFF807F380
FFFFF807C000
7FFFE0078000
000200030000
ENDCHAR
STARTCHAR 006C
ENCODING 108
SWIDTH 514 0
DWIDTH 40 0
BBX 38 54 1 -1
BITMAP
0001FFC000
003FFFE000
00FFFFE000
01FFFFE000
01FFFFE000
01FFFFE000
01FFFFE000
01FFFFE000
03FFFFC000
03FFFFC000
03FFFFC000
03FFFFC000
03FFFFC000
03FFFFC000
03FFFF8000
03FFFF8000
03FFFF8000
03FFFF8000
03FFFF8000
03FFFF8000
03FFFF0000
07FFFF0000
07FFFF0000
07FFFF0000
07FFFF0000
07FFFF0000
0FFFFE0000
0FFFFE0000
0FFFFE0000
0FFFFE0000
0FFFFE0000
0FFFFE0000
1FFFFC0000
1FFFFC0000
1FFFFC0000
1FFFFC0000
1FFFFE0000
1FFFFFFFF8
1FFFFFFFF0
1FFFFFFFF0
3FFFFFFFF0
3FFFFFFFF0
1FFFFFFFF0
3FFFFFFFF8
3FFFFFFFF0
3FFFFFFFF0
3FFFFFFFF8
3FFFFFFFF8
3FFFFFFFF8
3FFFFFFFFC
3FFFFFFE00
3FFFFFFF00
7FFE000000
FE00000000
ENDCHAR
STARTCHAR 006D
ENCODING 109
SWIDTH 642 0
DWIDTH 50 0
BBX 48 54 1 -1
BITMAP
01E000000000
01F000000380
01F000000FC0
01F800001FC0
01FC00001FC0
01FE00003FC0
01FE00003FE0
01FF00007FE0
01FF80007FE0
01FF8000FFE0
03FFC000FFE0
03FFC001FFE0
03FFE001FFE0
03FFF003FFE0
03FFF007FFF0
07FFF807FFF0
07FFF80FFFF0
07FFFC0FFFF8
07FFFE1FFFF8
07FFFE3FFFF8
07FFFF3FFFF8
07FFFFFFFFF8
07FFFFFFFFF8
0FFFFFFFFFF8
0FFFFFFFFFF8
0FFFFFFFFFF8
0FFFFFFFFFF8
0FFFFFFFFFF8
0FFFFFFFFFF8
0FFFFFFFFFF8
1FFFFBFBFFFC
1FFFF1FBFFFC
1FFFF1F3FFFC
1FFFE0F3FFFC
1FFFE073FFFC
1FFFC003FFFC
1FFFC003FFFC
3FFFC003FFFE
3FFF8007FFFE
3FFF8007FFFE
3FFF8007FFFE
3FFF0007FFFE
3FFF0007FFFE
7FFF0007FFFE
7FFE0007FFFF
7FFE0007FFFF
7FFE0007FFFF
7FFE0007FFFF
7FFC0007FFFF
FFFC0007FFFF
FFFC0007FFFA
7FF800000F00
FEF800000000
C00000000000
ENDCHAR
STARTCHAR 006E
ENCODING 110
SWIDTH 565 0
DWIDTH 44 0
BBX 42 51 1 1
BITMAP
007C0000FC00
01FFE003FF00
07FFF81FFF80
07FFF81FFFC0
07FFF81FFFC0
07FFF81FFFC0
07FFF81FFFC0
07FFF01FFF80
0FFFF81FFF80
0FFFF81FFF80
0FFFF81FFF80
0FFFF83FFF80
0FFFFC3FFF80
0FFFFC3FFF80
1FFFFC3FFF80
1FFFFC3FFF80
1FFFFE3FFF00
1FFFFE3FFF00
1FFFFE3FFF00
1FFFFE3FFF00
1FFFFF3FFF00
1FFFFF3FFF00
3FFFFF3FFF00
3FFFFF3FFF00
3FFFFFBFFF00
3FFFFFBFFF00
3FFFFFBFFE00
3FFFFFFFFE00
3FFFFFFFFE00
3FFFFFFFFE00
3FFFBFFFFE00
3FFFBFFFFE00
3FFF9FFFFE00
3FFF9FFFFE00
3FFF9FFFFE00
3FFF8FFFFE00
7FFF8FFFFE00
7FFF8FFFFE00
7FFF87FFFE00
7FFF87FFFC00
7FFF87FFFE00
7FFF03FFFE00
7FFF03FFFC00
7FFF03FFFC00
7FFF01FFFC00
7FFF01FFFC00
7FFF01FFFC00
7FFF01FFFC00
FFFF01FFFC00
FFFF01FFF800
FFE0003FC000
ENDCHAR
STARTCHAR 006F
ENCODING 111
SWIDTH 527 0
DWIDTH 41 0
BBX 40 55 1 -1
BITMAP
000FC00000
001FF00000
003FFC0000
007FFF0000
007FFF8000
00FFFFE000
00FFFFF000
01FFFFFC00
03FFFFFE00
03FFFFFE00
03FFFFFF00
07FFFFFF80
07FFFFFFC0
0FFFFFFFC0
0FFFFFFFE0
1FFFFFFFE0
1FFFFFFFF0
1FFFFFFFF0
3FFFFFFFF8
3FFFFFFFF8
3FFF83FFFC
7FFF00FFFC
7FFF00FFFC
7FFE00FFFE
FFFE00FFFE
FFFE007FFE
FFFE007FFE
FFFE007FFE
FFFE00FFFF
FFFE00FFFF
FFFE00FFFF
7FFF00FFFF
7FFF81FFFF
7FFFE3FFFE
7FFFFFFFFE
7FFFFFFFFE
3FFFFFFFFE
3FFFFFFFFE
3FFFFFFFFC
3FFFFFFFFC
1FFFFFFFFC
1FFFFFFFFC
1FFFFFFFF8
0FFFFFFFF8
0FFFFFFFF8
07FFFFFFF8
07FFFFFFF0
03FFFFFFF0
01FFFFFFE0
00FFFFFFC0
007FFFFF80
001FFFFE00
0007FFFC00
0000FFF000
00000F0000
ENDCHAR
STARTCHAR 0070
ENCODING 112
SWIDTH 488 0
DWIDTH 38 0
BBX 37 53 1 0
BITMAP
003FF80000
07FFFF8000
1FFFFFF000
1FFFFFF800
1FFFFFFC00
1FFFFFFE00
1FFFFFFF00
1FFFFFFF80
1FFFFFFF80
1FFFFFFFC0
1FFFFFFFC0
1FFFFFFFC0
1FFF01FFE0
1FFF007FE0
1FFF007FE0
1FFF003FE0
1FFF803FF0
1FFF807FF0
3FFF807FF0
3FFF807FF0
3FFFC0FFF0
3FFFC0FFF0
3FFFC1FFF0
3FFFE3FFF0
3FFFFFFFF8
3FFFFFFFF0
3FFFFFFFE0
3FFFFFFFC0
3FFFFFFF80
7FFFFFFF00
7FFFFFFE00
7FFFFFF800
7FFFF00000
7FFFF00000
7FFFF00000
7FFFE00000
7FFFE00000
7FFFE00000
7FFFE00000
FFFFF00000
FFFFF00000
FFFFF00000
FFFFF00000
FFFFF00000
FFFFF00000
FFFFF00000
FFFFF00000
FFFFF00000
FFFFF00000
FFFFF00000
FFFFF00000
FFFFF80000
7FFFF00000
ENDCHAR
STARTCHAR 0071
ENCODING 113
SWIDTH 617 0
DWIDTH 48 0
BBX 46 57 1 -3
BITMAP
0001FC000000
001FFF000000
007FFFC00000
00FFFFE00000
01FFFFF00000
01FFFFF80000
03FFFFFC0000
07FFFFFE0000
07FFFFFF0000
0FFFFFFF8000
0FFFFFFFC000
0FFFFFFFE000
1FFFFFFFF000
1FFFFFFFF000
1FFF8FFFF800
1FFF07FFF800
3FFE03FFF800
3FFE01FFFC00
3FFE00FFFC00
3FFE007FFC00
7FFE007FFC00
7FFE003FFC00
7FFE003FFE00
7FFE001FFE00
7FFE001FFE00
7FFE001FFE00
FFFE001FFE00
FFFE003FFE00
FFFE003FFE00
FFFF003FFE00
FFFF803FFE00
FFFFE0FFFC00
FFFFFFFFFC00
FFFFFFFFFC00
7FFFFFFFFC00
7FFFFFFFFC00
7FFFFFFFF800
7FFFFFFFF800
7FFFFFFFF000
7FFFFFFFF000
3FFFFFFFF000
3FFFFFFFF000
1FFFFFFFF800
1FFFFFFFFC00
0FFFFFFFFE00
07FFFFFFFF00
03FFFFFFFF00
01FFFFFFFF80
00FFFFFFFFC0
007FFFFFFFE0
001FFFFFFFF0
0007FFFFFFF8
00007C3FFFF8
0000001FFFFC
0000000FFFFC
0000000FFF80
000000070000
ENDCHAR
STARTCHAR 0072
ENCODING 114
SWIDTH 578 0
DWIDTH 45 0
BBX 43 54 1 -1
BITMAP
000FFE000000
01FFFF800000
1FFFFFF00000
3FFFFFFC0000
7FFFFFFE0000
FFFFFFFF8000
FFFFFFFFC000
FFFFFFFFE000
FFFFF3FFE000
FFFFC07FF000
7FFFC01FF000
7FFFC00FF000
7FFFC00FF000
7FFFC00FF800
7FFFC00FF800
7FFFE00FF800
7FFFE00FF800
7FFFE00FF800
7FFFE01FF800
7FFFF03FF800
7FFFF87FF000
7FFFF9FFF000
3FFFFFFFF000
3FFFFFFFE000
3FFFFFFFE000
3FFFFFFFC000
3FFFFFFF8000
3FFFFFFC0000
3FFFFFFC0000
3FFFFFFE0000
3FFFFFFE0000
3FFFFFFF0000
3FFFFFFF8000
3FFFFFFF8000
3FFFFBFFC000
3FFFFBFFC000
3FFFF9FFE000
1FFFF8FFF000
1FFFF8FFF000
3FFFF87FF800
3FFFF87FF800
1FFFF83FFC00
1FFFFC3FFE00
1FFFFC1FFE00
1FFFFC1FFF00
1FFFFC0FFF00
1FFFFC0FFF80
1FFFFC0FFFC0
0FFFFC07FFC0
0FFFFE07FFE0
0FFFFC03FFE0
07FFFC03FFC0
07FFFC01FC00
03FFF0018000
ENDCHAR
STARTCHAR 0073
ENCODING 115
SWIDTH 501 0
DWIDTH 39 0
BBX 37 55 1 -1
BITMAP
00003F8000
0007FFFFC0
003FFFFFF8
007FFFFFF8
01FFFFFFF0
01FFFFFFF0
01FFFFFFE0
03FFFFFFE0
03FFFFFFC0
07FFFFFFC0
07FFFFFFC0
07FFFFFF80
0FFFFFFF80
0FFFFFFF00
1FFFFFFF00
1FFFFFFE00
1FFFFFFE00
1FFFFFFC00
1FFFFFFC00
1FFFFFFC00
1FFF80F800
1FFF001C00
1FFF800000
0FFFE00000
0FFFF80000
0FFFFE0000
07FFFF8000
03FFFFF000
03FFFFFC00
01FFFFFF00
00FFFFFF80
000FFFFF80
0001FFFFC0
00003FFFC0
00000FFFC0
000003FFC0
000003FFE0
000007FFE0
3C0007FFE0
7E001FFFE0
7F8FFFFFE0
7FFFFFFFE0
FFFFFFFFE0
FFFFFFFFE0
FFFFFFFFE0
FFFFFFFFC0
FFFFFFFFC0
7FFFFFFFC0
3FFFFFFF80
1FFFFFFC00
0FFFFFF800
07FFFFF000
01FFFFC000
007FFF0000
0003F00000
ENDCHAR
STARTCHAR 0074
ENCODING 116
SWIDTH 565 0
DWIDTH 44 0
BBX 43 53 1 0
BITMAP
00000000E000
0FFFFFFFFC00
7FFFFFFFFF00
7FFFFFFFFF80
7FFFFFFFFF80
7FFFFFFFFF80
7FFFFFFFFFC0
7FFFFFFFFFC0
7FFFFFFFFFC0
7FFFFFFFFFC0
7FFFFFFFFFC0
7FFFFFFFFFC0
7FFFFFFFFFC0
FFFFFFFFFFE0
FFFFFFFFFFC0
FFFFFFFFC000
FFFEFFFE0000
7FC07FFC0000
7C007FF80000
40007FF80000
0000FFF00000
0000FFF00000
0000FFF00000
0000FFF00000
0000FFF00000
0000FFF00000
0000FFF00000
0000FFF00000
0000FFF00000
0000FFF00000
0000FFF00000
0000FFF00000
0000FFF00000
0000FFF00000
0000FFF00000
0000FFF00000
0000FFF00000
0000FFF00000
0000FFF00000
0000FFF00000
0000FFF00000
0000FFE00000
0000FFF00000
0000FFF00000
0000FFF00000
0000FFF00000
0000FFF00000
0000FFF00000
0000FFF00000
0000FFF00000
0000FFE00000
0000FFE00000
00007FE00000
ENDCHAR
STARTCHAR 0075
ENCODING 117
SWIDTH 540 0
DWIDTH 42 0
BBX 41 52 1 1
BITMAP
07F000000000
07FF000FFF00
07FF800FFF00
07FF801FFF00
0FFF000FFF00
0FFF000FFF00
0FFE000FFF00
0FFF0007FF00
1FFF000FFF00
1FFE000FFF00
1FFE000FFF00
1FFE000FFF00
3FFE000FFF00
3FFE000FFF00
3FFE000FFF00
3FFE000FFF00
3FFE000FFF00
7FFE001FFF00
7FFE001FFF00
7FFE001FFF00
7FFE001FFF00
7FFE001FFF00
7FFE001FFF00
7FFE003FFF00
FFFE003FFF00
FFFF003FFF80
FFFF003FFF80
7FFF803FFF00
7FFFC07FFF00
7FFFE07FFF00
7FFFFEFFFE00
7FFFFFFFFE00
7FFFFFFFFE00
7FFFFFFFFC00
7FFFFFFFFC00
7FFFFFFFFC00
3FFFFFFFF800
3FFFFFFFF800
3FFFFFFFF800
1FFFFFFFF000
1FFFFFFFF000
1FFFFFFFE000
0FFFFFFFC000
07FFFFFFC000
07FFFFFF8000
03FFFFFF0000
03FFFFFE0000
01FFFFFC0000
00FFFFF80000
003FFFF80000
0007FFE00000
000040000000
ENDCHAR
STARTCHAR 0076
ENCODING 118
SWIDTH 591 0
DWIDTH 46 0
BBX 44 50 1 2
BITMAP
000000000F00
78000000FFF0
FF00000FFFF0
FFF8000FFFF0
7FFFC00FFFF0
1FFFF00FFFE0
1FFFF00FFFE0
1FFFF80FFFF0
1FFFFC0FFFF0
0FFFF80FFFE0
0FFFF80FFFE0
0FFFFC0FFFE0
07FFFC0FFFE0
07FFFC1FFFC0
07FFFC1FFFC0
03FFFE1FFFC0
03FFFE1FFFC0
01FFFE1FFF80
01FFFE1FFF80
01FFFE1FFF80
00FFFF1FFF80
00FFFF1FFF00
007FFF3FFF00
007FFF3FFF00
003FFF3FFF00
003FFFBFFE00
001FFFFFFE00
001FFFFFFE00
000FFFFFFE00
0007FFFFFC00
0007FFFFFC00
0003FFFFFC00
0003FFFFFC00
0001FFFFFC00
0000FFFFF800
0000FFFFF800
00007FFFF800
00003FFFF800
00003FFFF800
00001FFFF000
00000FFFF000
00000FFFF000
000007FFF000
000003FFF000
000003FFF000
000001FFE000
000000FFE000
0000007FE000
0000007FE000
0000003F8000
ENDCHAR
STARTCHAR 0077
ENCODING 119
SWIDTH 720 0
DWIDTH 56 0
BBX 54 54 1 0
BITMAP
00000000003000
00000000003818
3FF80000007FFC
7FFC0000007FFC
7FFE007C007FFC
FFFE007E00FFFC
FFFF007E00FFF8
7FFF007E00FFF8
FFFF007F01FFF0
FFFF807F01FFF0
7FFF807F03FFF0
7FFF807F83FFE0
7FFFC07F83FFE0
7FFFC07F87FFE0
3FFFE07F87FFE0
3FFFE07F87FFC0
3FFFE0FFCFFFC0
1FFFF0FFCFFFC0
1FFFF0FFEFFFE0
1FFFF8FFFFFFE0
0FFFF8FFFFFFC0
0FFFFDFFFFFFC0
07FFFFFFFFFFC0
07FFFFFFFFFFC0
03FFFFFFFFFF80
03FFFFFFFFFF80
01FFFFFFFFFF80
01FFFFFFFFFF80
01FFFFFFFFFF80
00FFFFFFFFFF00
00FFFFFFFFFF00
007FFFFFFFFF00
007FFFFFFFFF00
003FFFFBFFFF00
003FFFF9FFFF00
001FFFF1FFFE00
001FFFF0FFFE00
000FFFF0FFFE00
000FFFF0FFFE00
0007FFE0FFFE00
0007FFE07FFE00
0003FFC07FFE00
0003FFC07FFE00
0001FFC03FFC00
0001FF803FFC00
0000FF803FFC00
0000FF803FFC00
00007F801FFC00
00007F001FF800
00003F000FF800
00001F000FC000
00001F00000000
00000E00000000
00000600000000
ENDCHAR
STARTCHAR 0078
ENCODING 120
SWIDTH 565 0
DWIDTH 44 0
BBX 43 52 1 1
BITMAP
00000001E000
00000003FFC0
1FFC0003FFE0
3FFE0007FFE0
7FFC000FFFE0
FFFE000FFFC0
FFFF001FFFC0
FFFF001FFF80
FFFF803FFF80
7FFFC03FFF00
7FFFC07FFF00
7FFFE07FFE00
7FFFE07FFE00
3FFFE0FFFC00
3FFFF0FFFC00
1FFFF1FFFC00
1FFFF9FFF800
0FFFF9FFF800
07FFFFFFF000
03FFFFFFF000
01FFFFFFF000
00FFFFFFE000
007FFFFFE000
003FFFFFC000
003FFFFFC000
001FFFFF8000
001FFFFF8000
000FFFFF0000
000FFFFF0000
0007FFFF0000
0007FFFF0000
001FFFFF0000
001FFFFF8000
003FFFFF8000
003FFFFFC000
007FFFFFC000
007FFFFFC000
00FFFFFFE000
00FFFBFFE000
01FFFBFFE000
01FFF1FFF000
03FFF0FFF000
03FFF0FFF800
07FFF07FF800
07FFF03FFC00
07FFF03FFC00
0FFFE01FFE00
0FFFE00FFC00
0FFFE007E000
1FFFC0030000
1FFFC0000000
0C0000000000
ENDCHAR
STARTCHAR 0079
ENCODING 121
SWIDTH 604 0
DWIDTH 47 0
BBX 45 53 1 1
BITMAP
000000003FF8
00000000FFF8
00780000FFF8
07F80000FFF0
3FFC0001FFE0
FFFE0001FFF0
FFFE0003FFE0
7FFF0003FFE0
7FFF0007FFC0
3FFF8007FFC0
3FFF8007FF80
3FFFC00FFF80
1FFFC01FFF00
1FFFE01FFF00
0FFFE03FFE00
07FFE03FFE00
07FFF07FFC00
03FFF07FFC00
03FFF8FFF800
01FFF8FFF800
01FFFDFFF000
00FFFDFFF000
00FFFFFFE000
007FFFFFE000
007FFFFFC000
003FFFFFC000
003FFFFF8000
001FFFFF8000
001FFFFF8000
000FFFFF0000
000FFFFF0000
0007FFFE0000
0007FFFE0000
0003FFFC0000
0003FFFC0000
0001FFF80000
0000FFF80000
0000FFF80000
00007FF80000
00007FF80000
00007FF80000
00007FF80000
00007FF80000
00007FF80000
00007FF80000
00007FFC0000
00007FFC0000
00007FFC0000
00007FFC0000
00007FFC0000
00007FFC0000
00007FF80000
00003F800000
ENDCHAR
STARTCHAR 007A
ENCODING 122
SWIDTH 591 0
DWIDTH 46 0
BBX 44 53 1 0
BITMAP
00000FE00000
0003FFFF8000
003FFFFFFC00
03FFFFFFF800
0FFFFFFFF800
1FFFFFFFF000
1FFFFFFFE000
3FFFFFFFE000
3FFFFFFFC000
7FFFFFFF8000
7FFFFFFF8000
FFFFFFFF0000
FFFFFFFF0000
FFFFFFFE0000
FFF81FFE0000
40003FFC0000
00003FFC0000
00003FF80000
00007FF80000
00007FF80000
00007FF00000
0000FFF00000
0000FFE00000
0001FFE00000
0001FFE00000
0001FFE00000
0003FFC00000
0003FFC00000
0003FFC00000
0007FFC00000
0007FF800000
0007FF800000
000FFF800000
000FFF800000
000FFF800000
001FFF000000
001FFE000000
001FFE000000
003FFC000000
003FFC07FFF0
003FFFFFFFF0
007FFFFFFFF0
007FFFFFFFF0
007FFFFFFFF0
00FFFFFFFFF0
00FFFFFFFFF0
00FFFFFFFFE0
00FFFFFFFFC0
00FFFFFFFFC0
00C7FFFFFF00
0000FFFFFE00
00001FFFFC00
000003FFE000
ENDCHAR
STARTCHAR 007B
ENCODING 123
SWIDTH 347 0
DWIDTH 27 0
BBX 25 74 1 -9
BITMAP
00003800
00007C00
0001FE00
0001FE00
0003FF00
0003FF00
0007FF80
0007FF80
000FFF80
001FFF80
001FFF00
003FFC00
003FF800
003FF000
003FF000
003FE000
007FE000
007FE000
007FC000
007FC000
00FF8000
00FF8000
00FF8000
00FF8000
01FF8000
01FF8000
01FF0000
03FF0000
03FF0000
03FF0000
03FF0000
1FFE0000
7FFE0000
7FFE0000
7FFE0000
7FFE0000
FFFE0000
FFFF0000
FFFF0000
7FFF0000
3FFF8000
01FF8000
01FF8000
01FF8000
01FFC000
00FFC000
00FFC000
00FFC000
00FFC000
00FFC000
00FFC000
00FFC000
00FFC000
00FFC000
00FFC000
00FFC000
007FE000
007FE000
007FE000
007FE000
007FE000
007FE000
007FF000
007FF800
007FFF00
003FFF00
003FFF00
001FFF00
000FFF00
0007FF00
0003FE00
0001FE00
00007C00
00001C00
ENDCHAR
STARTCHAR 007C
ENCODING 124
SWIDTH 180 0
DWIDTH 14 0
BBX 13 78 1 -12
BITMAP
7E00
7FF0
7FF0
7FF0
7FF0
7FF0
7FF0
7FF0
7FF0
7FF0
7FF0
7FF0
FFF0
FFF0
FFF0
FFF0
FFF0
FFF0
FFF0
7FF0
7FF0
7FF0
7FF0
7FF0
7FF0
7FF0
7FF0
7FF8
7FF0
7FF0
7FF0
7FF0
7FF0
7FF0
7FF0
7FF0
7FF0
7FF0
7FF0
7FF0
7FF0
7FF0
7FF0
7FF0
7FF0
7FF0
7FF8
7FF0
7FF0
7FF0
7FF0
7FF0
7FF0
7FF0
7FF0
7FF0
7FF0
7FF0
7FF0
7FF0
7FF0
7FF0
7FF0
7FF0
7FF0
7FF0
7FF0
7FF0
7FF0
7FF0
7FF0
7FF0
7FF0
7FF0
7FF0
7FF0
7FF0
7FC0
ENDCHAR
STARTCHAR 007D
ENCODING 125
SWIDTH 347 0
DWIDTH 27 0
BBX 25 74 1 -9
BITMAP
1F000000
1F800000
1FE00000
3FF00000
3FF80000
3FFC0000
3FFE0000
3FFE0000
3FFF0000
3FFF0000
07FF8000
03FF8000
03FF8000
03FF8000
03FF8000
01FF8000
01FF8000
01FF8000
01FF8000
01FF8000
01FF8000
01FF8000
01FF8000
01FF8000
01FFC000
00FFC000
00FFC000
00FFC000
00FFC000
00FFC000
00FFC000
00FFC000
007FEE00
007FFF00
007FFF80
003FFF80
003FFF80
001FFF80
001FFF80
001FFF80
001FFF80
003FFF00
003FFC00
003FF000
003FE000
007FE000
007FE000
007FE000
007FC000
007FC000
007FC000
00FFC000
00FF8000
00FF8000
00FF8000
01FF8000
01FF0000
03FF0000
03FF0000
07FF0000
07FF0000
0FFF0000
1FFE0000
7FFE0000
7FFC0000
FFFC0000
7FF80000
7FF00000
3FF00000
3FE00000
1FE00000
1FC00000
0F800000
06000000
ENDCHAR
STARTCHAR 007E
ENCODING 126
SWIDTH 475 0
DWIDTH 37 0
BBX 35 17 1 18
BITMAP
01F801FFE0
07FE01FFE0
0FFF01FFE0
1FFF81FFE0
3FFFE1FFE0
7FFFFFFFE0
7FFFFFFFE0
7FFFFFFFE0
7FFFFFFFE0
FFFFFFFFE0
FFFFFFFFC0
FFFFFFFF80
FFFFFFFF00
FFE7FFFE00
FFC3FFFC00
FFC0FFF800
FFC03FF000
ENDCHAR
STARTCHAR 00A0
ENCODING 160
SWIDTH 308 0
DWIDTH 24 0
BBX 0 0 0 0
BITMAP
ENDCHAR
STARTCHAR 00A1
ENCODING 161
SWIDTH 295 0
DWIDTH 23 0
BBX 21 59 1 -15
BITMAP
002000
01FE00
03FF80
07FF80
07FF80
0FFFC0
0FFFC0
0FFFC0
0FFFC0
0FFFC0
0FFF80
0FFF80
07FF00
01FF00
007C00
000000
000000
000000
000000
008000
07F800
0FFE00
0FFF00
0FFF00
0FFF00
0FFF00
0FFF00
0FFF00
0FFF00
1FFF00
1FFF00
1FFF80
1FFF80
1FFF80
1FFF80
3FFF80
3FFF80
3FFF80
3FFF80
3FFF80
3FFF80
3FFFC0
7FFFC0
7FFFC0
7FFFC0
7FFFC0
7FFFC0
7FFFE0
7FFFE0
7FFFE0
7FFFE0
FFFFE0
FFFFF0
FFFFF0
FFFFF0
FFFFF0
FFFFF8
FFFFF8
07FFF0
ENDCHAR
STARTCHAR 00A2
ENCODING 162
SWIDTH 501 0
DWIDTH 39 0
BBX 37 67 1 -7
BITMAP
000001C000
000001FF80
000001FF80
000003FF80
000003FF80
000003FF80
000003FF80
000003FF00
00003FFF00
000FFFFF00
001FFFFF00
007FFFFF80
00FFFFFFC0
01FFFFFFE0
03FFFFFFE0
03FFFFFFF0
07FFFFFFF0
0FFFFFFFF0
0FFFFFFFF0
1FFFFFFFF0
1FFFFFFFF0
1FFFFFFFF0
3FFFFFFFF0
3FFFFFFFF0
7FFFFFFFE0
7FFFFFFFE0
7FFF3FFFE0
7FFE7FF3E0
7FFC7FF040
FFFC7FF000
FFF87FE000
FFF8FFE000
FFF0FFE000
FFF0FFE000
FFF0FFE000
FFF1FFC000
FFF1FFC000
FFF1FFC000
FFF9FFC000
FFF9FF8000
FFFBFF8000
FFFFFF8000
7FFFFF8000
7FFFFF8000
7FFFFF0FE0
7FFFFFFFF0
3FFFFFFFF0
3FFFFFFFF0
1FFFFFFFF0
1FFFFFFFF8
0FFFFFFFF8
0FFFFFFFF8
07FFFFFFF8
03FFFFFFF8
01FFFFFFF0
007FFFFFC0
001FFFFF80
001FFFFF00
001FFFF800
001FFF8000
001FF80000
003FF80000
003FF00000
003FF00000
003FF00000
001FF00000
0003E00000
ENDCHAR
STARTCHAR 00A3
ENCODING 163
SWIDTH 540 0
DWIDTH 42 0
BBX 41 53 1 0
BITMAP
000007F00000
00003FFE0000
00003FFF8000
0000FFFFE000
0001FFFFF000
0003FFFFF800
0007FFFFF800
000FFFFFFC00
000FFFFFFE00
001FFFFFFE00
001FFFFFFF00
001FFF3FFF00
003FFFBFFF00
007FFF1FFF00
007FFF1FFF00
007FFE0FFF00
007FFE07FE00
007FFE07F000
007FFE000000
00FFFE000000
00FFFE000000
00FFFE000000
7FFFFFFFC000
7FFFFFFFC000
7FFFFFFFC000
FFFFFFFFC000
FFFFFFFFC000
FFFFFFFFC000
FFFFFFFFC000
FFFFFFFFC000
FFFFFFFFC000
00FFFE060000
00FFFE000000
00FFFE000000
00FFFE000000
00FFFE000000
00FFFE000000
00FFFE000000
00FFFE000000
00FFFE000000
7FFFFFFF0F00
7FFFFFFFFF80
7FFFFFFFFF00
7FFFFFFFFF00
7FFFFFFFFF00
7FFFFFFFFF00
7FFFFFFFFF00
7FFFFFFFFE00
7FFFFFFFFE00
7FFFFFFFFE00
1FFFFFFFFE00
01FFFFFFFC00
002003FF0000
ENDCHAR
STARTCHAR 00A4
ENCODING 164
SWIDTH 437 0
DWIDTH 34 0
BBX 32 33 1 11
BITMAP
00000040
038000C0
07C003E0
0FE007F0
1FFFE7F8
3FFFFFFC
7FFFFFFE
FFFFFFFF
7FFFFFFF
7FFFFFFE
3FFFFFFC
1FFC3FF8
0FF81FF0
07F81FE0
07F00FE0
0FF00FE0
0FF00FE0
0FF00FE0
0FF00FE0
0FF01FE0
07F81FE0
0FF81FF0
1FFE3FFC
3FFFFFFE
7FFFFFFF
FFFFFFFF
7FFFFFFF
3FFFFFFE
1FFFFFFC
0FE007F8
07C003F0
038001C0
01000000
ENDCHAR
STARTCHAR 00A5
ENCODING 165
SWIDTH 604 0
DWIDTH 47 0
BBX 45 53 1 1
BITMAP
000000003FF8
00000000FFF8
00780000FFF8
07F80000FFF0
3FFC0001FFE0
FFFE0001FFF0
FFFE0003FFE0
7FFF0003FFE0
7FFF0007FFC0
3FFF8007FFC0
3FFF8007FF80
3FFFC00FFF80
1FFFC01FFF00
1FFFE01FFF00
0FFFE03FFE00
07FFE03FFE00
07FFF07FFC00
03FFF07FFC00
03FFF8FFF800
01FFF8FFF800
01FFFDFFF000
00FFFDFFF000
00FFFFFFFE00
07FFFFFFFE00
0FFFFFFFFE00
0FFFFFFFFE00
0FFFFFFFFE00
0FFFFFFFFE00
0FFFFFFFFE00
0FFFFFFFFE00
0FFFFFFFFE00
0FFFFFFFFE00
0FFFFFFE1000
01FFFFFC0000
0003FFFC0000
0001FFF80000
07FFFFFFFE00
07FFFFFFFE00
07FFFFFFFE00
07FFFFFFFF00
07FFFFFFFF00
07FFFFFFFF00
07FFFFFFFF00
07FFFFFFFF00
07FFFFFFFF00
07FFFFFC0000
00E07FFC0000
00007FFC0000
00007FFC0000
00007FFC0000
00007FFC0000
00007FF80000
00003F800000
ENDCHAR
STARTCHAR 00A6
ENCODING 166
SWIDTH 180 0
DWIDTH 14 0
BBX 12 78 1 -12
BITMAP
7FF0
7FF0
7FF0
FFF0
FFF0
FFF0
7FF0
7FF0
7FF0
7FF0
7FF0
7FF0
7FF0
7FF0
7FF0
7FF0
7FF0
7FF0
7FF0
7FF0
7FF0
7FF0
7FF0
7FF0
7FF0
7FF0
7FF0
7FF0
7FF0
7FF0
7FF0
7FF0
7FF0
7FF0
0400
0000
0000
0000
0000
0000
0000
0000
0000
0000
7FF0
7FF0
7FF0
7FF0
7FF0
7FF0
FFF0
FFF0
FFF0
FFF0
7FF0
FFF0
FFF0
FFF0
FFF0
FFF0
FFF0
FFF0
FFF0
7FF0
7FF0
7FF0
7FF0
FFF0
FFF0
FFF0
FFF0
7FF0
7FF0
7FF0
7FF0
7FF0
7FF0
3FE0
ENDCHAR
STARTCHAR 00A7
ENCODING 167
SWIDTH 501 0
DWIDTH 39 0
BBX 37 67 1 -6
BITMAP
0000200000
0003FF0000
000FFFC000
003FFFF000
007FFFF800
01FFFFFC00
03FFFFFE00
03FFFFFF00
07FFFFFF00
07FFFFFF00
07FFFFFF00
07FFFFFF00
07FFFFFF00
07FFFCFE00
07FFF01E00
07FFE00800
07FFC00000
07FFC00000
03FFE00000
03FFF00000
07FFF80000
0FFFFF0000
0FFFFFE000
1FFFFFF800
1FFFFFFE00
1FFFFFFF00
3FFFFFFF80
3FFFFFFFC0
3FFFFFFFE0
7FFFFFFFF0
7FFF8FFFF0
7FFE03FFF8
FFF801FFF8
FFF800FFF8
FFF800FFF8
FFFC01FFF8
7FFF07FFF0
7FFFFFFFF0
3FFFFFFFF0
1FFFFFFFE0
0FFFFFFFE0
07FFFFFFE0
03FFFFFFC0
00FFFFFFC0
001FFFFFC0
0007FFFF80
0000FFFF00
00007FFE00
00003FFF00
00001FFF00
00001FFF00
00003FFF80
01C03FFF80
03F0FFFF80
03FFFFFF80
07FFFFFF00
07FFFFFF00
07FFFFFF00
07FFFFFF00
07FFFFFF00
03FFFFFE00
01FFFFFC00
00FFFFF000
007FFFE000
003FFFC000
000FFF0000
0001F80000
ENDCHAR
STARTCHAR 00A8
ENCODING 168
SWIDTH 308 0
DWIDTH 24 0
BBX 22 9 1 54
BITMAP
1C01F0
3F03F8
7F03FC
FF87FC
FF87FC
FF03F8
7F03F8
3E01F0
0C0000
ENDCHAR
STARTCHAR 00A9
ENCODING 169
SWIDTH 668 0
DWIDTH 52 0
BBX 50 49 1 3
BITMAP
000007FF800000
0000FFFFF80000
0007FFFFFE0000
001FFFFFFF8000
007FFFFFFFC000
01FFFFFFFFE000
01FFFFFFFFF000
03FFFFFFFFF800
07FFF001FFF800
0FFFC0007FFC00
0FFF00001FFC00
1FFE00000FFE00
1FF8007007FE00
3FF007FE03FF00
3FE01FFF01FF00
3FE01FFF81FF00
7FC03FFF80FF80
7F807FFF80FF80
7F807FFF807F80
7F007FFF807FC0
7F00FFFF807FC0
FF00FF83807FC0
FF00FF00007FC0
FF00FF00007FC0
FF00FE00007FC0
FF00FE00007FC0
FF00FE00007FC0
FF00FE00007F80
FF00FF00007F80
FF80FF00007F80
7F80FFC0007F80
7FC0FFFF807F80
7FC07FFF807F00
7FE07FFF807F00
3FE03FFF80FF00
3FF01FFF80FE00
3FF007FF00FE00
1FF801FC01FC00
1FFC000007F800
0FFE00001FF800
0FFF80007FF000
07FFE003FFE000
03FFFFFFFFC000
03FFFFFFFF8000
01FFFFFFFE0000
00FFFFFFFC0000
003FFFFFF00000
000FFFFFE00000
0000FFFF800000
ENDCHAR
STARTCHAR 00AA
ENCODING 170
SWIDTH 321 0
DWIDTH 25 0
BBX 23 28 1 25
BITMAP
000400
001E00
003E00
003F00
003F00
007F00
007F00
00FF80
00FF80
00FF80
01FFC0
01FFC0
03FFC0
03FFC0
03DFE0
078FE0
078FE0
0F0FF0
0FFFF0
1FFFF0
1FFFF8
3FCFF8
3F07FC
3F07FC
7F07FE
7F03FE
FF03FE
800000
ENDCHAR
STARTCHAR 00AB
ENCODING 171
SWIDTH 475 0
DWIDTH 37 0
BBX 35 35 1 1
BITMAP
0000800040
0003800060
000FC001E0
001F8003E0
003F8007E0
007F800FE0
00FF803FE0
01FF807FE0
03FF80FFE0
07FF81FFE0
07FF87FFE0
0FFF8FFFE0
1FFFBFFFE0
3FFF3FFFC0
7FFC3FFE00
FFF03FF000
FFC03FC000
FF003F8000
FF003FE000
FFC03FF800
FFF83FFE00
FFFF9FFF80
7FFF8FFFC0
3FFF87FFE0
0FFF83FFE0
07FF81FFC0
03FFC0FFC0
00FFC07FC0
007FC03FC0
003FC03FE0
001FC01FE0
000F800FE0
00038003E0
00018001E0
0000800060
ENDCHAR
STARTCHAR 00AC
ENCODING 172
SWIDTH 475 0
DWIDTH 37 0
BBX 35 21 1 13
BITMAP
0040010000
7FFFFFFFE0
7FFFFFFFE0
7FFFFFFFE0
7FFFFFFFE0
7FFFFFFFE0
7FFFFFFFE0
7FFFFFFFE0
FFFFFFFFE0
FFFFFFFFE0
FFFFFFFFE0
FFFFFFFFE0
0E0001FFE0
000001FFE0
000001FFE0
000001FFE0
000000FFC0
000000FFE0
000000FFE0
000000FFE0
00000023C0
ENDCHAR
STARTCHAR 00AD
ENCODING 173
SWIDTH 385 0
DWIDTH 30 0
BBX 28 13 1 21
BITMAP
00002000
7FFFFFF0
7FFFFFF0
7FFFFFF0
7FFFFFF0
7FFFFFF0
FFFFFFF0
FFFFFFF0
FFFFFFF0
FFFFFFF0
FFFFFFF0
FFFFFFF0
18000000
ENDCHAR
STARTCHAR 00AE
ENCODING 174
SWIDTH 450 0
DWIDTH 35 0
BBX 33 33 1 22
BITMAP
003FFC0000
01FFFF0000
03FFFF8000
07FFFFE000
0FFFFFF000
1FF007F800
3FC001FC00
3F83C07C00
7F3FF03E00
7F3FF81E00
7E3F1C1F00
7C3F1C1F00
FC3F1C1F00
FC3F1C1F80
F81FFC1F80
F81FF81F80
F81FF01F80
F81FF81F80
F81FF81F80
781FBC1F80
7C1F9E1F80
7E1F9E3F00
7E1F8F3F00
3F1F8F7F00
3F8000FE00
1FE001FE00
1FF003FC00
0FFFDFFC00
07FFFFF800
03FFFFF000
00FFFFE000
001FFF0000
0000E00000
ENDCHAR
STARTCHAR 00AF
ENCODING 175
SWIDTH 321 0
DWIDTH 25 0
BBX 23 8 1 55
BITMAP
020300
FFFFFE
FFFFFE
FFFFFE
FFFFFE
FFFFFE
FFFFFE
3C0000
ENDCHAR
STARTCHAR 00B0
ENCODING 176
SWIDTH 321 0
DWIDTH 25 0
BBX 23 26 1 30
BITMAP
001800
01FF80
07FFC0
0FFFE0
1FFFF0
3FFFF8
3FFFFC
7FC3FC
7F83FE
FF01FE
FF01FE
FF01FE
FF00FE
FF00FE
FF00FE
FF01FE
7F81FE
7F83FC
7FC7FC
3FFFF8
1FFFF0
1FFFF0
0FFFE0
07FFC0
01FF00
007C00
ENDCHAR
STARTCHAR 00B1
ENCODING 177
SWIDTH 475 0
DWIDTH 37 0
BBX 35 46 1 -1
BITMAP
0007FE0000
000FFE0000
000FFE0000
000FFE0000
000FFE0000
000FFC0000
000FFC0000
000FFE0000
000FFE0000
000FFE0000
000FFE0000
000FFE0000
FFFFFFFFE0
FFFFFFFFE0
FFFFFFFFE0
FFFFFFFFE0
FFFFFFFFE0
FFFFFFFFE0
FFFFFFFFE0
FFFFFFFFE0
FFFFFFFFE0
FFFFFFFFE0
FE7FFFFFE0
000FFE0000
000FFE0000
000FFE0000
000FFE0000
000FFE0000
000FFE0000
000FFE0000
000FFE0000
000FFE0000
000FFE0000
00003E0000
0000000000
0000000000
39FFFFFF00
FFFFFFFFC0
FFFFFFFFC0
FFFFFFFFC0
FFFFFFFFC0
FFFFFFFFC0
7FFFFFFFC0
7FFFFFFFC0
7FFFFFFFC0
009FC00000
ENDCHAR
STARTCHAR 00B2
ENCODING 178
SWIDTH 270 0
DWIDTH 21 0
BBX 19 27 1 27
BITMAP
078000
0FF000
1FFC00
3FFE00
7FFE00
FFFE00
7EFE00
3C3E00
383E00
007E00
007C00
007C00
00FC00
00F800
01F800
01F000
03FFE0
03FFE0
07FFE0
07FFC0
0FFFC0
0FFFC0
1FFFC0
7FFF80
7FFF00
1FF800
008000
ENDCHAR
STARTCHAR 00B3
ENCODING 179
SWIDTH 244 0
DWIDTH 19 0
BBX 17 27 1 26
BITMAP
030000
3FE000
7FF000
7FF000
3FE000
03E000
03E000
07C000
0FC000
0FF000
1FFC00
3FFE00
3FFF00
1FFF00
001F80
000F80
000F80
000780
000780
000F80
001F80
F8FF80
FFFF00
7FFE00
1FFC00
0FF800
00E000
ENDCHAR
STARTCHAR 00B4
ENCODING 180
SWIDTH 231 0
DWIDTH 18 0
BBX 16 12 1 55
BITMAP
03FF
07FF
0FFE
0FFC
1FFC
1FF8
3FF0
3FE0
7FC0
7F80
FF80
1F00
ENDCHAR
STARTCHAR 00B5
ENCODING 181
SWIDTH 540 0
DWIDTH 42 0
BBX 41 54 1 -12
BITMAP
00000001E000
3FF8003FF000
7FF800FFF000
7FFC00FFF800
7FFC00FFF800
7FF8007FFC00
7FF8003FFC00
7FF0003FFE00
7FF0007FFE00
7FF8007FFF00
FFF8003FFF00
FFF8007FFF80
FFF8007FFF00
FFF8007FFF00
FFF8007FFF00
FFFC007FFF00
FFFC007FFF00
FFFC007FFF00
FFFC00FFFF00
FFFE00FFFF00
FFFE01FFFF00
7FFE03FFFF00
7FFF07FFFF00
FFFFFFFFFE00
FFFFFFFFFE00
FFFFFFFFFE00
FFFFFFFFFE00
FFFFFFFFFC00
FFFFFFFFFC00
FFFFFFFFFC00
FFFFFFFFF800
FFFFFFFFF800
FFFFFFFFF000
FFFFFFFFF000
7FFFFFFFE000
7FFFFFFFE000
7FFFFFFFC000
7FFFFFFF0000
7FFFFFFC0000
7FF7FFF00000
FFF001000000
FFF000000000
FFF000000000
FFF000000000
FFF000000000
FFF000000000
7FF000000000
7FF000000000
7FF000000000
7FF000000000
7FF000000000
7FF000000000
7FF000000000
0FE000000000
ENDCHAR
STARTCHAR 00B6
ENCODING 182
SWIDTH 385 0
DWIDTH 30 0
BBX 29 61 1 -6
BITMAP
003FFFF0
01FFFFF0
07FFFFF0
0FFFFFF0
1FFFFFF0
3FFFFFF0
3FFFFFF0
7FFFFFF0
7FFFFFF0
FFFFFFF0
FFFFFFF0
FFFF87F0
FFFF87F0
FFFF87F0
FFFF87F0
FFFF87F0
7FFF87F0
7FFF87F0
7FFF87F0
7FFF87F0
7FFF8FF0
7FFF8FF0
7FFF8FF0
7FFF8FF0
7FFF8FF8
7FFF8FF8
7FFF8FF0
3FFF8FF0
1FFF8FF0
1FFF8FF0
0FFF8FF0
03FF8FF0
007F8FF0
007F8FF0
007F8FF0
007F8FF0
007F8FF0
007F8FF0
007F8FF0
007F8FF8
007F8FF0
007F8FF0
007F8FF0
007F87F0
007F87F0
007F8FF0
007F8FF0
007F8FF0
007F8FF0
007F8FF0
007F8FF0
007F8FF0
007F8FF0
007F87F0
007F87F0
007F87F0
007F87F0
007F87F0
007F87F0
007F87F0
00790700
ENDCHAR
STARTCHAR 00B7
ENCODING 183
SWIDTH 205 0
DWIDTH 16 0
BBX 14 15 1 20
BITMAP
01C0
0FF0
3FF8
7FF8
7FFC
FFFC
FFFC
FFFC
FFFC
7FFC
7FFC
3FF8
1FF0
0FE0
0780
ENDCHAR
STARTCHAR 00B8
ENCODING 184
SWIDTH 295 0
DWIDTH 23 0
BBX 21 16 1 -13
BITMAP
03FC00
03FC00
03FE00
03FE00
01FF00
01FFC0
00FFE0
003FF0
000FF8
700FF8
FF0FF8
FFFFF8
FFFFF8
7FFFF0
3FFFE0
07FF80
ENDCHAR
STARTCHAR 00B9
ENCODING 185
SWIDTH 218 0
DWIDTH 17 0
BBX 16 25 1 28
BITMAP
01F0
03F8
07FC
1FFC
7FFC
FFFC
7DFC
3DFC
1DFC
09FC
03FC
03FC
03FC
03FC
03FC
03FC
03FC
07FC
07FC
07FC
07FE
07FE
07FE
07FE
01FF
ENDCHAR
STARTCHAR 00BA
ENCODING 186
SWIDTH 282 0
DWIDTH 22 0
BBX 20 27 1 27
BITMAP
03C000
07F000
0FFC00
0FFE00
1FFF00
1FFF80
3FFF80
3FFFC0
7FFFC0
7FFFE0
7F0FE0
FF0FE0
FF0FF0
FE0FF0
FF0FF0
FF0FF0
7F9FF0
7FFFF0
7FFFE0
7FFFE0
3FFFE0
3FFFE0
1FFFC0
1FFFC0
0FFF80
03FF00
00FC00
ENDCHAR
STARTCHAR 00BB
ENCODING 187
SWIDTH 475 0
DWIDTH 37 0
BBX 35 35 1 1
BITMAP
E000000000
F000300000
FC00380000
7E003C0000
7F003E0000
7F803F0000
7FC03FC000
7FC03FE000
7FE03FF000
7FF03FF800
7FF83FFE00
7FFC3FFF00
7FFE3FFFC0
1FFF3FFFE0
07FF0FFFE0
01FF80FFE0
007F803FE0
003F800FE0
00FF801FE0
03FF80FFE0
1FFF83FFE0
7FFF8FFFC0
FFFF1FFF80
FFFC3FFF00
FFF83FFE00
FFF03FFC00
FFC03FF800
FF803FF000
FF003FE000
FE003FC000
FC003F8000
F8003F0000
70003E0000
40003C0000
0000380000
ENDCHAR
STARTCHAR 00BC
ENCODING 188
SWIDTH 565 0
DWIDTH 44 0
BBX 42 55 1 -1
BITMAP
00000001C000
01F00001F800
03F80003FC00
07FC0007FC00
1FFC0007FC00
7FFC000FF800
FFFC000FF800
7DFC001FF000
3DFC001FF000
1DFC003FE000
09FC003FE000
03FC007FC000
03FC007FC000
03FC00FF8000
03FC00FF8000
03FC01FF0000
03FC03FF0000
03FC03FE0000
07FC07FE0000
07FC07FC0000
07FC0FF80000
07FE0FF80000
07FE1FF00000
07FE3FF00000
07FE3FE00000
01FF7FC00000
00007FC00000
0000FF800000
0001FF80E000
0001FF03E000
0003FE07E000
0003FE07E000
0007FC07C000
000FFC07C000
000FF80FC000
001FF00F8000
001FF00F8000
003FE00F8000
007FC01FFF80
007FC01FFFC0
00FF801FFFC0
00FF803FFFC0
01FF003FFFC0
03FE003FFE00
03FE00387C00
07FC00007C00
07F800007C00
0FF80000FC00
1FF00000FC00
1FE00000FC00
1FE00001FC00
0FC00001FC00
07800001FE00
00000003FE00
00000003FC00
ENDCHAR
STARTCHAR 00BD
ENCODING 189
SWIDTH 565 0
DWIDTH 44 0
BBX 42 53 1 1
BITMAP
00000001C000
01F00001F800
03F80003FC00
07FC0007FC00
1FFC0007FC00
7FFC000FF800
FFFC000FF800
7DFC001FF000
3DFC001FF000
1DFC003FE000
09FC003FE000
03FC007FC000
03FC007FC000
03FC00FF8000
03FC00FF8000
03FC01FF0000
03FC03FF0000
03FC03FE0000
07FC07FE0000
07FC07FC0000
07FC0FF80000
07FE0FF80000
07FE1FF00000
07FE3FF00000
07FE3FE00000
01FF7FC00000
00007FC00000
0000FF8F8000
0001FFBFE000
0001FF7FF800
0003FEFFF800
0003FFFFFC00
0007FDFFFC00
000FFCFDF800
000FF870FC00
001FF020FC00
001FF000F800
003FE000F800
007FC001F800
007FC001F000
00FF8001F000
00FF8003E000
01FF0003E1C0
03FE0007FFC0
03FE0007FFC0
07FC000FFF80
07F8001FFF80
0FF8001FFF80
1FF0003FFF80
1FE0007FFF00
1FE000FFFF00
0FC0007FFC00
0780001FE000
ENDCHAR
STARTCHAR 00BE
ENCODING 190
SWIDTH 565 0
DWIDTH 44 0
BBX 42 55 1 -1
BITMAP
00000001C000
03000001F800
3FE00003FC00
7FF00007FC00
7FF00007FC00
3FE0000FF800
03E0000FF800
03E0001FF000
07C0001FF000
0FC0003FE000
0FF0003FE000
1FFC007FC000
3FFE007FC000
3FFF00FF8000
1FFF00FF8000
001F81FF0000
000F83FF0000
000F83FE0000
000787FE0000
000787FC0000
000F8FF80000
001F8FF80000
F8FF9FF00000
FFFF3FF00000
7FFE3FE00000
1FFC7FC00000
0FF87FC00000
00E0FF800000
0001FF80E000
0001FF03E000
0003FE07E000
0003FE07E000
0007FC07C000
000FFC07C000
000FF80FC000
001FF00F8000
001FF00F8000
003FE00F8000
007FC01FFF80
007FC01FFFC0
00FF801FFFC0
00FF803FFFC0
01FF003FFFC0
03FE003FFE00
03FE00387C00
07FC00007C00
07F800007C00
0FF80000FC00
1FF00000FC00
1FE00000FC00
1FE00001FC00
0FC00001FC00
07800001FE00
00000003FE00
00000003FC00
ENDCHAR
STARTCHAR 00BF
ENCODING 191
SWIDTH 462 0
DWIDTH 36 0
BBX 34 56 1 -15
BITMAP
00007C0000
0001FE0000
0003FF8000
0007FF8000
000FFFC000
000FFFC000
000FFFC000
000FFFC000
0007FFC000
0007FFC000
0003FF8000
0001FE0000
0000F00000
0000000000
0000000000
0000000000
0000000000
00001E0000
0003FF8000
0003FF8000
0003FFC000
0003FFC000
0007FFC000
0007FFC000
001FFFC000
003FFFC000
007FFFC000
01FFFF8000
03FFFF8000
0FFFFF0000
1FFFFF0000
3FFFFE0000
3FFFE00000
7FFF000000
7FFE000000
7FFC000000
7FF8000000
7FF8000000
FFF8000000
FFF8000000
FFF8001C00
FFF8003F00
FFFC00FF80
FFFC03FFC0
FFFF9FFFC0
FFFFFFFFC0
7FFFFFFF80
7FFFFFFF80
7FFFFFFF80
7FFFFFFF00
3FFFFFFF00
3FFFFFFE00
1FFFFFFE00
0FFFFFFC00
01FFFFF000
0007FFC000
ENDCHAR
STARTCHAR 00C0
ENCODING 192
SWIDTH 630 0
DWIDTH 49 0
BBX 47 69 1 -2
BITMAP
000FFC000000
000FFE000000
0007FF000000
0003FF000000
0001FF800000
0001FFC00000
0000FFC00000
00007FC00000
00003FE00000
00001FE00000
00000FF00000
00000F800000
000000000000
000000000000
000000300000
000003F80000
000007FC0000
000007FC0000
000007FC0000
00000FFE0000
00000FFE0000
00001FFE0000
00001FFE0000
00001FFF0000
00003FFF0000
00003FFF0000
00003FFF0000
00007FFF8000
00007FFF8000
0000FFFF8000
0000FFFF8000
0000FFFFC000
0001FFFFC000
0001FFFFC000
0001FFFFE000
0003FFFFE000
0003FFFFE000
0007FFFFF000
0007FFFFF000
000FFFFFF000
000FFFFFF000
000FFFFFF800
001FF3FFF800
001FE1FFF800
003FE1FFFC00
003FC0FFFC00
007F80FFFC00
007F80FFFE00
00FF007FFE00
00FF00FFFE00
00FF0FFFFF00
01FFFFFFFF00
01FFFFFFFF80
03FFFFFFFF80
03FFFFFFFF80
07FFFFFFFFC0
07FFFC7FFFC0
0FFFC07FFFE0
0FFF807FFFE0
0FFF007FFFE0
1FFF003FFFF0
1FFF003FFFF0
3FFE003FFFF8
3FFE001FFFF8
7FFE001FFFFC
7FFE001FFFFC
7FFE000FFFFE
FFF8000F0004
F80000000000
ENDCHAR
STARTCHAR 00C1
ENCODING 193
SWIDTH 630 0
DWIDTH 49 0
BBX 47 69 1 -2
BITMAP
0000001FF800
0000001FFC00
0000003FF800
0000003FF000
0000007FE000
000000FFC000
000000FF8000
000000FF8000
000001FF0000
000001FE0000
000003FC0000
0000007C0000
000000000000
000000000000
000000300000
000003F80000
000007FC0000
000007FC0000
000007FC0000
00000FFE0000
00000FFE0000
00001FFE0000
00001FFE0000
00001FFF0000
00003FFF0000
00003FFF0000
00003FFF0000
00007FFF8000
00007FFF8000
0000FFFF8000
0000FFFF8000
0000FFFFC000
0001FFFFC000
0001FFFFC000
0001FFFFE000
0003FFFFE000
0003FFFFE000
0007FFFFF000
0007FFFFF000
000FFFFFF000
000FFFFFF000
000FFFFFF800
001FF3FFF800
001FE1FFF800
003FE1FFFC00
003FC0FFFC00
007F80FFFC00
007F80FFFE00
00FF007FFE00
00FF00FFFE00
00FF0FFFFF00
01FFFFFFFF00
01FFFFFFFF80
03FFFFFFFF80
03FFFFFFFF80
07FFFFFFFFC0
07FFFC7FFFC0
0FFFC07FFFE0
0FFF807FFFE0
0FFF007FFFE0
1FFF003FFFF0
1FFF003FFFF0
3FFE003FFFF8
3FFE001FFFF8
7FFE001FFFFC
7FFE001FFFFC
7FFE000FFFFE
FFF8000F0004
F80000000000
ENDCHAR
STARTCHAR 00C2
ENCODING 194
SWIDTH 630 0
DWIDTH 49 0
BBX 47 69 1 -2
BITMAP
000001F00000
000007F80000
00001FFC0000
00003FFF0000
00007FFF8000
0000FFFFC000
0001FFFFE000
0003FFFFF000
0007FF1FF800
0007FE0FF800
0003FC07F000
0001E003E000
000000000000
000000000000
000000300000
000003F80000
000007FC0000
000007FC0000
000007FC0000
00000FFE0000
00000FFE0000
00001FFE0000
00001FFE0000
00001FFF0000
00003FFF0000
00003FFF0000
00003FFF0000
00007FFF8000
00007FFF8000
0000FFFF8000
0000FFFF8000
0000FFFFC000
0001FFFFC000
0001FFFFC000
0001FFFFE000
0003FFFFE000
0003FFFFE000
0007FFFFF000
0007FFFFF000
000FFFFFF000
000FFFFFF000
000FFFFFF800
001FF3FFF800
001FE1FFF800
003FE1FFFC00
003FC0FFFC00
007F80FFFC00
007F80FFFE00
00FF007FFE00
00FF00FFFE00
00FF0FFFFF00
01FFFFFFFF00
01FFFFFFFF80
03FFFFFFFF80
03FFFFFFFF80
07FFFFFFFFC0
07FFFC7FFFC0
0FFFC07FFFE0
0FFF807FFFE0
0FFF007FFFE0
1FFF003FFFF0
1FFF003FFFF0
3FFE003FFFF8
3FFE001FFFF8
7FFE001FFFFC
7FFE001FFFFC
7FFE000FFFFE
FFF8000F0004
F80000000000
ENDCHAR
STARTCHAR 00C3
ENCODING 195
SWIDTH 630 0
DWIDTH 49 0
BBX 47 68 1 -2
BITMAP
00007E07F800
0000FF87F800
0001FFC7F800
0001FFFFF800
0003FFFFF800
0003FFFFF800
0003FFFFF000
0003FFFFE000
0003F9FFC000
0003F8FF8000
0003F03F0000
000000000000
000000000000
000000300000
000003F80000
000007FC0000
000007FC0000
000007FC0000
00000FFE0000
00000FFE0000
00001FFE0000
00001FFE0000
00001FFF0000
00003FFF0000
00003FFF0000
00003FFF0000
00007FFF8000
00007FFF8000
0000FFFF8000
0000FFFF8000
0000FFFFC000
0001FFFFC000
0001FFFFC000
0001FFFFE000
0003FFFFE000
0003FFFFE000
0007FFFFF000
0007FFFFF000
000FFFFFF000
000FFFFFF000
000FFFFFF800
001FF3FFF800
001FE1FFF800
003FE1FFFC00
003FC0FFFC00
007F80FFFC00
007F80FFFE00
00FF007FFE00
00FF00FFFE00
00FF0FFFFF00
01FFFFFFFF00
01FFFFFFFF80
03FFFFFFFF80
03FFFFFFFF80
07FFFFFFFFC0
07FFFC7FFFC0
0FFFC07FFFE0
0FFF807FFFE0
0FFF007FFFE0
1FFF003FFFF0
1FFF003FFFF0
3FFE003FFFF8
3FFE001FFFF8
7FFE001FFFFC
7FFE001FFFFC
7FFE000FFFFE
FFF8000F0004
F80000000000
ENDCHAR
STARTCHAR 00C4
ENCODING 196
SWIDTH 630 0
DWIDTH 49 0
BBX 47 65 1 -2
BITMAP
00007807C000
0000FE0FF000
0001FE0FF000
0001FE0FF000
0001FE0FF000
0001FE0FF000
0001FE0FE000
0000FC03C000
000010000000
000000000000
000000300000
000003F80000
000007FC0000
000007FC0000
000007FC0000
00000FFE0000
00000FFE0000
00001FFE0000
00001FFE0000
00001FFF0000
00003FFF0000
00003FFF0000
00003FFF0000
00007FFF8000
00007FFF8000
0000FFFF8000
0000FFFF8000
0000FFFFC000
0001FFFFC000
0001FFFFC000
0001FFFFE000
0003FFFFE000
0003FFFFE000
0007FFFFF000
0007FFFFF000
000FFFFFF000
000FFFFFF000
000FFFFFF800
001FF3FFF800
001FE1FFF800
003FE1FFFC00
003FC0FFFC00
007F80FFFC00
007F80FFFE00
00FF007FFE00
00FF00FFFE00
00FF0FFFFF00
01FFFFFFFF00
01FFFFFFFF80
03FFFFFFFF80
03FFFFFFFF80
07FFFFFFFFC0
07FFFC7FFFC0
0FFFC07FFFE0
0FFF807FFFE0
0FFF007FFFE0
1FFF003FFFF0
1FFF003FFFF0
3FFE003FFFF8
3FFE001FFFF8
7FFE001FFFFC
7FFE001FFFFC
7FFE000FFFFE
FFF8000F0004
F80000000000
ENDCHAR
STARTCHAR 00C5
ENCODING 197
SWIDTH 630 0
DWIDTH 49 0
BBX 47 69 1 -2
BITMAP
000007F80000
00003FFE0000
00007FFF8000
0000FFFFC000
0001FFFFE000
0003FE1FE000
0003FC1FF000
0007F80FF000
0007F80FF000
0007F80FF000
0007F807F000
0007F807F000
0007F80FF000
0003FC1FE000
0003FF3FE000
0001FFFFC000
0000FFFF8000
00007FFF0000
00003FFC0000
00000FFE0000
00000FFE0000
00001FFE0000
00001FFE0000
00001FFF0000
00003FFF0000
00003FFF0000
00003FFF0000
00007FFF8000
00007FFF8000
0000FFFF8000
0000FFFF8000
0000FFFFC000
0001FFFFC000
0001FFFFC000
0001FFFFE000
0003FFFFE000
0003FFFFE000
0007FFFFF000
0007FFFFF000
000FFFFFF000
000FFFFFF000
000FFFFFF800
001FF3FFF800
001FE1FFF800
003FE1FFFC00
003FC0FFFC00
007F80FFFC00
007F80FFFE00
00FF007FFE00
00FF00FFFE00
00FF0FFFFF00
01FFFFFFFF00
01FFFFFFFF80
03FFFFFFFF80
03FFFFFFFF80
07FFFFFFFFC0
07FFFC7FFFC0
0FFFC07FFFE0
0FFF807FFFE0
0FFF007FFFE0
1FFF003FFFF0
1FFF003FFFF0
3FFE003FFFF8
3FFE001FFFF8
7FFE001FFFFC
7FFE001FFFFC
7FFE000FFFFE
FFF8000F0004
F80000000000
ENDCHAR
STARTCHAR 00C6
ENCODING 198
SWIDTH 732 0
DWIDTH 57 0
BBX 55 55 1 -2
BITMAP
00000003FE0000
0000007FFFFC00
000003FFFFFF00
000007FFFFFE00
000007FFFFFE00
00000FFFFFFE00
00000FFFFFFE00
00000FFFFFFC00
00001FFFFFFC00
00001FFFFFFC00
00001FFFFFFC00
00003FFFFFFC00
00003FFFFFF800
00007FFFFFFC00
00007FFFFFFC00
00007FFFFFF800
0000FFFFFF3000
0000FFFFF00000
0000FFFFE00000
0001FFFFE00000
0001FFFFF00000
0003FFFFF00000
0003FFFFF07800
0003FFFFFFFC00
0007FFFFFFF800
0007FFFFFFF800
000FFFFFFFF800
000FFFFFFFF800
001FFFFFFFFC00
001FF3FFFFFC00
003FE1FFFF8000
003FC1FFF80000
003FC0FFFC0000
007F80FFFC0020
007F807FFEFDF0
00FF00FFFFFFF0
00FF03FFFFFFF8
01FFFFFFFFFFF8
01FFFFFFFFFFF8
03FFFFFFFFFFFC
03FFFFFFFFFFFC
03FFFFFFFFFFFC
07FFFFFFFFFFFC
07FFF07FFFFFFC
0FFFC07FFFFFFE
0FFF007FFFFFFE
1FFF007FFFFFFE
1FFF003FFFFFFE
1FFE003FFFFFFE
3FFE003FFFFFF0
3FFE001FFFFF00
7FFE001FFFF000
7FFE001FFE0000
FFFE000FE00000
FFE00004000000
ENDCHAR
STARTCHAR 00C7
ENCODING 199
SWIDTH 488 0
DWIDTH 38 0
BBX 36 66 1 -13
BITMAP
00001F8000
0000FFF800
0007FFFE00
001FFFFF80
00FFFFFFC0
01FFFFFFE0
03FFFFFFF0
07FFFFFFF0
0FFFFFFFF0
0FFFFFFFF0
1FFFFFFFF0
1FFFFFFFF0
3FFFFFFFE0
3FFFFFFFE0
7FFFFFFEE0
7FFFFE0200
7FFFF00000
7FFFE00000
FFFFC00000
FFFF800000
FFFF800000
7FFF000000
FFFF000000
7FFF000000
FFFF000000
FFFF000000
7FFF000000
FFFF800000
FFFF800000
FFFFE003E0
FFFFF1FFE0
7FFFFFFFE0
7FFFFFFFE0
7FFFFFFFE0
7FFFFFFFE0
7FFFFFFFE0
3FFFFFFFE0
3FFFFFFFE0
3FFFFFFFE0
1FFFFFFFE0
1FFFFFFFE0
1FFFFFFFE0
0FFFFFFFE0
0FFFFFFFE0
07FFFFFFC0
07FFFFFF80
03FFFFFF00
01FFFFFF00
01FFFFFE00
001FFFF800
000FFFE000
000FFF8000
000FF80000
000FF80000
0007FC0000
0003FF0000
0001FF8000
0000FFC000
00003FE000
01C03FF000
01FE3FF000
03FFFFF000
03FFFFE000
01FFFFE000
007FFFC000
001FFE0000
ENDCHAR
STARTCHAR 00C8
ENCODING 200
SWIDTH 488 0
DWIDTH 38 0
BBX 36 68 1 0
BITMAP
01C0000000
7FE0000000
FFF0000000
FFF0000000
3FF8000000
1FFC000000
0FFE000000
07FE000000
03FF000000
01FF000000
00FF800000
007C000000
0000000000
0000000000
00FFFF0000
0FFFFFF000
3FFFFFF800
7FFFFFF000
FFFFFFF000
FFFFFFF000
7FFFFFF000
7FFFFFE000
3FFFFFE000
3FFFFFE000
3FFFFFE000
3FFFFFE000
1FFFFFC000
1FFFFFE000
1FFFFFE000
1FFFFFC000
1FFFC00000
1FFF800000
0FFF000000
0FFF800000
0FFF800000
0FFF804000
0FFFCFE000
0FFFFFC000
07FFFFC000
07FFFFC000
07FFFFC000
07FFFFC000
07FFFFE000
03FFFFE000
03FFF00000
03FFE00000
03FFE00000
03FFE00380
03FFFFFF80
01FFFFFFC0
03FFFFFFC0
01FFFFFFC0
01FFFFFFC0
01FFFFFFE0
01FFFFFFE0
01FFFFFFE0
01FFFFFFE0
01FFFFFFF0
01FFFFFFF0
01FFFFFFF0
00FFFFFFF0
00FFFFFFF0
00FFFFFFE0
00FFFFFE00
00FFFFF000
00FFFE0000
007FE00000
0030000000
ENDCHAR
STARTCHAR 00C9
ENCODING 201
SWIDTH 488 0
DWIDTH 38 0
BBX 36 69 1 0
BITMAP
00007E0000
0007FF0000
0007FE0000
000FFC0000
000FFC0000
001FF80000
001FF00000
003FE00000
003FE00000
003FC00000
007F800000
007F800000
007F000000
0000000000
0000000000
00FFFF0000
0FFFFFF000
3FFFFFF800
7FFFFFF000
FFFFFFF000
FFFFFFF000
7FFFFFF000
7FFFFFE000
3FFFFFE000
3FFFFFE000
3FFFFFE000
3FFFFFE000
1FFFFFC000
1FFFFFE000
1FFFFFE000
1FFFFFC000
1FFFC00000
1FFF800000
0FFF000000
0FFF800000
0FFF800000
0FFF804000
0FFFCFE000
0FFFFFC000
07FFFFC000
07FFFFC000
07FFFFC000
07FFFFC000
07FFFFE000
03FFFFE000
03FFF00000
03FFE00000
03FFE00000
03FFE00380
03FFFFFF80
01FFFFFFC0
03FFFFFFC0
01FFFFFFC0
01FFFFFFC0
01FFFFFFE0
01FFFFFFE0
01FFFFFFE0
01FFFFFFE0
01FFFFFFF0
01FFFFFFF0
01FFFFFFF0
00FFFFFFF0
00FFFFFFF0
00FFFFFFE0
00FFFFFE00
00FFFFF000
00FFFE0000
007FE00000
0030000000
ENDCHAR
STARTCHAR 00CA
ENCODING 202
SWIDTH 488 0
DWIDTH 38 0
BBX 36 68 1 0
BITMAP
003C000000
00FF000000
01FF800000
07FFE00000
0FFFF00000
1FFFFC0000
1FFFFE0000
3FFFFF0000
7FE3FF0000
FFC1FE0000
FF807C0000
7F00000000
3800000000
0000000000
00FFFF0000
0FFFFFF000
3FFFFFF800
7FFFFFF000
FFFFFFF000
FFFFFFF000
7FFFFFF000
7FFFFFE000
3FFFFFE000
3FFFFFE000
3FFFFFE000
3FFFFFE000
1FFFFFC000
1FFFFFE000
1FFFFFE000
1FFFFFC000
1FFFC00000
1FFF800000
0FFF000000
0FFF800000
0FFF800000
0FFF804000
0FFFCFE000
0FFFFFC000
07FFFFC000
07FFFFC000
07FFFFC000
07FFFFC000
07FFFFE000
03FFFFE000
03FFF00000
03FFE00000
03FFE00000
03FFE00380
03FFFFFF80
01FFFFFFC0
03FFFFFFC0
01FFFFFFC0
01FFFFFFC0
01FFFFFFE0
01FFFFFFE0
01FFFFFFE0
01FFFFFFE0
01FFFFFFF0
01FFFFFFF0
01FFFFFFF0
00FFFFFFF0
00FFFFFFF0
00FFFFFFE0
00FFFFFE00
00FFFFF000
00FFFE0000
007FE00000
0030000000
ENDCHAR
STARTCHAR 00CB
ENCODING 203
SWIDTH 488 0
DWIDTH 38 0
BBX 36 65 1 0
BITMAP
0000E00000
0001F80000
1E03FC0000
3F83FC0000
3F83FC0000
7F83FC0000
7F83FC0000
7F81F80000
7F80600000
3F00000000
0000000000
00FFFF0000
0FFFFFF000
3FFFFFF800
7FFFFFF000
FFFFFFF000
FFFFFFF000
7FFFFFF000
7FFFFFE000
3FFFFFE000
3FFFFFE000
3FFFFFE000
3FFFFFE000
1FFFFFC000
1FFFFFE000
1FFFFFE000
1FFFFFC000
1FFFC00000
1FFF800000
0FFF000000
0FFF800000
0FFF800000
0FFF804000
0FFFCFE000
0FFFFFC000
07FFFFC000
07FFFFC000
07FFFFC000
07FFFFC000
07FFFFE000
03FFFFE000
03FFF00000
03FFE00000
03FFE00000
03FFE00380
03FFFFFF80
01FFFFFFC0
03FFFFFFC0
01FFFFFFC0
01FFFFFFC0
01FFFFFFE0
01FFFFFFE0
01FFFFFFE0
01FFFFFFE0
01FFFFFFF0
01FFFFFFF0
01FFFFFFF0
00FFFFFFF0
00FFFFFFF0
00FFFFFFE0
00FFFFFE00
00FFFFF000
00FFFE0000
007FE00000
0030000000
ENDCHAR
STARTCHAR 00CC
ENCODING 204
SWIDTH 334 0
DWIDTH 26 0
BBX 23 67 2 0
BITMAP
1FF800
1FFC00
0FFE00
07FE00
03FF00
03FF80
01FF80
00FF80
007FC0
003FC0
001FE0
001F00
000000
000000
000000
03FFF6
07FFFE
07FFFE
07FFFC
03FFFC
07FFFC
07FFF8
07FFF8
07FFF8
07FFF8
07FFF8
0FFFF8
0FFFF8
0FFFF8
0FFFF0
0FFFF0
0FFFF0
0FFFF0
0FFFF0
0FFFF0
1FFFF0
1FFFF0
1FFFF0
1FFFF0
1FFFF0
1FFFF0
1FFFF0
1FFFF0
1FFFF0
1FFFF0
1FFFF0
1FFFF0
1FFFF0
1FFFF0
1FFFF0
1FFFF0
1FFFF0
1FFFF0
3FFFF0
3FFFF0
3FFFF0
3FFFF0
3FFFE0
3FFFE0
3FFFE0
3FFFC0
3FFFE0
7FFFE0
7FFFC0
FFFF80
FFE000
FC0000
ENDCHAR
STARTCHAR 00CD
ENCODING 205
SWIDTH 334 0
DWIDTH 26 0
BBX 26 67 2 0
BITMAP
0000FFC0
0000FFC0
0001FFC0
0003FF80
0003FF00
0007FE00
000FFC00
000FF800
001FF000
001FF000
001FE000
0003C000
00000000
00000000
00000000
03FFF600
07FFFE00
07FFFE00
07FFFC00
03FFFC00
07FFFC00
07FFF800
07FFF800
07FFF800
07FFF800
07FFF800
0FFFF800
0FFFF800
0FFFF800
0FFFF000
0FFFF000
0FFFF000
0FFFF000
0FFFF000
0FFFF000
1FFFF000
1FFFF000
1FFFF000
1FFFF000
1FFFF000
1FFFF000
1FFFF000
1FFFF000
1FFFF000
1FFFF000
1FFFF000
1FFFF000
1FFFF000
1FFFF000
1FFFF000
1FFFF000
1FFFF000
1FFFF000
3FFFF000
3FFFF000
3FFFF000
3FFFF000
3FFFE000
3FFFE000
3FFFE000
3FFFC000
3FFFE000
7FFFE000
7FFFC000
FFFF8000
FFE00000
FC000000
ENDCHAR
STARTCHAR 00CE
ENCODING 206
SWIDTH 334 0
DWIDTH 26 0
BBX 26 67 2 0
BITMAP
00078000
001FE000
007FF000
00FFF800
03FFFC00
07FFFE00
0FFFFF00
0FFFFF80
1FFCFFC0
1FF07FC0
1FE03FC0
07000F00
00000000
00000000
00000000
03FFF600
07FFFE00
07FFFE00
07FFFC00
03FFFC00
07FFFC00
07FFF800
07FFF800
07FFF800
07FFF800
07FFF800
0FFFF800
0FFFF800
0FFFF800
0FFFF000
0FFFF000
0FFFF000
0FFFF000
0FFFF000
0FFFF000
1FFFF000
1FFFF000
1FFFF000
1FFFF000
1FFFF000
1FFFF000
1FFFF000
1FFFF000
1FFFF000
1FFFF000
1FFFF000
1FFFF000
1FFFF000
1FFFF000
1FFFF000
1FFFF000
1FFFF000
1FFFF000
3FFFF000
3FFFF000
3FFFF000
3FFFF000
3FFFE000
3FFFE000
3FFFE000
3FFFC000
3FFFE000
7FFFE000
7FFFC000
FFFF8000
FFE00000
FC000000
ENDCHAR
STARTCHAR 00CF
ENCODING 207
SWIDTH 334 0
DWIDTH 26 0
BBX 25 63 2 0
BITMAP
03C01E00
07F03F80
07F07F80
0FF07F80
0FF07F80
0FF07F80
0FF07F00
07E01E00
00C00000
00000000
00000000
03FFF600
07FFFE00
07FFFE00
07FFFC00
03FFFC00
07FFFC00
07FFF800
07FFF800
07FFF800
07FFF800
07FFF800
0FFFF800
0FFFF800
0FFFF800
0FFFF000
0FFFF000
0FFFF000
0FFFF000
0FFFF000
0FFFF000
1FFFF000
1FFFF000
1FFFF000
1FFFF000
1FFFF000
1FFFF000
1FFFF000
1FFFF000
1FFFF000
1FFFF000
1FFFF000
1FFFF000
1FFFF000
1FFFF000
1FFFF000
1FFFF000
1FFFF000
1FFFF000
3FFFF000
3FFFF000
3FFFF000
3FFFF000
3FFFE000
3FFFE000
3FFFE000
3FFFC000
3FFFE000
7FFFE000
7FFFC000
FFFF8000
FFE00000
FC000000
ENDCHAR
STARTCHAR 00D0
ENCODING 208
SWIDTH 488 0
DWIDTH 38 0
BBX 37 53 0 0
BITMAP
01FFC00000
03FFF80000
0FFFFE0000
0FFFFFC000
0FFFFFF000
0FFFFFF800
0FFFFFFC00
0FFFFFFC00
0FFFFFFE00
0FFFFFFF00
0FFFFFFF80
0FFFFFFF80
0FFFFFFFC0
0FFFFFFFE0
0FFFE7FFE0
0FFFE0FFF0
0FFFC03FF0
0FFFFE1FF0
0FFFFE1FF8
0FFFFE1FF8
FFFFFE1FF8
FFFFFE1FF8
FFFFFF1FF8
FFFFFF3FF8
FFFFFF3FF8
FFFFFF3FF8
7FFFFF7FF0
7FFFE07FF0
7FFFE0FFF0
7FFFE1FFE0
1BFFE3FFE0
03FFF7FFC0
03FFFFFFC0
03FFFFFF80
01FFFFFF80
01FFFFFF00
01FFFFFF00
01FFFFFE00
01FFFFFE00
00FFFFFC00
00FFFFF800
00FFFFF800
00FFFFF000
007FFFE000
007FFFC000
007FFF8000
007FFF0000
003FFE0000
003FF80000
003FE00000
003F800000
001E000000
0018000000
ENDCHAR
STARTCHAR 00D1
ENCODING 209
SWIDTH 565 0
DWIDTH 44 0
BBX 42 65 1 1
BITMAP
0000FC0FF000
0001FF0FF000
0003FF8FF000
0003FFFFF000
0007FFFFF000
0007FFFFF000
0007FFFFE000
0007FFFFC000
0007F3FF8000
0007E1FF0000
0007E07E0000
000000000000
000000000000
000000000000
007C0000FC00
01FFE003FF00
07FFF81FFF80
07FFF81FFFC0
07FFF81FFFC0
07FFF81FFFC0
07FFF81FFFC0
07FFF01FFF80
0FFFF81FFF80
0FFFF81FFF80
0FFFF81FFF80
0FFFF83FFF80
0FFFFC3FFF80
0FFFFC3FFF80
1FFFFC3FFF80
1FFFFC3FFF80
1FFFFE3FFF00
1FFFFE3FFF00
1FFFFE3FFF00
1FFFFE3FFF00
1FFFFF3FFF00
1FFFFF3FFF00
3FFFFF3FFF00
3FFFFF3FFF00
3FFFFFBFFF00
3FFFFFBFFF00
3FFFFFBFFE00
3FFFFFFFFE00
3FFFFFFFFE00
3FFFFFFFFE00
3FFFBFFFFE00
3FFFBFFFFE00
3FFF9FFFFE00
3FFF9FFFFE00
3FFF9FFFFE00
3FFF8FFFFE00
7FFF8FFFFE00
7FFF8FFFFE00
7FFF87FFFE00
7FFF87FFFC00
7FFF87FFFE00
7FFF03FFFE00
7FFF03FFFC00
7FFF03FFFC00
7FFF01FFFC00
7FFF01FFFC00
7FFF01FFFC00
7FFF01FFFC00
FFFF01FFFC00
FFFF01FFF800
FFE0003FC000
ENDCHAR
STARTCHAR 00D2
ENCODING 210
SWIDTH 527 0
DWIDTH 41 0
BBX 40 68 1 -1
BITMAP
7FE0000000
7FF0000000
7FF0000000
3FF8000000
1FF8000000
0FFC000000
07FE000000
03FE000000
01FF000000
00FF000000
00FF000000
007C000000
0000000000
000FC00000
001FF00000
003FFC0000
007FFF0000
007FFF8000
00FFFFE000
00FFFFF000
01FFFFFC00
03FFFFFE00
03FFFFFE00
03FFFFFF00
07FFFFFF80
07FFFFFFC0
0FFFFFFFC0
0FFFFFFFE0
1FFFFFFFE0
1FFFFFFFF0
1FFFFFFFF0
3FFFFFFFF8
3FFFFFFFF8
3FFF83FFFC
7FFF00FFFC
7FFF00FFFC
7FFE00FFFE
FFFE00FFFE
FFFE007FFE
FFFE007FFE
FFFE007FFE
FFFE00FFFF
FFFE00FFFF
FFFE00FFFF
7FFF00FFFF
7FFF81FFFF
7FFFE3FFFE
7FFFFFFFFE
7FFFFFFFFE
3FFFFFFFFE
3FFFFFFFFE
3FFFFFFFFC
3FFFFFFFFC
1FFFFFFFFC
1FFFFFFFFC
1FFFFFFFF8
0FFFFFFFF8
0FFFFFFFF8
07FFFFFFF8
07FFFFFFF0
03FFFFFFF0
01FFFFFFE0
00FFFFFFC0
007FFFFF80
001FFFFE00
0007FFFC00
0000FFF000
00000F0000
ENDCHAR
STARTCHAR 00D3
ENCODING 211
SWIDTH 527 0
DWIDTH 41 0
BBX 40 68 1 -1
BITMAP
00007FE000
0000FFE000
0001FFC000
0001FFC000
0003FF8000
0003FF0000
0007FE0000
0007FC0000
000FF80000
000FF00000
001FF00000
0003E00000
0000000000
000FC00000
001FF00000
003FFC0000
007FFF0000
007FFF8000
00FFFFE000
00FFFFF000
01FFFFFC00
03FFFFFE00
03FFFFFE00
03FFFFFF00
07FFFFFF80
07FFFFFFC0
0FFFFFFFC0
0FFFFFFFE0
1FFFFFFFE0
1FFFFFFFF0
1FFFFFFFF0
3FFFFFFFF8
3FFFFFFFF8
3FFF83FFFC
7FFF00FFFC
7FFF00FFFC
7FFE00FFFE
FFFE00FFFE
FFFE007FFE
FFFE007FFE
FFFE007FFE
FFFE00FFFF
FFFE00FFFF
FFFE00FFFF
7FFF00FFFF
7FFF81FFFF
7FFFE3FFFE
7FFFFFFFFE
7FFFFFFFFE
3FFFFFFFFE
3FFFFFFFFE
3FFFFFFFFC
3FFFFFFFFC
1FFFFFFFFC
1FFFFFFFFC
1FFFFFFFF8
0FFFFFFFF8
0FFFFFFFF8
07FFFFFFF8
07FFFFFFF0
03FFFFFFF0
01FFFFFFE0
00FFFFFFC0
007FFFFF80
001FFFFE00
0007FFFC00
0000FFF000
00000F0000
ENDCHAR
STARTCHAR 00D4
ENCODING 212
SWIDTH 527 0
DWIDTH 41 0
BBX 40 69 1 -1
BITMAP
000E000000
001F800000
003FE00000
00FFF00000
01FFF80000
03FFFE0000
07FFFF0000
0FFFFF8000
1FFBFF8000
1FF0FFC000
1FE07FC000
1FC03F8000
0100000000
0000000000
000FC00000
001FF00000
003FFC0000
007FFF0000
007FFF8000
00FFFFE000
00FFFFF000
01FFFFFC00
03FFFFFE00
03FFFFFE00
03FFFFFF00
07FFFFFF80
07FFFFFFC0
0FFFFFFFC0
0FFFFFFFE0
1FFFFFFFE0
1FFFFFFFF0
1FFFFFFFF0
3FFFFFFFF8
3FFFFFFFF8
3FFF83FFFC
7FFF00FFFC
7FFF00FFFC
7FFE00FFFE
FFFE00FFFE
FFFE007FFE
FFFE007FFE
FFFE007FFE
FFFE00FFFF
FFFE00FFFF
FFFE00FFFF
7FFF00FFFF
7FFF81FFFF
7FFFE3FFFE
7FFFFFFFFE
7FFFFFFFFE
3FFFFFFFFE
3FFFFFFFFE
3FFFFFFFFC
3FFFFFFFFC
1FFFFFFFFC
1FFFFFFFFC
1FFFFFFFF8
0FFFFFFFF8
0FFFFFFFF8
07FFFFFFF8
07FFFFFFF0
03FFFFFFF0
01FFFFFFE0
00FFFFFFC0
007FFFFF80
001FFFFE00
0007FFFC00
0000FFF000
00000F0000
ENDCHAR
STARTCHAR 00D5
ENCODING 213
SWIDTH 527 0
DWIDTH 41 0
BBX 40 69 1 -1
BITMAP
0000030000
00007F0000
03E07F8000
07F87F8000
0FFFFF8000
1FFFFF8000
1FFFFF8000
1FFFFF0000
1FFFFE0000
1FFFFE0000
1F9FFC0000
1F87F00000
1F80000000
1800000000
000FC00000
001FF00000
003FFC0000
007FFF0000
007FFF8000
00FFFFE000
00FFFFF000
01FFFFFC00
03FFFFFE00
03FFFFFE00
03FFFFFF00
07FFFFFF80
07FFFFFFC0
0FFFFFFFC0
0FFFFFFFE0
1FFFFFFFE0
1FFFFFFFF0
1FFFFFFFF0
3FFFFFFFF8
3FFFFFFFF8
3FFF83FFFC
7FFF00FFFC
7FFF00FFFC
7FFE00FFFE
FFFE00FFFE
FFFE007FFE
FFFE007FFE
FFFE007FFE
FFFE00FFFF
FFFE00FFFF
FFFE00FFFF
7FFF00FFFF
7FFF81FFFF
7FFFE3FFFE
7FFFFFFFFE
7FFFFFFFFE
3FFFFFFFFE
3FFFFFFFFE
3FFFFFFFFC
3FFFFFFFFC
1FFFFFFFFC
1FFFFFFFFC
1FFFFFFFF8
0FFFFFFFF8
0FFFFFFFF8
07FFFFFFF8
07FFFFFFF0
03FFFFFFF0
01FFFFFFE0
00FFFFFFC0
007FFFFF80
001FFFFE00
0007FFFC00
0000FFF000
00000F0000
ENDCHAR
STARTCHAR 00D6
ENCODING 214
SWIDTH 527 0
DWIDTH 41 0
BBX 40 64 1 -1
BITMAP
03803E0000
07E07F0000
0FE07F8000
0FF0FF8000
1FF0FF8000
1FF07F0000
0FE07F0000
07C03E0000
0180000000
000FC00000
001FF00000
003FFC0000
007FFF0000
007FFF8000
00FFFFE000
00FFFFF000
01FFFFFC00
03FFFFFE00
03FFFFFE00
03FFFFFF00
07FFFFFF80
07FFFFFFC0
0FFFFFFFC0
0FFFFFFFE0
1FFFFFFFE0
1FFFFFFFF0
1FFFFFFFF0
3FFFFFFFF8
3FFFFFFFF8
3FFF83FFFC
7FFF00FFFC
7FFF00FFFC
7FFE00FFFE
FFFE00FFFE
FFFE007FFE
FFFE007FFE
FFFE007FFE
FFFE00FFFF
FFFE00FFFF
FFFE00FFFF
7FFF00FFFF
7FFF81FFFF
7FFFE3FFFE
7FFFFFFFFE
7FFFFFFFFE
3FFFFFFFFE
3FFFFFFFFE
3FFFFFFFFC
3FFFFFFFFC
1FFFFFFFFC
1FFFFFFFFC
1FFFFFFFF8
0FFFFFFFF8
0FFFFFFFF8
07FFFFFFF8
07FFFFFFF0
03FFFFFFF0
01FFFFFFE0
00FFFFFFC0
007FFFFF80
001FFFFE00
0007FFFC00
0000FFF000
00000F0000
ENDCHAR
STARTCHAR 00D7
ENCODING 215
SWIDTH 424 0
DWIDTH 33 0
BBX 31 31 1 12
BITMAP
03000180
03C003C0
07E007E0
0FF00FF0
1FF81FF8
3FFC3FFC
7FFE7FFE
FFFFFFFE
7FFFFFFE
3FFFFFFC
1FFFFFF8
1FFFFFF0
07FFFFE0
03FFFFC0
01FFFF80
00FFFF00
01FFFF00
01FFFF80
03FFFFC0
07FFFFE0
0FFFFFF0
1FFFFFF8
3FFFFFFC
7FFFFFFE
FFFE7FFE
7FFC3FFC
3FF81FF8
1FF00FF0
0FE007E0
07C003C0
01800180
ENDCHAR
STARTCHAR 00D8
ENCODING 216
SWIDTH 527 0
DWIDTH 41 0
BBX 42 56 0 -1
BITMAP
00000003FF80
0007E003FFC0
000FF807FFC0
001FFE0FFF80
003FFF8FFF80
003FFFDFFF00
007FFFFFFE00
007FFFFFFE00
00FFFFFFFC00
01FFFFFFFC00
01FFFFFFF800
01FFFFFFF000
03FFFFFFF000
03FFFFFFE000
07FFFFFFE000
07FFFFFFF000
0FFFFFFFF000
0FFFFFFFF800
0FFFFFFFF800
1FFFFFFFFC00
1FFFFFFFFC00
1FFF3FFFFE00
3FFE7FFFFE00
3FFC7FFFFE00
3FF8FFFFFF00
7FF8FFFFFF00
7FF1FFFFFF00
7FF1FFDFFF00
7FF3FF9FFF00
7FF3FF9FFF80
7FF7FF1FFF80
7FF7FE1FFF80
3FFFFE1FFF80
3FFFFC3FFF80
3FFFF87FFF00
3FFFF8FFFF00
3FFFF3FFFF00
1FFFFFFFFF00
1FFFFFFFFF00
1FFFFFFFFE00
1FFFFFFFFE00
0FFFFFFFFE00
0FFFFFFFFE00
0FFFFFFFFC00
07FFFFFFFC00
07FFFFFFFC00
0FFFFFFFFC00
1FFFFFFFF800
1FFFFFFFF800
3FFFFFFFF000
3FFFFFFFE000
7FFFFFFFC000
FFEFFFFF0000
FFC3FFFE0000
C7807FF80000
030007800000
ENDCHAR
STARTCHAR 00D9
ENCODING 217
SWIDTH 540 0
DWIDTH 42 0
BBX 41 66 1 1
BITMAP
003FF0000000
003FF8000000
003FF8000000
001FFC000000
000FFE000000
0007FE000000
0003FF000000
0001FF000000
0000FF800000
00007F800000
00007F800000
00003E000000
000000000000
000000000000
07F000000000
07FF000FFF00
07FF800FFF00
07FF801FFF00
0FFF000FFF00
0FFF000FFF00
0FFE000FFF00
0FFF0007FF00
1FFF000FFF00
1FFE000FFF00
1FFE000FFF00
1FFE000FFF00
3FFE000FFF00
3FFE000FFF00
3FFE000FFF00
3FFE000FFF00
3FFE000FFF00
7FFE001FFF00
7FFE001FFF00
7FFE001FFF00
7FFE001FFF00
7FFE001FFF00
7FFE001FFF00
7FFE003FFF00
FFFE003FFF00
FFFF003FFF80
FFFF003FFF80
7FFF803FFF00
7FFFC07FFF00
7FFFE07FFF00
7FFFFEFFFE00
7FFFFFFFFE00
7FFFFFFFFE00
7FFFFFFFFC00
7FFFFFFFFC00
7FFFFFFFFC00
3FFFFFFFF800
3FFFFFFFF800
3FFFFFFFF800
1FFFFFFFF000
1FFFFFFFF000
1FFFFFFFE000
0FFFFFFFC000
07FFFFFFC000
07FFFFFF8000
03FFFFFF0000
03FFFFFE0000
01FFFFFC0000
00FFFFF80000
003FFFF80000
0007FFE00000
000040000000
ENDCHAR
STARTCHAR 00DA
ENCODING 218
SWIDTH 540 0
DWIDTH 42 0
BBX 41 66 1 1
BITMAP
0000007FE000
000000FFE000
000000FFE000
000001FFC000
000001FF8000
000003FF0000
000007FE0000
000007FC0000
00000FF80000
00000FF80000
00000FF00000
000003E00000
000000000000
000000000000
07F000000000
07FF000FFF00
07FF800FFF00
07FF801FFF00
0FFF000FFF00
0FFF000FFF00
0FFE000FFF00
0FFF0007FF00
1FFF000FFF00
1FFE000FFF00
1FFE000FFF00
1FFE000FFF00
3FFE000FFF00
3FFE000FFF00
3FFE000FFF00
3FFE000FFF00
3FFE000FFF00
7FFE001FFF00
7FFE001FFF00
7FFE001FFF00
7FFE001FFF00
7FFE001FFF00
7FFE001FFF00
7FFE003FFF00
FFFE003FFF00
FFFF003FFF80
FFFF003FFF80
7FFF803FFF00
7FFFC07FFF00
7FFFE07FFF00
7FFFFEFFFE00
7FFFFFFFFE00
7FFFFFFFFE00
7FFFFFFFFC00
7FFFFFFFFC00
7FFFFFFFFC00
3FFFFFFFF800
3FFFFFFFF800
3FFFFFFFF800
1FFFFFFFF000
1FFFFFFFF000
1FFFFFFFE000
0FFFFFFFC000
07FFFFFFC000
07FFFFFF8000
03FFFFFF0000
03FFFFFE0000
01FFFFFC0000
00FFFFF80000
003FFFF80000
0007FFE00000
000040000000
ENDCHAR
STARTCHAR 00DB
ENCODING 219
SWIDTH 540 0
DWIDTH 42 0
BBX 41 66 1 1
BITMAP
000007C00000
00001FE00000
00003FF00000
0000FFFC0000
0001FFFE0000
0003FFFF0000
0007FFFF8000
000FFFFFC000
001FFC7FE000
001FF83FE000
000FF01FC000
0007800F8000
000000000000
000000000000
07F000000000
07FF000FFF00
07FF800FFF00
07FF801FFF00
0FFF000FFF00
0FFF000FFF00
0FFE000FFF00
0FFF0007FF00
1FFF000FFF00
1FFE000FFF00
1FFE000FFF00
1FFE000FFF00
3FFE000FFF00
3FFE000FFF00
3FFE000FFF00
3FFE000FFF00
3FFE000FFF00
7FFE001FFF00
7FFE001FFF00
7FFE001FFF00
7FFE001FFF00
7FFE001FFF00
7FFE001FFF00
7FFE003FFF00
FFFE003FFF00
FFFF003FFF80
FFFF003FFF80
7FFF803FFF00
7FFFC07FFF00
7FFFE07FFF00
7FFFFEFFFE00
7FFFFFFFFE00
7FFFFFFFFE00
7FFFFFFFFC00
7FFFFFFFFC00
7FFFFFFFFC00
3FFFFFFFF800
3FFFFFFFF800
3FFFFFFFF800
1FFFFFFFF000
1FFFFFFFF000
1FFFFFFFE000
0FFFFFFFC000
07FFFFFFC000
07FFFFFF8000
03FFFFFF0000
03FFFFFE0000
01FFFFFC0000
00FFFFF80000
003FFFF80000
0007FFE00000
000040000000
ENDCHAR
STARTCHAR 00DC
ENCODING 220
SWIDTH 540 0
DWIDTH 42 0
BBX 41 62 1 1
BITMAP
0003E00E0000
0007F03F8000
0007F83F8000
000FF83FC000
0007F83FC000
0007F83FC000
0003F03FC000
0001E01F0000
0000000C0000
000000000000
07F000000000
07FF000FFF00
07FF800FFF00
07FF801FFF00
0FFF000FFF00
0FFF000FFF00
0FFE000FFF00
0FFF0007FF00
1FFF000FFF00
1FFE000FFF00
1FFE000FFF00
1FFE000FFF00
3FFE000FFF00
3FFE000FFF00
3FFE000FFF00
3FFE000FFF00
3FFE000FFF00
7FFE001FFF00
7FFE001FFF00
7FFE001FFF00
7FFE001FFF00
7FFE001FFF00
7FFE001FFF00
7FFE003FFF00
FFFE003FFF00
FFFF003FFF80
FFFF003FFF80
7FFF803FFF00
7FFFC07FFF00
7FFFE07FFF00
7FFFFEFFFE00
7FFFFFFFFE00
7FFFFFFFFE00
7FFFFFFFFC00
7FFFFFFFFC00
7FFFFFFFFC00
3FFFFFFFF800
3FFFFFFFF800
3FFFFFFFF800
1FFFFFFFF000
1FFFFFFFF000
1FFFFFFFE000
0FFFFFFFC000
07FFFFFFC000
07FFFFFF8000
03FFFFFF0000
03FFFFFE0000
01FFFFFC0000
00FFFFF80000
003FFFF80000
0007FFE00000
000040000000
ENDCHAR
STARTCHAR 00DD
ENCODING 221
SWIDTH 604 0
DWIDTH 47 0
BBX 45 67 1 0
BITMAP
0000003FF000
0000007FF000
000000FFE000
000000FFC000
000001FFC000
000001FF8000
000003FF0000
000003FE0000
000007FC0000
000007F80000
00000FF80000
000001F00000
000000000000
000000000000
000000003FF8
00000000FFF8
00780000FFF8
07F80000FFF0
3FFC0001FFE0
FFFE0001FFF0
FFFE0003FFE0
7FFF0003FFE0
7FFF0007FFC0
3FFF8007FFC0
3FFF8007FF80
3FFFC00FFF80
1FFFC01FFF00
1FFFE01FFF00
0FFFE03FFE00
07FFE03FFE00
07FFF07FFC00
03FFF07FFC00
03FFF8FFF800
01FFF8FFF800
01FFFDFFF000
00FFFDFFF000
00FFFFFFE000
007FFFFFE000
007FFFFFC000
003FFFFFC000
003FFFFF8000
001FFFFF8000
001FFFFF8000
000FFFFF0000
000FFFFF0000
0007FFFE0000
0007FFFE0000
0003FFFC0000
0003FFFC0000
0001FFF80000
0000FFF80000
0000FFF80000
00007FF80000
00007FF80000
00007FF80000
00007FF80000
00007FF80000
00007FF80000
00007FF80000
00007FFC0000
00007FFC0000
00007FFC0000
00007FFC0000
00007FFC0000
00007FFC0000
00007FF80000
00003F800000
ENDCHAR
STARTCHAR 00DE
ENCODING 222
SWIDTH 501 0
DWIDTH 39 0
BBX 37 54 1 0
BITMAP
0780000000
FFFC000000
FFFC000000
FFFC000000
FFFC000000
FFFC000000
FFFC000000
FFFC800000
FFFFF00000
7FFFFF8000
7FFFFFE000
7FFFFFF800
7FFFFFFC00
7FFFFFFE00
7FFFFFFF00
7FFFFFFF00
7FFFFFFF80
7FFFFFFF80
7FFFFFFFC0
7FFC07FFC0
7FFC01FFC0
7FFE00FFE0
7FFE007FE0
7FFE007FE0
7FFE007FF0
7FFE007FF0
3FFE007FF0
3FFE007FF0
3FFE00FFF0
3FFE00FFF0
3FFF00FFF0
3FFF01FFF0
3FFF01FFF0
3FFF03FFF0
3FFF8FFFF8
3FFFFFFFF8
3FFFFFFFF8
3FFFFFFFF0
3FFFFFFFE0
3FFFFFFFC0
3FFFFFFF80
1FFFFFFF00
3FFFFFFC00
3FFFFF8000
3FFFC00000
3FFFC00000
1FFFC00000
1FFFC00000
1FFFC00000
1FFFC00000
1FFFC00000
1FFFC00000
1FFFC00000
0FFF800000
ENDCHAR
STARTCHAR 00DF
ENCODING 223
SWIDTH 552 0
DWIDTH 43 0
BBX 42 59 1 -5
BITMAP
003FF0000000
01FFFE000000
03FFFF800000
03FFFFE00000
07FFFFF00000
1FFFFFF00000
3FFFFFF00000
3FFFFFF00000
7FFFFFF80000
7FFFFFFC0000
7FFFFFFC0000
7FFC3FFE0000
FFF00FFE0000
FFF007FE0000
FFF007FE0000
FFF007FE0000
FFF007FE0000
FFF007FE0000
FFF007FE0000
FFF00FFC0000
7FF00FFC0000
7FF01FF80000
7FF03FF00000
7FF03FE00000
7FF07FE00000
7FF87FFC0000
7FF83FFFC000
7FF83FFFF000
7FF83FFFF800
7FF83FFFFC00
7FF83FFFFE00
7FF83FFFFF00
7FF81FFFFF00
3FF801FFFF00
3FF8007FFF80
3FF8001FFF80
3FF8000FFF80
3FF8000FFFC0
3FFC0007FFC0
3FFC0007FFC0
3FFC0007FFC0
3FFC000FFF80
3FFC001FFF80
3FFC003FFF80
1FFC01FFFF80
1FFC0FFFFF80
1FFC0FFFFF00
1FFC0FFFFF00
1FFC0FFFFE00
1FFC0FFFFC00
1FFC0FFFF800
1FFC0FFFF000
1FFC0FFFC000
1FFC07FE0000
1FFE07000000
1FFE00000000
0FFC00000000
0FFC00000000
03F000000000
ENDCHAR
STARTCHAR 00E0
ENCODING 224
SWIDTH 630 0
DWIDTH 49 0
BBX 47 69 1 -2
BITMAP
000FFC000000
000FFE000000
0007FF000000
0003FF000000
0001FF800000
0001FFC00000
0000FFC00000
00007FC00000
00003FE00000
00001FE00000
00000FF00000
00000F800000
000000000000
000000000000
000000300000
000003F80000
000007FC0000
000007FC0000
000007FC0000
00000FFE0000
00000FFE0000
00001FFE0000
00001FFE0000
00001FFF0000
00003FFF0000
00003FFF0000
00003FFF0000
00007FFF8000
00007FFF8000
0000FFFF8000
0000FFFF8000
0000FFFFC000
0001FFFFC000
0001FFFFC000
0001FFFFE000
0003FFFFE000
0003FFFFE000
0007FFFFF000
0007FFFFF000
000FFFFFF000
000FFFFFF000
000FFFFFF800
001FF3FFF800
001FE1FFF800
003FE1FFFC00
003FC0FFFC00
007F80FFFC00
007F80FFFE00
00FF007FFE00
00FF00FFFE00
00FF0FFFFF00
01FFFFFFFF00
01FFFFFFFF80
03FFFFFFFF80
03FFFFFFFF80
07FFFFFFFFC0
07FFFC7FFFC0
0FFFC07FFFE0
0FFF807FFFE0
0FFF007FFFE0
1FFF003FFFF0
1FFF003FFFF0
3FFE003FFFF8
3FFE001FFFF8
7FFE001FFFFC
7FFE001FFFFC
7FFE000FFFFE
FFF8000F0004
F80000000000
ENDCHAR
STARTCHAR 00E1
ENCODING 225
SWIDTH 630 0
DWIDTH 49 0
BBX 47 69 1 -2
BITMAP
0000001FF800
0000001FFC00
0000003FF800
0000003FF000
0000007FE000
000000FFC000
000000FF8000
000000FF8000
000001FF0000
000001FE0000
000003FC0000
0000007C0000
000000000000
000000000000
000000300000
000003F80000
000007FC0000
000007FC0000
000007FC0000
00000FFE0000
00000FFE0000
00001FFE0000
00001FFE0000
00001FFF0000
00003FFF0000
00003FFF0000
00003FFF0000
00007FFF8000
00007FFF8000
0000FFFF8000
0000FFFF8000
0000FFFFC000
0001FFFFC000
0001FFFFC000
0001FFFFE000
0003FFFFE000
0003FFFFE000
0007FFFFF000
0007FFFFF000
000FFFFFF000
000FFFFFF000
000FFFFFF800
001FF3FFF800
001FE1FFF800
003FE1FFFC00
003FC0FFFC00
007F80FFFC00
007F80FFFE00
00FF007FFE00
00FF00FFFE00
00FF0FFFFF00
01FFFFFFFF00
01FFFFFFFF80
03FFFFFFFF80
03FFFFFFFF80
07FFFFFFFFC0
07FFFC7FFFC0
0FFFC07FFFE0
0FFF807FFFE0
0FFF007FFFE0
1FFF003FFFF0
1FFF003FFFF0
3FFE003FFFF8
3FFE001FFFF8
7FFE001FFFFC
7FFE001FFFFC
7FFE000FFFFE
FFF8000F0004
F80000000000
ENDCHAR
STARTCHAR 00E2
ENCODING 226
SWIDTH 630 0
DWIDTH 49 0
BBX 47 69 1 -2
BITMAP
000001F00000
000007F80000
00001FFC0000
00003FFF0000
00007FFF8000
0000FFFFC000
0001FFFFE000
0003FFFFF000
0007FF1FF800
0007FE0FF800
0003FC07F000
0001E003E000
000000000000
000000000000
000000300000
000003F80000
000007FC0000
000007FC0000
000007FC0000
00000FFE0000
00000FFE0000
00001FFE0000
00001FFE0000
00001FFF0000
00003FFF0000
00003FFF0000
00003FFF0000
00007FFF8000
00007FFF8000
0000FFFF8000
0000FFFF8000
0000FFFFC000
0001FFFFC000
0001FFFFC000
0001FFFFE000
0003FFFFE000
0003FFFFE000
0007FFFFF000
0007FFFFF000
000FFFFFF000
000FFFFFF000
000FFFFFF800
001FF3FFF800
001FE1FFF800
003FE1FFFC00
003FC0FFFC00
007F80FFFC00
007F80FFFE00
00FF007FFE00
00FF00FFFE00
00FF0FFFFF00
01FFFFFFFF00
01FFFFFFFF80
03FFFFFFFF80
03FFFFFFFF80
07FFFFFFFFC0
07FFFC7FFFC0
0FFFC07FFFE0
0FFF807FFFE0
0FFF007FFFE0
1FFF003FFFF0
1FFF003FFFF0
3FFE003FFFF8
3FFE001FFFF8
7FFE001FFFFC
7FFE001FFFFC
7FFE000FFFFE
FFF8000F0004
F80000000000
ENDCHAR
STARTCHAR 00E3
ENCODING 227
SWIDTH 630 0
DWIDTH 49 0
BBX 47 68 1 -2
BITMAP
00007E07F800
0000FF87F800
0001FFC7F800
0001FFFFF800
0003FFFFF800
0003FFFFF800
0003FFFFF000
0003FFFFE000
0003F9FFC000
0003F8FF8000
0003F03F0000
000000000000
000000000000
000000300000
000003F80000
000007FC0000
000007FC0000
000007FC0000
00000FFE0000
00000FFE0000
00001FFE0000
00001FFE0000
00001FFF0000
00003FFF0000
00003FFF0000
00003FFF0000
00007FFF8000
00007FFF8000
0000FFFF8000
0000FFFF8000
0000FFFFC000
0001FFFFC000
0001FFFFC000
0001FFFFE000
0003FFFFE000
0003FFFFE000
0007FFFFF000
0007FFFFF000
000FFFFFF000
000FFFFFF000
000FFFFFF800
001FF3FFF800
001FE1FFF800
003FE1FFFC00
003FC0FFFC00
007F80FFFC00
007F80FFFE00
00FF007FFE00
00FF00FFFE00
00FF0FFFFF00
01FFFFFFFF00
01FFFFFFFF80
03FFFFFFFF80
03FFFFFFFF80
07FFFFFFFFC0
07FFFC7FFFC0
0FFFC07FFFE0
0FFF807FFFE0
0FFF007FFFE0
1FFF003FFFF0
1FFF003FFFF0
3FFE003FFFF8
3FFE001FFFF8
7FFE001FFFFC
7FFE001FFFFC
7FFE000FFFFE
FFF8000F0004
F80000000000
ENDCHAR
STARTCHAR 00E4
ENCODING 228
SWIDTH 630 0
DWIDTH 49 0
BBX 47 65 1 -2
BITMAP
00007807C000
0000FE0FF000
0001FE0FF000
0001FE0FF000
0001FE0FF000
0001FE0FF000
0001FE0FE000
0000FC03C000
000010000000
000000000000
000000300000
000003F80000
000007FC0000
000007FC0000
000007FC0000
00000FFE0000
00000FFE0000
00001FFE0000
00001FFE0000
00001FFF0000
00003FFF0000
00003FFF0000
00003FFF0000
00007FFF8000
00007FFF8000
0000FFFF8000
0000FFFF8000
0000FFFFC000
0001FFFFC000
0001FFFFC000
0001FFFFE000
0003FFFFE000
0003FFFFE000
0007FFFFF000
0007FFFFF000
000FFFFFF000
000FFFFFF000
000FFFFFF800
001FF3FFF800
001FE1FFF800
003FE1FFFC00
003FC0FFFC00
007F80FFFC00
007F80FFFE00
00FF007FFE00
00FF00FFFE00
00FF0FFFFF00
01FFFFFFFF00
01FFFFFFFF80
03FFFFFFFF80
03FFFFFFFF80
07FFFFFFFFC0
07FFFC7FFFC0
0FFFC07FFFE0
0FFF807FFFE0
0FFF007FFFE0
1FFF003FFFF0
1FFF003FFFF0
3FFE003FFFF8
3FFE001FFFF8
7FFE001FFFFC
7FFE001FFFFC
7FFE000FFFFE
FFF8000F0004
F80000000000
ENDCHAR
STARTCHAR 00E5
ENCODING 229
SWIDTH 630 0
DWIDTH 49 0
BBX 47 69 1 -2
BITMAP
000007F80000
00003FFE0000
00007FFF8000
0000FFFFC000
0001FFFFE000
0003FE1FE000
0003FC1FF000
0007F80FF000
0007F80FF000
0007F80FF000
0007F807F000
0007F807F000
0007F80FF000
0003FC1FE000
0003FF3FE000
0001FFFFC000
0000FFFF8000
00007FFF0000
00003FFC0000
00000FFE0000
00000FFE0000
00001FFE0000
00001FFE0000
00001FFF0000
00003FFF0000
00003FFF0000
00003FFF0000
00007FFF8000
00007FFF8000
0000FFFF8000
0000FFFF8000
0000FFFFC000
0001FFFFC000
0001FFFFC000
0001FFFFE000
0003FFFFE000
0003FFFFE000
0007FFFFF000
0007FFFFF000
000FFFFFF000
000FFFFFF000
000FFFFFF800
001FF3FFF800
001FE1FFF800
003FE1FFFC00
003FC0FFFC00
007F80FFFC00
007F80FFFE00
00FF007FFE00
00FF00FFFE00
00FF0FFFFF00
01FFFFFFFF00
01FFFFFFFF80
03FFFFFFFF80
03FFFFFFFF80
07FFFFFFFFC0
07FFFC7FFFC0
0FFFC07FFFE0
0FFF807FFFE0
0FFF007FFFE0
1FFF003FFFF0
1FFF003FFFF0
3FFE003FFFF8
3FFE001FFFF8
7FFE001FFFFC
7FFE001FFFFC
7FFE000FFFFE
FFF8000F0004
F80000000000
ENDCHAR
STARTCHAR 00E6
ENCODING 230
SWIDTH 732 0
DWIDTH 57 0
BBX 55 55 1 -2
BITMAP
00000003FE0000
0000007FFFFC00
000003FFFFFF00
000007FFFFFE00
000007FFFFFE00
00000FFFFFFE00
00000FFFFFFE00
00000FFFFFFC00
00001FFFFFFC00
00001FFFFFFC00
00001FFFFFFC00
00003FFFFFFC00
00003FFFFFF800
00007FFFFFFC00
00007FFFFFFC00
00007FFFFFF800
0000FFFFFF3000
0000FFFFF00000
0000FFFFE00000
0001FFFFE00000
0001FFFFF00000
0003FFFFF00000
0003FFFFF07800
0003FFFFFFFC00
0007FFFFFFF800
0007FFFFFFF800
000FFFFFFFF800
000FFFFFFFF800
001FFFFFFFFC00
001FF3FFFFFC00
003FE1FFFF8000
003FC1FFF80000
003FC0FFFC0000
007F80FFFC0020
007F807FFEFDF0
00FF00FFFFFFF0
00FF03FFFFFFF8
01FFFFFFFFFFF8
01FFFFFFFFFFF8
03FFFFFFFFFFFC
03FFFFFFFFFFFC
03FFFFFFFFFFFC
07FFFFFFFFFFFC
07FFF07FFFFFFC
0FFFC07FFFFFFE
0FFF007FFFFFFE
1FFF007FFFFFFE
1FFF003FFFFFFE
1FFE003FFFFFFE
3FFE003FFFFFF0
3FFE001FFFFF00
7FFE001FFFF000
7FFE001FFE0000
FFFE000FE00000
FFE00004000000
ENDCHAR
STARTCHAR 00E7
ENCODING 231
SWIDTH 488 0
DWIDTH 38 0
BBX 36 66 1 -13
BITMAP
00001F8000
0000FFF800
0007FFFE00
001FFFFF80
00FFFFFFC0
01FFFFFFE0
03FFFFFFF0
07FFFFFFF0
0FFFFFFFF0
0FFFFFFFF0
1FFFFFFFF0
1FFFFFFFF0
3FFFFFFFE0
3FFFFFFFE0
7FFFFFFEE0
7FFFFE0200
7FFFF00000
7FFFE00000
FFFFC00000
FFFF800000
FFFF800000
7FFF000000
FFFF000000
7FFF000000
FFFF000000
FFFF000000
7FFF000000
FFFF800000
FFFF800000
FFFFE003E0
FFFFF1FFE0
7FFFFFFFE0
7FFFFFFFE0
7FFFFFFFE0
7FFFFFFFE0
7FFFFFFFE0
3FFFFFFFE0
3FFFFFFFE0
3FFFFFFFE0
1FFFFFFFE0
1FFFFFFFE0
1FFFFFFFE0
0FFFFFFFE0
0FFFFFFFE0
07FFFFFFC0
07FFFFFF80
03FFFFFF00
01FFFFFF00
01FFFFFE00
001FFFF800
000FFFE000
000FFF8000
000FF80000
000FF80000
0007FC0000
0003FF0000
0001FF8000
0000FFC000
00003FE000
01C03FF000
01FE3FF000
03FFFFF000
03FFFFE000
01FFFFE000
007FFFC000
001FFE0000
ENDCHAR
STARTCHAR 00E8
ENCODING 232
SWIDTH 488 0
DWIDTH 38 0
BBX 36 68 1 0
BITMAP
01C0000000
7FE0000000
FFF0000000
FFF0000000
3FF8000000
1FFC000000
0FFE000000
07FE000000
03FF000000
01FF000000
00FF800000
007C000000
0000000000
0000000000
00FFFF0000
0FFFFFF000
3FFFFFF800
7FFFFFF000
FFFFFFF000
FFFFFFF000
7FFFFFF000
7FFFFFE000
3FFFFFE000
3FFFFFE000
3FFFFFE000
3FFFFFE000
1FFFFFC000
1FFFFFE000
1FFFFFE000
1FFFFFC000
1FFFC00000
1FFF800000
0FFF000000
0FFF800000
0FFF800000
0FFF804000
0FFFCFE000
0FFFFFC000
07FFFFC000
07FFFFC000
07FFFFC000
07FFFFC000
07FFFFE000
03FFFFE000
03FFF00000
03FFE00000
03FFE00000
03FFE00380
03FFFFFF80
01FFFFFFC0
03FFFFFFC0
01FFFFFFC0
01FFFFFFC0
01FFFFFFE0
01FFFFFFE0
01FFFFFFE0
01FFFFFFE0
01FFFFFFF0
01FFFFFFF0
01FFFFFFF0
00FFFFFFF0
00FFFFFFF0
00FFFFFFE0
00FFFFFE00
00FFFFF000
00FFFE0000
007FE00000
0030000000
ENDCHAR
STARTCHAR 00E9
ENCODING 233
SWIDTH 488 0
DWIDTH 38 0
BBX 36 69 1 0
BITMAP
00007E0000
0007FF0000
0007FE0000
000FFC0000
000FFC0000
001FF80000
001FF00000
003FE00000
003FE00000
003FC00000
007F800000
007F800000
007F000000
0000000000
0000000000
00FFFF0000
0FFFFFF000
3FFFFFF800
7FFFFFF000
FFFFFFF000
FFFFFFF000
7FFFFFF000
7FFFFFE000
3FFFFFE000
3FFFFFE000
3FFFFFE000
3FFFFFE000
1FFFFFC000
1FFFFFE000
1FFFFFE000
1FFFFFC000
1FFFC00000
1FFF800000
0FFF000000
0FFF800000
0FFF800000
0FFF804000
0FFFCFE000
0FFFFFC000
07FFFFC000
07FFFFC000
07FFFFC000
07FFFFC000
07FFFFE000
03FFFFE000
03FFF00000
03FFE00000
03FFE00000
03FFE00380
03FFFFFF80
01FFFFFFC0
03FFFFFFC0
01FFFFFFC0
01FFFFFFC0
01FFFFFFE0
01FFFFFFE0
01FFFFFFE0
01FFFFFFE0
01FFFFFFF0
01FFFFFFF0
01FFFFFFF0
00FFFFFFF0
00FFFFFFF0
00FFFFFFE0
00FFFFFE00
00FFFFF000
00FFFE0000
007FE00000
0030000000
ENDCHAR
STARTCHAR 00EA
ENCODING 234
SWIDTH 488 0
DWIDTH 38 0
BBX 36 68 1 0
BITMAP
003C000000
00FF000000
01FF800000
07FFE00000
0FFFF00000
1FFFFC0000
1FFFFE0000
3FFFFF0000
7FE3FF0000
FFC1FE0000
FF807C0000
7F00000000
3800000000
0000000000
00FFFF0000
0FFFFFF000
3FFFFFF800
7FFFFFF000
FFFFFFF000
FFFFFFF000
7FFFFFF000
7FFFFFE000
3FFFFFE000
3FFFFFE000
3FFFFFE000
3FFFFFE000
1FFFFFC000
1FFFFFE000
1FFFFFE000
1FFFFFC000
1FFFC00000
1FFF800000
0FFF000000
0FFF800000
0FFF800000
0FFF804000
0FFFCFE000
0FFFFFC000
07FFFFC000
07FFFFC000
07FFFFC000
07FFFFC000
07FFFFE000
03FFFFE000
03FFF00000
03FFE00000
03FFE00000
03FFE00380
03FFFFFF80
01FFFFFFC0
03FFFFFFC0
01FFFFFFC0
01FFFFFFC0
01FFFFFFE0
01FFFFFFE0
01FFFFFFE0
01FFFFFFE0
01FFFFFFF0
01FFFFFFF0
01FFFFFFF0
00FFFFFFF0
00FFFFFFF0
00FFFFFFE0
00FFFFFE00
00FFFFF000
00FFFE0000
007FE00000
0030000000
ENDCHAR
STARTCHAR 00EB
ENCODING 235
SWIDTH 488 0
DWIDTH 38 0
BBX 36 65 1 0
BITMAP
0000E00000
0001F80000
1E03FC0000
3F83FC0000
3F83FC0000
7F83FC0000
7F83FC0000
7F81F80000
7F80600000
3F00000000
0000000000
00FFFF0000
0FFFFFF000
3FFFFFF800
7FFFFFF000
FFFFFFF000
FFFFFFF000
7FFFFFF000
7FFFFFE000
3FFFFFE000
3FFFFFE000
3FFFFFE000
3FFFFFE000
1FFFFFC000
1FFFFFE000
1FFFFFE000
1FFFFFC000
1FFFC00000
1FFF800000
0FFF000000
0FFF800000
0FFF800000
0FFF804000
0FFFCFE000
0FFFFFC000
07FFFFC000
07FFFFC000
07FFFFC000
07FFFFC000
07FFFFE000
03FFFFE000
03FFF00000
03FFE00000
03FFE00000
03FFE00380
03FFFFFF80
01FFFFFFC0
03FFFFFFC0
01FFFFFFC0
01FFFFFFC0
01FFFFFFE0
01FFFFFFE0
01FFFFFFE0
01FFFFFFE0
01FFFFFFF0
01FFFFFFF0
01FFFFFFF0
00FFFFFFF0
00FFFFFFF0
00FFFFFFE0
00FFFFFE00
00FFFFF000
00FFFE0000
007FE00000
0030000000
ENDCHAR
STARTCHAR 00EC
ENCODING 236
SWIDTH 334 0
DWIDTH 26 0
BBX 23 67 2 0
BITMAP
1FF800
1FFC00
0FFE00
07FE00
03FF00
03FF80
01FF80
00FF80
007FC0
003FC0
001FE0
001F00
000000
000000
000000
03FFF6
07FFFE
07FFFE
07FFFC
03FFFC
07FFFC
07FFF8
07FFF8
07FFF8
07FFF8
07FFF8
0FFFF8
0FFFF8
0FFFF8
0FFFF0
0FFFF0
0FFFF0
0FFFF0
0FFFF0
0FFFF0
1FFFF0
1FFFF0
1FFFF0
1FFFF0
1FFFF0
1FFFF0
1FFFF0
1FFFF0
1FFFF0
1FFFF0
1FFFF0
1FFFF0
1FFFF0
1FFFF0
1FFFF0
1FFFF0
1FFFF0
1FFFF0
3FFFF0
3FFFF0
3FFFF0
3FFFF0
3FFFE0
3FFFE0
3FFFE0
3FFFC0
3FFFE0
7FFFE0
7FFFC0
FFFF80
FFE000
FC0000
ENDCHAR
STARTCHAR 00ED
ENCODING 237
SWIDTH 334 0
DWIDTH 26 0
BBX 26 67 2 0
BITMAP
0000FFC0
0000FFC0
0001FFC0
0003FF80
0003FF00
0007FE00
000FFC00
000FF800
001FF000
001FF000
001FE000
0003C000
00000000
00000000
00000000
03FFF600
07FFFE00
07FFFE00
07FFFC00
03FFFC00
07FFFC00
07FFF800
07FFF800
07FFF800
07FFF800
07FFF800
0FFFF800
0FFFF800
0FFFF800
0FFFF000
0FFFF000
0FFFF000
0FFFF000
0FFFF000
0FFFF000
1FFFF000
1FFFF000
1FFFF000
1FFFF000
1FFFF000
1FFFF000
1FFFF000
1FFFF000
1FFFF000
1FFFF000
1FFFF000
1FFFF000
1FFFF000
1FFFF000
1FFFF000
1FFFF000
1FFFF000
1FFFF000
3FFFF000
3FFFF000
3FFFF000
3FFFF000
3FFFE000
3FFFE000
3FFFE000
3FFFC000
3FFFE000
7FFFE000
7FFFC000
FFFF8000
FFE00000
FC000000
ENDCHAR
STARTCHAR 00EE
ENCODING 238
SWIDTH 334 0
DWIDTH 26 0
BBX 26 67 2 0
BITMAP
00078000
001FE000
007FF000
00FFF800
03FFFC00
07FFFE00
0FFFFF00
0FFFFF80
1FFCFFC0
1FF07FC0
1FE03FC0
07000F00
00000000
00000000
00000000
03FFF600
07FFFE00
07FFFE00
07FFFC00
03FFFC00
07FFFC00
07FFF800
07FFF800
07FFF800
07FFF800
07FFF800
0FFFF800
0FFFF800
0FFFF800
0FFFF000
0FFFF000
0FFFF000
0FFFF000
0FFFF000
0FFFF000
1FFFF000
1FFFF000
1FFFF000
1FFFF000
1FFFF000
1FFFF000
1FFFF000
1FFFF000
1FFFF000
1FFFF000
1FFFF000
1FFFF000
1FFFF000
1FFFF000
1FFFF000
1FFFF000
1FFFF000
1FFFF000
3FFFF000
3FFFF000
3FFFF000
3FFFF000
3FFFE000
3FFFE000
3FFFE000
3FFFC000
3FFFE000
7FFFE000
7FFFC000
FFFF8000
FFE00000
FC000000
ENDCHAR
STARTCHAR 00EF
ENCODING 239
SWIDTH 334 0
DWIDTH 26 0
BBX 25 63 2 0
BITMAP
03C01E00
07F03F80
07F07F80
0FF07F80
0FF07F80
0FF07F80
0FF07F00
07E01E00
00C00000
00000000
00000000
03FFF600
07FFFE00
07FFFE00
07FFFC00
03FFFC00
07FFFC00
07FFF800
07FFF800
07FFF800
07FFF800
07FFF800
0FFFF800
0FFFF800
0FFFF800
0FFFF000
0FFFF000
0FFFF000
0FFFF000
0FFFF000
0FFFF000
1FFFF000
1FFFF000
1FFFF000
1FFFF000
1FFFF000
1FFFF000
1FFFF000
1FFFF000
1FFFF000
1FFFF000
1FFFF000
1FFFF000
1FFFF000
1FFFF000
1FFFF000
1FFFF000
1FFFF000
1FFFF000
3FFFF000
3FFFF000
3FFFF000
3FFFF000
3FFFE000
3FFFE000
3FFFE000
3FFFC000
3FFFE000
7FFFE000
7FFFC000
FFFF8000
FFE00000
FC000000
ENDCHAR
STARTCHAR 00F0
ENCODING 240
SWIDTH 488 0
DWIDTH 38 0
BBX 37 53 0 0
BITMAP
01FFC00000
03FFF80000
0FFFFE0000
0FFFFFC000
0FFFFFF000
0FFFFFF800
0FFFFFFC00
0FFFFFFC00
0FFFFFFE00
0FFFFFFF00
0FFFFFFF80
0FFFFFFF80
0FFFFFFFC0
0FFFFFFFE0
0FFFE7FFE0
0FFFE0FFF0
0FFFC03FF0
0FFFFE1FF0
0FFFFE1FF8
0FFFFE1FF8
FFFFFE1FF8
FFFFFE1FF8
FFFFFF1FF8
FFFFFF3FF8
FFFFFF3FF8
FFFFFF3FF8
7FFFFF7FF0
7FFFE07FF0
7FFFE0FFF0
7FFFE1FFE0
1BFFE3FFE0
03FFF7FFC0
03FFFFFFC0
03FFFFFF80
01FFFFFF80
01FFFFFF00
01FFFFFF00
01FFFFFE00
01FFFFFE00
00FFFFFC00
00FFFFF800
00FFFFF800
00FFFFF000
007FFFE000
007FFFC000
007FFF8000
007FFF0000
003FFE0000
003FF80000
003FE00000
003F800000
001E000000
0018000000
ENDCHAR
STARTCHAR 00F1
ENCODING 241
SWIDTH 565 0
DWIDTH 44 0
BBX 42 65 1 1
BITMAP
0000FC0FF000
0001FF0FF000
0003FF8FF000
0003FFFFF000
0007FFFFF000
0007FFFFF000
0007FFFFE000
0007FFFFC000
0007F3FF8000
0007E1FF0000
0007E07E0000
000000000000
000000000000
000000000000
007C0000FC00
01FFE003FF00
07FFF81FFF80
07FFF81FFFC0
07FFF81FFFC0
07FFF81FFFC0
07FFF81FFFC0
07FFF01FFF80
0FFFF81FFF80
0FFFF81FFF80
0FFFF81FFF80
0FFFF83FFF80
0FFFFC3FFF80
0FFFFC3FFF80
1FFFFC3FFF80
1FFFFC3FFF80
1FFFFE3FFF00
1FFFFE3FFF00
1FFFFE3FFF00
1FFFFE3FFF00
1FFFFF3FFF00
1FFFFF3FFF00
3FFFFF3FFF00
3FFFFF3FFF00
3FFFFFBFFF00
3FFFFFBFFF00
3FFFFFBFFE00
3FFFFFFFFE00
3FFFFFFFFE00
3FFFFFFFFE00
3FFFBFFFFE00
3FFFBFFFFE00
3FFF9FFFFE00
3FFF9FFFFE00
3FFF9FFFFE00
3FFF8FFFFE00
7FFF8FFFFE00
7FFF8FFFFE00
7FFF87FFFE00
7FFF87FFFC00
7FFF87FFFE00
7FFF03FFFE00
7FFF03FFFC00
7FFF03FFFC00
7FFF01FFFC00
7FFF01FFFC00
7FFF01FFFC00
7FFF01FFFC00
FFFF01FFFC00
FFFF01FFF800
FFE0003FC000
ENDCHAR
STARTCHAR 00F2
ENCODING 242
SWIDTH 527 0
DWIDTH 41 0
BBX 40 68 1 -1
BITMAP
7FE0000000
7FF0000000
7FF0000000
3FF8000000
1FF8000000
0FFC000000
07FE000000
03FE000000
01FF000000
00FF000000
00FF000000
007C000000
0000000000
000FC00000
001FF00000
003FFC0000
007FFF0000
007FFF8000
00FFFFE000
00FFFFF000
01FFFFFC00
03FFFFFE00
03FFFFFE00
03FFFFFF00
07FFFFFF80
07FFFFFFC0
0FFFFFFFC0
0FFFFFFFE0
1FFFFFFFE0
1FFFFFFFF0
1FFFFFFFF0
3FFFFFFFF8
3FFFFFFFF8
3FFF83FFFC
7FFF00FFFC
7FFF00FFFC
7FFE00FFFE
FFFE00FFFE
FFFE007FFE
FFFE007FFE
FFFE007FFE
FFFE00FFFF
FFFE00FFFF
FFFE00FFFF
7FFF00FFFF
7FFF81FFFF
7FFFE3FFFE
7FFFFFFFFE
7FFFFFFFFE
3FFFFFFFFE
3FFFFFFFFE
3FFFFFFFFC
3FFFFFFFFC
1FFFFFFFFC
1FFFFFFFFC
1FFFFFFFF8
0FFFFFFFF8
0FFFFFFFF8
07FFFFFFF8
07FFFFFFF0
03FFFFFFF0
01FFFFFFE0
00FFFFFFC0
007FFFFF80
001FFFFE00
0007FFFC00
0000FFF000
00000F0000
ENDCHAR
STARTCHAR 00F3
ENCODING 243
SWIDTH 527 0
DWIDTH 41 0
BBX 40 68 1 -1
BITMAP
00007FE000
0000FFE000
0001FFC000
0001FFC000
0003FF8000
0003FF0000
0007FE0000
0007FC0000
000FF80000
000FF00000
001FF00000
0003E00000
0000000000
000FC00000
001FF00000
003FFC0000
007FFF0000
007FFF8000
00FFFFE000
00FFFFF000
01FFFFFC00
03FFFFFE00
03FFFFFE00
03FFFFFF00
07FFFFFF80
07FFFFFFC0
0FFFFFFFC0
0FFFFFFFE0
1FFFFFFFE0
1FFFFFFFF0
1FFFFFFFF0
3FFFFFFFF8
3FFFFFFFF8
3FFF83FFFC
7FFF00FFFC
7FFF00FFFC
7FFE00FFFE
FFFE00FFFE
FFFE007FFE
FFFE007FFE
FFFE007FFE
FFFE00FFFF
FFFE00FFFF
FFFE00FFFF
7FFF00FFFF
7FFF81FFFF
7FFFE3FFFE
7FFFFFFFFE
7FFFFFFFFE
3FFFFFFFFE
3FFFFFFFFE
3FFFFFFFFC
3FFFFFFFFC
1FFFFFFFFC
1FFFFFFFFC
1FFFFFFFF8
0FFFFFFFF8
0FFFFFFFF8
07FFFFFFF8
07FFFFFFF0
03FFFFFFF0
01FFFFFFE0
00FFFFFFC0
007FFFFF80
001FFFFE00
0007FFFC00
0000FFF000
00000F0000
ENDCHAR
STARTCHAR 00F4
ENCODING 244
SWIDTH 527 0
DWIDTH 41 0
BBX 40 69 1 -1
BITMAP
000E000000
001F800000
003FE00000
00FFF00000
01FFF80000
03FFFE0000
07FFFF0000
0FFFFF8000
1FFBFF8000
1FF0FFC000
1FE07FC000
1FC03F8000
0100000000
0000000000
000FC00000
001FF00000
003FFC0000
007FFF0000
007FFF8000
00FFFFE000
00FFFFF000
01FFFFFC00
03FFFFFE00
03FFFFFE00
03FFFFFF00
07FFFFFF80
07FFFFFFC0
0FFFFFFFC0
0FFFFFFFE0
1FFFFFFFE0
1FFFFFFFF0
1FFFFFFFF0
3FFFFFFFF8
3FFFFFFFF8
3FFF83FFFC
7FFF00FFFC
7FFF00FFFC
7FFE00FFFE
FFFE00FFFE
FFFE007FFE
FFFE007FFE
FFFE007FFE
FFFE00FFFF
FFFE00FFFF
FFFE00FFFF
7FFF00FFFF
7FFF81FFFF
7FFFE3FFFE
7FFFFFFFFE
7FFFFFFFFE
3FFFFFFFFE
3FFFFFFFFE
3FFFFFFFFC
3FFFFFFFFC
1FFFFFFFFC
1FFFFFFFFC
1FFFFFFFF8
0FFFFFFFF8
0FFFFFFFF8
07FFFFFFF8
07FFFFFFF0
03FFFFFFF0
01FFFFFFE0
00FFFFFFC0
007FFFFF80
001FFFFE00
0007FFFC00
0000FFF000
00000F0000
ENDCHAR
STARTCHAR 00F5
ENCODING 245
SWIDTH 527 0
DWIDTH 41 0
BBX 40 69 1 -1
BITMAP
0000030000
00007F0000
03E07F8000
07F87F8000
0FFFFF8000
1FFFFF8000
1FFFFF8000
1FFFFF0000
1FFFFE0000
1FFFFE0000
1F9FFC0000
1F87F00000
1F80000000
1800000000
000FC00000
001FF00000
003FFC0000
007FFF0000
007FFF8000
00FFFFE000
00FFFFF000
01FFFFFC00
03FFFFFE00
03FFFFFE00
03FFFFFF00
07FFFFFF80
07FFFFFFC0
0FFFFFFFC0
0FFFFFFFE0
1FFFFFFFE0
1FFFFFFFF0
1FFFFFFFF0
3FFFFFFFF8
3FFFFFFFF8
3FFF83FFFC
7FFF00FFFC
7FFF00FFFC
7FFE00FFFE
FFFE00FFFE
FFFE007FFE
FFFE007FFE
FFFE007FFE
FFFE00FFFF
FFFE00FFFF
FFFE00FFFF
7FFF00FFFF
7FFF81FFFF
7FFFE3FFFE
7FFFFFFFFE
7FFFFFFFFE
3FFFFFFFFE
3FFFFFFFFE
3FFFFFFFFC
3FFFFFFFFC
1FFFFFFFFC
1FFFFFFFFC
1FFFFFFFF8
0FFFFFFFF8
0FFFFFFFF8
07FFFFFFF8
07FFFFFFF0
03FFFFFFF0
01FFFFFFE0
00FFFFFFC0
007FFFFF80
001FFFFE00
0007FFFC00
0000FFF000
00000F0000
ENDCHAR
STARTCHAR 00F6
ENCODING 246
SWIDTH 527 0
DWIDTH 41 0
BBX 40 64 1 -1
BITMAP
03803E0000
07E07F0000
0FE07F8000
0FF0FF8000
1FF0FF8000
1FF07F0000
0FE07F0000
07C03E0000
0180000000
000FC00000
001FF00000
003FFC0000
007FFF0000
007FFF8000
00FFFFE000
00FFFFF000
01FFFFFC00
03FFFFFE00
03FFFFFE00
03FFFFFF00
07FFFFFF80
07FFFFFFC0
0FFFFFFFC0
0FFFFFFFE0
1FFFFFFFE0
1FFFFFFFF0
1FFFFFFFF0
3FFFFFFFF8
3FFFFFFFF8
3FFF83FFFC
7FFF00FFFC
7FFF00FFFC
7FFE00FFFE
FFFE00FFFE
FFFE007FFE
FFFE007FFE
FFFE007FFE
FFFE00FFFF
FFFE00FFFF
FFFE00FFFF
7FFF00FFFF
7FFF81FFFF
7FFFE3FFFE
7FFFFFFFFE
7FFFFFFFFE
3FFFFFFFFE
3FFFFFFFFE
3FFFFFFFFC
3FFFFFFFFC
1FFFFFFFFC
1FFFFFFFFC
1FFFFFFFF8
0FFFFFFFF8
0FFFFFFFF8
07FFFFFFF8
07FFFFFFF0
03FFFFFFF0
01FFFFFFE0
00FFFFFFC0
007FFFFF80
001FFFFE00
0007FFFC00
0000FFF000
00000F0000
ENDCHAR
STARTCHAR 00F7
ENCODING 247
SWIDTH 475 0
DWIDTH 37 0
BBX 35 41 1 7
BITMAP
0001F00000
0003FC0000
0007FE0000
000FFF0000
000FFF0000
000FFF0000
001FFF0000
001FFF0000
001FFF0000
000FFE0000
0007FE0000
0003FC0000
0000F00000
0000000000
0000000000
7FFFFFFFC0
7FFFFFFFE0
7FFFFFFFE0
7FFFFFFFE0
7FFFFFFFE0
7FFFFFFFE0
7FFFFFFFE0
FFFFFFFFE0
FFFFFFFFE0
FFFFFFFFE0
3FFE000000
0000000000
0000000000
0000800000
0003F80000
0007FC0000
000FFE0000
000FFF0000
001FFF0000
001FFF0000
001FFF0000
001FFF0000
000FFE0000
000FFE0000
0007FC0000
0001F00000
ENDCHAR
STARTCHAR 00F8
ENCODING 248
SWIDTH 527 0
DWIDTH 41 0
BBX 42 56 0 -1
BITMAP
00000003FF80
0007E003FFC0
000FF807FFC0
001FFE0FFF80
003FFF8FFF80
003FFFDFFF00
007FFFFFFE00
007FFFFFFE00
00FFFFFFFC00
01FFFFFFFC00
01FFFFFFF800
01FFFFFFF000
03FFFFFFF000
03FFFFFFE000
07FFFFFFE000
07FFFFFFF000
0FFFFFFFF000
0FFFFFFFF800
0FFFFFFFF800
1FFFFFFFFC00
1FFFFFFFFC00
1FFF3FFFFE00
3FFE7FFFFE00
3FFC7FFFFE00
3FF8FFFFFF00
7FF8FFFFFF00
7FF1FFFFFF00
7FF1FFDFFF00
7FF3FF9FFF00
7FF3FF9FFF80
7FF7FF1FFF80
7FF7FE1FFF80
3FFFFE1FFF80
3FFFFC3FFF80
3FFFF87FFF00
3FFFF8FFFF00
3FFFF3FFFF00
1FFFFFFFFF00
1FFFFFFFFF00
1FFFFFFFFE00
1FFFFFFFFE00
0FFFFFFFFE00
0FFFFFFFFE00
0FFFFFFFFC00
07FFFFFFFC00
07FFFFFFFC00
0FFFFFFFFC00
1FFFFFFFF800
1FFFFFFFF800
3FFFFFFFF000
3FFFFFFFE000
7FFFFFFFC000
FFEFFFFF0000
FFC3FFFE0000
C7807FF80000
030007800000
ENDCHAR
STARTCHAR 00F9
ENCODING 249
SWIDTH 540 0
DWIDTH 42 0
BBX 41 66 1 1
BITMAP
003FF0000000
003FF8000000
003FF8000000
001FFC000000
000FFE000000
0007FE000000
0003FF000000
0001FF000000
0000FF800000
00007F800000
00007F800000
00003E000000
000000000000
000000000000
07F000000000
07FF000FFF00
07FF800FFF00
07FF801FFF00
0FFF000FFF00
0FFF000FFF00
0FFE000FFF00
0FFF0007FF00
1FFF000FFF00
1FFE000FFF00
1FFE000FFF00
1FFE000FFF00
3FFE000FFF00
3FFE000FFF00
3FFE000FFF00
3FFE000FFF00
3FFE000FFF00
7FFE001FFF00
7FFE001FFF00
7FFE001FFF00
7FFE001FFF00
7FFE001FFF00
7FFE001FFF00
7FFE003FFF00
FFFE003FFF00
FFFF003FFF80
FFFF003FFF80
7FFF803FFF00
7FFFC07FFF00
7FFFE07FFF00
7FFFFEFFFE00
7FFFFFFFFE00
7FFFFFFFFE00
7FFFFFFFFC00
7FFFFFFFFC00
7FFFFFFFFC00
3FFFFFFFF800
3FFFFFFFF800
3FFFFFFFF800
1FFFFFFFF000
1FFFFFFFF000
1FFFFFFFE000
0FFFFFFFC000
07FFFFFFC000
07FFFFFF8000
03FFFFFF0000
03FFFFFE0000
01FFFFFC0000
00FFFFF80000
003FFFF80000
0007FFE00000
000040000000
ENDCHAR
STARTCHAR 00FA
ENCODING 250
SWIDTH 540 0
DWIDTH 42 0
BBX 41 66 1 1
BITMAP
0000007FE000
000000FFE000
000000FFE000
000001FFC000
000001FF8000
000003FF0000
000007FE0000
000007FC0000
00000FF80000
00000FF80000
00000FF00000
000003E00000
000000000000
000000000000
07F000000000
07FF000FFF00
07FF800FFF00
07FF801FFF00
0FFF000FFF00
0FFF000FFF00
0FFE000FFF00
0FFF0007FF00
1FFF000FFF00
1FFE000FFF00
1FFE000FFF00
1FFE000FFF00
3FFE000FFF00
3FFE000FFF00
3FFE000FFF00
3FFE000FFF00
3FFE000FFF00
7FFE001FFF00
7FFE001FFF00
7FFE001FFF00
7FFE001FFF00
7FFE001FFF00
7FFE001FFF00
7FFE003FFF00
FFFE003FFF00
FFFF003FFF80
FFFF003FFF80
7FFF803FFF00
7FFFC07FFF00
7FFFE07FFF00
7FFFFEFFFE00
7FFFFFFFFE00
7FFFFFFFFE00
7FFFFFFFFC00
7FFFFFFFFC00
7FFFFFFFFC00
3FFFFFFFF800
3FFFFFFFF800
3FFFFFFFF800
1FFFFFFFF000
1FFFFFFFF000
1FFFFFFFE000
0FFFFFFFC000
07FFFFFFC000
07FFFFFF8000
03FFFFFF0000
03FFFFFE0000
01FFFFFC0000
00FFFFF80000
003FFFF80000
0007FFE00000
000040000000
ENDCHAR
STARTCHAR 00FB
ENCODING 251
SWIDTH 540 0
DWIDTH 42 0
BBX 41 66 1 1
BITMAP
000007C00000
00001FE00000
00003FF00000
0000FFFC0000
0001FFFE0000
0003FFFF0000
0007FFFF8000
000FFFFFC000
001FFC7FE000
001FF83FE000
000FF01FC000
0007800F8000
000000000000
000000000000
07F000000000
07FF000FFF00
07FF800FFF00
07FF801FFF00
0FFF000FFF00
0FFF000FFF00
0FFE000FFF00
0FFF0007FF00
1FFF000FFF00
1FFE000FFF00
1FFE000FFF00
1FFE000FFF00
3FFE000FFF00
3FFE000FFF00
3FFE000FFF00
3FFE000FFF00
3FFE000FFF00
7FFE001FFF00
7FFE001FFF00
7FFE001FFF00
7FFE001FFF00
7FFE001FFF00
7FFE001FFF00
7FFE003FFF00
FFFE003FFF00
FFFF003FFF80
FFFF003FFF80
7FFF803FFF00
7FFFC07FFF00
7FFFE07FFF00
7FFFFEFFFE00
7FFFFFFFFE00
7FFFFFFFFE00
7FFFFFFFFC00
7FFFFFFFFC00
7FFFFFFFFC00
3FFFFFFFF800
3FFFFFFFF800
3FFFFFFFF800
1FFFFFFFF000
1FFFFFFFF000
1FFFFFFFE000
0FFFFFFFC000
07FFFFFFC000
07FFFFFF8000
03FFFFFF0000
03FFFFFE0000
01FFFFFC0000
00FFFFF80000
003FFFF80000
0007FFE00000
000040000000
ENDCHAR
STARTCHAR 00FC
ENCODING 252
SWIDTH 540 0
DWIDTH 42 0
BBX 41 62 1 1
BITMAP
0003E00E0000
0007F03F8000
0007F83F8000
000FF83FC000
0007F83FC000
0007F83FC000
0003F03FC000
0001E01F0000
0000000C0000
000000000000
07F000000000
07FF000FFF00
07FF800FFF00
07FF801FFF00
0FFF000FFF00
0FFF000FFF00
0FFE000FFF00
0FFF0007FF00
1FFF000FFF00
1FFE000FFF00
1FFE000FFF00
1FFE000FFF00
3FFE000FFF00
3FFE000FFF00
3FFE000FFF00
3FFE000FFF00
3FFE000FFF00
7FFE001FFF00
7FFE001FFF00
7FFE001FFF00
7FFE001FFF00
7FFE001FFF00
7FFE001FFF00
7FFE003FFF00
FFFE003FFF00
FFFF003FFF80
FFFF003FFF80
7FFF803FFF00
7FFFC07FFF00
7FFFE07FFF00
7FFFFEFFFE00
7FFFFFFFFE00
7FFFFFFFFE00
7FFFFFFFFC00
7FFFFFFFFC00
7FFFFFFFFC00
3FFFFFFFF800
3FFFFFFFF800
3FFFFFFFF800
1FFFFFFFF000
1FFFFFFFF000
1FFFFFFFE000
0FFFFFFFC000
07FFFFFFC000
07FFFFFF8000
03FFFFFF0000
03FFFFFE0000
01FFFFFC0000
00FFFFF80000
003FFFF80000
0007FFE00000
000040000000
ENDCHAR
STARTCHAR 00FD
ENCODING 253
SWIDTH 604 0
DWIDTH 47 0
BBX 45 67 1 0
BITMAP
0000003FF000
0000007FF000
000000FFE000
000000FFC000
000001FFC000
000001FF8000
000003FF0000
000003FE0000
000007FC0000
000007F80000
00000FF80000
000001F00000
000000000000
000000000000
000000003FF8
00000000FFF8
00780000FFF8
07F80000FFF0
3FFC0001FFE0
FFFE0001FFF0
FFFE0003FFE0
7FFF0003FFE0
7FFF0007FFC0
3FFF8007FFC0
3FFF8007FF80
3FFFC00FFF80
1FFFC01FFF00
1FFFE01FFF00
0FFFE03FFE00
07FFE03FFE00
07FFF07FFC00
03FFF07FFC00
03FFF8FFF800
01FFF8FFF800
01FFFDFFF000
00FFFDFFF000
00FFFFFFE000
007FFFFFE000
007FFFFFC000
003FFFFFC000
003FFFFF8000
001FFFFF8000
001FFFFF8000
000FFFFF0000
000FFFFF0000
0007FFFE0000
0007FFFE0000
0003FFFC0000
0003FFFC0000
0001FFF80000
0000FFF80000
0000FFF80000
00007FF80000
00007FF80000
00007FF80000
00007FF80000
00007FF80000
00007FF80000
00007FF80000
00007FFC0000
00007FFC0000
00007FFC0000
00007FFC0000
00007FFC0000
00007FFC0000
00007FF80000
00003F800000
ENDCHAR
STARTCHAR 00FE
ENCODING 254
SWIDTH 501 0
DWIDTH 39 0
BBX 37 54 1 0
BITMAP
0780000000
FFFC000000
FFFC000000
FFFC000000
FFFC000000
FFFC000000
FFFC000000
FFFC800000
FFFFF00000
7FFFFF8000
7FFFFFE000
7FFFFFF800
7FFFFFFC00
7FFFFFFE00
7FFFFFFF00
7FFFFFFF00
7FFFFFFF80
7FFFFFFF80
7FFFFFFFC0
7FFC07FFC0
7FFC01FFC0
7FFE00FFE0
7FFE007FE0
7FFE007FE0
7FFE007FF0
7FFE007FF0
3FFE007FF0
3FFE007FF0
3FFE00FFF0
3FFE00FFF0
3FFF00FFF0
3FFF01FFF0
3FFF01FFF0
3FFF03FFF0
3FFF8FFFF8
3FFFFFFFF8
3FFFFFFFF8
3FFFFFFFF0
3FFFFFFFE0
3FFFFFFFC0
3FFFFFFF80
1FFFFFFF00
3FFFFFFC00
3FFFFF8000
3FFFC00000
3FFFC00000
1FFFC00000
1FFFC00000
1FFFC00000
1FFFC00000
1FFFC00000
1FFFC00000
1FFFC00000
0FFF800000
ENDCHAR
STARTCHAR 00FF
ENCODING 255
SWIDTH 604 0
DWIDTH 47 0
BBX 45 63 1 0
BITMAP
0001C01F0000
0003F03F8000
0007F83FC000
0007F83FC000
000FF83FC000
000FF83F8000
0007F03F8000
0003F01F0000
000040000000
000000000000
000000003FF8
00000000FFF8
00780000FFF8
07F80000FFF0
3FFC0001FFE0
FFFE0001FFF0
FFFE0003FFE0
7FFF0003FFE0
7FFF0007FFC0
3FFF8007FFC0
3FFF8007FF80
3FFFC00FFF80
1FFFC01FFF00
1FFFE01FFF00
0FFFE03FFE00
07FFE03FFE00
07FFF07FFC00
03FFF07FFC00
03FFF8FFF800
01FFF8FFF800
01FFFDFFF000
00FFFDFFF000
00FFFFFFE000
007FFFFFE000
007FFFFFC000
003FFFFFC000
003FFFFF8000
001FFFFF8000
001FFFFF8000
000FFFFF0000
000FFFFF0000
0007FFFE0000
0007FFFE0000
0003FFFC0000
0003FFFC0000
0001FFF80000
0000FFF80000
0000FFF80000
00007FF80000
00007FF80000
00007FF80000
00007FF80000
00007FF80000
00007FF80000
00007FF80000
00007FFC0000
00007FFC0000
00007FFC0000
00007FFC0000
00007FFC0000
00007FFC0000
00007FF80000
00003F800000
ENDCHAR
STARTCHAR 0100
ENCODING 256
SWIDTH 630 0
DWIDTH 49 0
BBX 47 65 1 -2
BITMAP
000008080000
0003FFFFF800
0003FFFFF800
0003FFFFF800
0003FFFFF800
0003FFFFF800
0003FFFFF800
0000F0000000
000000000000
000000000000
000000300000
000003F80000
000007FC0000
000007FC0000
000007FC0000
00000FFE0000
00000FFE0000
00001FFE0000
00001FFE0000
00001FFF0000
00003FFF0000
00003FFF0000
00003FFF0000
00007FFF8000
00007FFF8000
0000FFFF8000
0000FFFF8000
0000FFFFC000
0001FFFFC000
0001FFFFC000
0001FFFFE000
0003FFFFE000
0003FFFFE000
0007FFFFF000
0007FFFFF000
000FFFFFF000
000FFFFFF000
000FFFFFF800
001FF3FFF800
001FE1FFF800
003FE1FFFC00
003FC0FFFC00
007F80FFFC00
007F80FFFE00
00FF007FFE00
00FF00FFFE00
00FF0FFFFF00
01FFFFFFFF00
01FFFFFFFF80
03FFFFFFFF80
03FFFFFFFF80
07FFFFFFFFC0
07FFFC7FFFC0
0FFFC07FFFE0
0FFF807FFFE0
0FFF007FFFE0
1FFF003FFFF0
1FFF003FFFF0
3FFE003FFFF8
3FFE001FFFF8
7FFE001FFFFC
7FFE001FFFFC
7FFE000FFFFE
FFF8000F0004
F80000000000
ENDCHAR
STARTCHAR 0101
ENCODING 257
SWIDTH 630 0
DWIDTH 49 0
BBX 47 65 1 -2
BITMAP
000008080000
0003FFFFF800
0003FFFFF800
0003FFFFF800
0003FFFFF800
0003FFFFF800
0003FFFFF800
0000F0000000
000000000000
000000000000
000000300000
000003F80000
000007FC0000
000007FC0000
000007FC0000
00000FFE0000
00000FFE0000
00001FFE0000
00001FFE0000
00001FFF0000
00003FFF0000
00003FFF0000
00003FFF0000
00007FFF8000
00007FFF8000
0000FFFF8000
0000FFFF8000
0000FFFFC000
0001FFFFC000
0001FFFFC000
0001FFFFE000
0003FFFFE000
0003FFFFE000
0007FFFFF000
0007FFFFF000
000FFFFFF000
000FFFFFF000
000FFFFFF800
001FF3FFF800
001FE1FFF800
003FE1FFFC00
003FC0FFFC00
007F80FFFC00
007F80FFFE00
00FF007FFE00
00FF00FFFE00
00FF0FFFFF00
01FFFFFFFF00
01FFFFFFFF80
03FFFFFFFF80
03FFFFFFFF80
07FFFFFFFFC0
07FFFC7FFFC0
0FFFC07FFFE0
0FFF807FFFE0
0FFF007FFFE0
1FFF003FFFF0
1FFF003FFFF0
3FFE003FFFF8
3FFE001FFFF8
7FFE001FFFFC
7FFE001FFFFC
7FFE000FFFFE
FFF8000F0004
F80000000000
ENDCHAR
STARTCHAR 0102
ENCODING 258
SWIDTH 630 0
DWIDTH 49 0
BBX 47 69 1 -2
BITMAP
0007E003F800
0007F007F800
0003F007F000
0003F80FF000
0003FFFFF000
0001FFFFE000
0001FFFFE000
0001FFFFC000
0000FFFF8000
00003FFF0000
00001FFE0000
000007F00000
000000000000
000000000000
000000300000
000003F80000
000007FC0000
000007FC0000
000007FC0000
00000FFE0000
00000FFE0000
00001FFE0000
00001FFE0000
00001FFF0000
00003FFF0000
00003FFF0000
00003FFF0000
00007FFF8000
00007FFF8000
0000FFFF8000
0000FFFF8000
0000FFFFC000
0001FFFFC000
0001FFFFC000
0001FFFFE000
0003FFFFE000
0003FFFFE000
0007FFFFF000
0007FFFFF000
000FFFFFF000
000FFFFFF000
000FFFFFF800
001FF3FFF800
001FE1FFF800
003FE1FFFC00
003FC0FFFC00
007F80FFFC00
007F80FFFE00
00FF007FFE00
00FF00FFFE00
00FF0FFFFF00
01FFFFFFFF00
01FFFFFFFF80
03FFFFFFFF80
03FFFFFFFF80
07FFFFFFFFC0
07FFFC7FFFC0
0FFFC07FFFE0
0FFF807FFFE0
0FFF007FFFE0
1FFF003FFFF0
1FFF003FFFF0
3FFE003FFFF8
3FFE001FFFF8
7FFE001FFFFC
7FFE001FFFFC
7FFE000FFFFE
FFF8000F0004
F80000000000
ENDCHAR
STARTCHAR 0103
ENCODING 259
SWIDTH 630 0
DWIDTH 49 0
BBX 47 69 1 -2
BITMAP
0007E003F800
0007F007F800
0003F007F000
0003F80FF000
0003FFFFF000
0001FFFFE000
0001FFFFE000
0001FFFFC000
0000FFFF8000
00003FFF0000
00001FFE0000
000007F00000
000000000000
000000000000
000000300000
000003F80000
000007FC0000
000007FC0000
000007FC0000
00000FFE0000
00000FFE0000
00001FFE0000
00001FFE0000
00001FFF0000
00003FFF0000
00003FFF0000
00003FFF0000
00007FFF8000
00007FFF8000
0000FFFF8000
0000FFFF8000
0000FFFFC000
0001FFFFC000
0001FFFFC000
0001FFFFE000
0003FFFFE000
0003FFFFE000
0007FFFFF000
0007FFFFF000
000FFFFFF000
000FFFFFF000
000FFFFFF800
001FF3FFF800
001FE1FFF800
003FE1FFFC00
003FC0FFFC00
007F80FFFC00
007F80FFFE00
00FF007FFE00
00FF00FFFE00
00FF0FFFFF00
01FFFFFFFF00
01FFFFFFFF80
03FFFFFFFF80
03FFFFFFFF80
07FFFFFFFFC0
07FFFC7FFFC0
0FFFC07FFFE0
0FFF807FFFE0
0FFF007FFFE0
1FFF003FFFF0
1FFF003FFFF0
3FFE003FFFF8
3FFE001FFFF8
7FFE001FFFFC
7FFE001FFFFC
7FFE000FFFFE
FFF8000F0004
F80000000000
ENDCHAR
STARTCHAR 0104
ENCODING 260
SWIDTH 630 0
DWIDTH 49 0
BBX 47 66 1 -13
BITMAP
000000300000
000003F80000
000007FC0000
000007FC0000
000007FC0000
00000FFE0000
00000FFE0000
00001FFE0000
00001FFE0000
00001FFF0000
00003FFF0000
00003FFF0000
00003FFF0000
00007FFF8000
00007FFF8000
0000FFFF8000
0000FFFF8000
0000FFFFC000
0001FFFFC000
0001FFFFC000
0001FFFFE000
0003FFFFE000
0003FFFFE000
0007FFFFF000
0007FFFFF000
000FFFFFF000
000FFFFFF000
000FFFFFF800
001FF3FFF800
001FE1FFF800
003FE1FFFC00
003FC0FFFC00
007F80FFFC00
007F80FFFE00
00FF007FFE00
00FF00FFFE00
00FF0FFFFF00
01FFFFFFFF00
01FFFFFFFF80
03FFFFFFFF80
03FFFFFFFF80
07FFFFFFFFC0
07FFFC7FFFC0
0FFFC07FFFE0
0FFF807FFFE0
0FFF007FFFE0
1FFF003FFFF0
1FFF003FFFF0
3FFE003FFFF8
3FFE001FFFF8
7FFE001FFFFC
7FFE001FFFFC
7FFE001FFFFE
FFF8003F0004
F800003F0000
0000007F0000
000000FE0000
000000FE0000
000001FE0000
000001FF01F0
000001FFFFF0
000000FFFFF0
000000FFFFF0
000000FFFFF0
0000007FFFF0
0000000FFFC0
ENDCHAR
STARTCHAR 0105
ENCODING 261
SWIDTH 630 0
DWIDTH 49 0
BBX 47 66 1 -13
BITMAP
000000300000
000003F80000
000007FC0000
000007FC0000
000007FC0000
00000FFE0000
00000FFE0000
00001FFE0000
00001FFE0000
00001FFF0000
00003FFF0000
00003FFF0000
00003FFF0000
00007FFF8000
00007FFF8000
0000FFFF8000
0000FFFF8000
0000FFFFC000
0001FFFFC000
0001FFFFC000
0001FFFFE000
0003FFFFE000
0003FFFFE000
0007FFFFF000
0007FFFFF000
000FFFFFF000
000FFFFFF000
000FFFFFF800
001FF3FFF800
001FE1FFF800
003FE1FFFC00
003FC0FFFC00
007F80FFFC00
007F80FFFE00
00FF007FFE00
00FF00FFFE00
00FF0FFFFF00
01FFFFFFFF00
01FFFFFFFF80
03FFFFFFFF80
03FFFFFFFF80
07FFFFFFFFC0
07FFFC7FFFC0
0FFFC07FFFE0
0FFF807FFFE0
0FFF007FFFE0
1FFF003FFFF0
1FFF003FFFF0
3FFE003FFFF8
3FFE001FFFF8
7FFE001FFFFC
7FFE001FFFFC
7FFE001FFFFE
FFF8003F0004
F800003F0000
0000007F0000
000000FE0000
000000FE0000
000001FE0000
000001FF01F0
000001FFFFF0
000000FFFFF0
000000FFFFF0
000000FFFFF0
0000007FFFF0
0000000FFFC0
ENDCHAR
STARTCHAR 0106
ENCODING 262
SWIDTH 488 0
DWIDTH 38 0
BBX 36 66 1 1
BITMAP
0000007FE0
000000FFE0
000001FFC0
000001FF80
000003FF80
000003FF00
000007FE00
000007FC00
00000FF800
00000FF000
00001FF000
000003E000
0000000000
0000000000
00001F8000
0000FFF800
0007FFFE00
001FFFFF80
00FFFFFFC0
01FFFFFFE0
03FFFFFFF0
07FFFFFFF0
0FFFFFFFF0
0FFFFFFFF0
1FFFFFFFF0
1FFFFFFFF0
3FFFFFFFE0
3FFFFFFFE0
7FFFFFFEE0
7FFFFE0200
7FFFF00000
7FFFE00000
FFFFC00000
FFFF800000
FFFF800000
7FFF000000
FFFF000000
7FFF000000
FFFF000000
FFFF000000
7FFF000000
FFFF800000
FFFF800000
FFFFE003E0
FFFFF1FFE0
7FFFFFFFE0
7FFFFFFFE0
7FFFFFFFE0
7FFFFFFFE0
7FFFFFFFE0
3FFFFFFFE0
3FFFFFFFE0
3FFFFFFFE0
1FFFFFFFE0
1FFFFFFFE0
1FFFFFFFE0
0FFFFFFFE0
0FFFFFFFE0
07FFFFFFC0
07FFFFFF80
03FFFFFF00
01FFFFFF00
01FFFFFE00
001FFFF800
000FFFE000
00003F8000
ENDCHAR
STARTCHAR 0107
ENCODING 263
SWIDTH 488 0
DWIDTH 38 0
BBX 36 66 1 1
BITMAP
0000007FE0
000000FFE0
000001FFC0
000001FF80
000003FF80
000003FF00
000007FE00
000007FC00
00000FF800
00000FF000
00001FF000
000003E000
0000000000
0000000000
00001F8000
0000FFF800
0007FFFE00
001FFFFF80
00FFFFFFC0
01FFFFFFE0
03FFFFFFF0
07FFFFFFF0
0FFFFFFFF0
0FFFFFFFF0
1FFFFFFFF0
1FFFFFFFF0
3FFFFFFFE0
3FFFFFFFE0
7FFFFFFEE0
7FFFFE0200
7FFFF00000
7FFFE00000
FFFFC00000
FFFF800000
FFFF800000
7FFF000000
FFFF000000
7FFF000000
FFFF000000
FFFF000000
7FFF000000
FFFF800000
FFFF800000
FFFFE003E0
FFFFF1FFE0
7FFFFFFFE0
7FFFFFFFE0
7FFFFFFFE0
7FFFFFFFE0
7FFFFFFFE0
3FFFFFFFE0
3FFFFFFFE0
3FFFFFFFE0
1FFFFFFFE0
1FFFFFFFE0
1FFFFFFFE0
0FFFFFFFE0
0FFFFFFFE0
07FFFFFFC0
07FFFFFF80
03FFFFFF00
01FFFFFF00
01FFFFFE00
001FFFF800
000FFFE000
00003F8000
ENDCHAR
STARTCHAR 0108
ENCODING 264
SWIDTH 488 0
DWIDTH 38 0
BBX 36 66 1 1
BITMAP
00000F8000
00003FC000
00007FF000
0001FFF800
0003FFFC00
0007FFFE00
000FFFFF00
001FFFFF80
001FFCFFC0
001FF07FC0
001FE03FC0
0007001F00
0000000000
0000000000
00001F8000
0000FFF800
0007FFFE00
001FFFFF80
00FFFFFFC0
01FFFFFFE0
03FFFFFFF0
07FFFFFFF0
0FFFFFFFF0
0FFFFFFFF0
1FFFFFFFF0
1FFFFFFFF0
3FFFFFFFE0
3FFFFFFFE0
7FFFFFFEE0
7FFFFE0200
7FFFF00000
7FFFE00000
FFFFC00000
FFFF800000
FFFF800000
7FFF000000
FFFF000000
7FFF000000
FFFF000000
FFFF000000
7FFF000000
FFFF800000
FFFF800000
FFFFE003E0
FFFFF1FFE0
7FFFFFFFE0
7FFFFFFFE0
7FFFFFFFE0
7FFFFFFFE0
7FFFFFFFE0
3FFFFFFFE0
3FFFFFFFE0
3FFFFFFFE0
1FFFFFFFE0
1FFFFFFFE0
1FFFFFFFE0
0FFFFFFFE0
0FFFFFFFE0
07FFFFFFC0
07FFFFFF80
03FFFFFF00
01FFFFFF00
01FFFFFE00
001FFFF800
000FFFE000
00003F8000
ENDCHAR
STARTCHAR 0109
ENCODING 265
SWIDTH 488 0
DWIDTH 38 0
BBX 36 66 1 1
BITMAP
00000F8000
00003FC000
00007FF000
0001FFF800
0003FFFC00
0007FFFE00
000FFFFF00
001FFFFF80
001FFCFFC0
001FF07FC0
001FE03FC0
0007001F00
0000000000
0000000000
00001F8000
0000FFF800
0007FFFE00
001FFFFF80
00FFFFFFC0
01FFFFFFE0
03FFFFFFF0
07FFFFFFF0
0FFFFFFFF0
0FFFFFFFF0
1FFFFFFFF0
1FFFFFFFF0
3FFFFFFFE0
3FFFFFFFE0
7FFFFFFEE0
7FFFFE0200
7FFFF00000
7FFFE00000
FFFFC00000
FFFF800000
FFFF800000
7FFF000000
FFFF000000
7FFF000000
FFFF000000
FFFF000000
7FFF000000
FFFF800000
FFFF800000
FFFFE003E0
FFFFF1FFE0
7FFFFFFFE0
7FFFFFFFE0
7FFFFFFFE0
7FFFFFFFE0
7FFFFFFFE0
3FFFFFFFE0
3FFFFFFFE0
3FFFFFFFE0
1FFFFFFFE0
1FFFFFFFE0
1FFFFFFFE0
0FFFFFFFE0
0FFFFFFFE0
07FFFFFFC0
07FFFFFF80
03FFFFFF00
01FFFFFF00
01FFFFFE00
001FFFF800
000FFFE000
00003F8000
ENDCHAR
STARTCHAR 010A
ENCODING 266
SWIDTH 488 0
DWIDTH 38 0
BBX 36 62 1 1
BITMAP
00000E0000
00001F8000
00003F8000
00003FC000
00007FC000
00007FC000
00003F8000
00001F8000
0000060000
0000000000
00001F8000
0000FFF800
0007FFFE00
001FFFFF80
00FFFFFFC0
01FFFFFFE0
03FFFFFFF0
07FFFFFFF0
0FFFFFFFF0
0FFFFFFFF0
1FFFFFFFF0
1FFFFFFFF0
3FFFFFFFE0
3FFFFFFFE0
7FFFFFFEE0
7FFFFE0200
7FFFF00000
7FFFE00000
FFFFC00000
FFFF800000
FFFF800000
7FFF000000
FFFF000000
7FFF000000
FFFF000000
FFFF000000
7FFF000000
FFFF800000
FFFF800000
FFFFE003E0
FFFFF1FFE0
7FFFFFFFE0
7FFFFFFFE0
7FFFFFFFE0
7FFFFFFFE0
7FFFFFFFE0
3FFFFFFFE0
3FFFFFFFE0
3FFFFFFFE0
1FFFFFFFE0
1FFFFFFFE0
1FFFFFFFE0
0FFFFFFFE0
0FFFFFFFE0
07FFFFFFC0
07FFFFFF80
03FFFFFF00
01FFFFFF00
01FFFFFE00
001FFFF800
000FFFE000
00003F8000
ENDCHAR
STARTCHAR 010B
ENCODING 267
SWIDTH 488 0
DWIDTH 38 0
BBX 36 62 1 1
BITMAP
00000E0000
00001F8000
00003F8000
00003FC000
00007FC000
00007FC000
00003F8000
00001F8000
0000060000
0000000000
00001F8000
0000FFF800
0007FFFE00
001FFFFF80
00FFFFFFC0
01FFFFFFE0
03FFFFFFF0
07FFFFFFF0
0FFFFFFFF0
0FFFFFFFF0
1FFFFFFFF0
1FFFFFFFF0
3FFFFFFFE0
3FFFFFFFE0
7FFFFFFEE0
7FFFFE0200
7FFFF00000
7FFFE00000
FFFFC00000
FFFF800000
FFFF800000
7FFF000000
FFFF000000
7FFF000000
FFFF000000
FFFF000000
7FFF000000
FFFF800000
FFFF800000
FFFFE003E0
FFFFF1FFE0
7FFFFFFFE0
7FFFFFFFE0
7FFFFFFFE0
7FFFFFFFE0
7FFFFFFFE0
3FFFFFFFE0
3FFFFFFFE0
3FFFFFFFE0
1FFFFFFFE0
1FFFFFFFE0
1FFFFFFFE0
0FFFFFFFE0
0FFFFFFFE0
07FFFFFFC0
07FFFFFF80
03FFFFFF00
01FFFFFF00
01FFFFFE00
001FFFF800
000FFFE000
00003F8000
ENDCHAR
STARTCHAR 010C
ENCODING 268
SWIDTH 488 0
DWIDTH 38 0
BBX 36 66 1 1
BITMAP
000F801F00
001FC07FC0
001FF0FFC0
001FF9FFC0
001FFFFF80
000FFFFF00
0007FFFE00
0001FFFC00
0000FFF800
00007FE000
00003FC000
00000F0000
0000000000
0000000000
00001F8000
0000FFF800
0007FFFE00
001FFFFF80
00FFFFFFC0
01FFFFFFE0
03FFFFFFF0
07FFFFFFF0
0FFFFFFFF0
0FFFFFFFF0
1FFFFFFFF0
1FFFFFFFF0
3FFFFFFFE0
3FFFFFFFE0
7FFFFFFEE0
7FFFFE0200
7FFFF00000
7FFFE00000
FFFFC00000
FFFF800000
FFFF800000
7FFF000000
FFFF000000
7FFF000000
FFFF000000
FFFF000000
7FFF000000
FFFF800000
FFFF800000
FFFFE003E0
FFFFF1FFE0
7FFFFFFFE0
7FFFFFFFE0
7FFFFFFFE0
7FFFFFFFE0
7FFFFFFFE0
3FFFFFFFE0
3FFFFFFFE0
3FFFFFFFE0
1FFFFFFFE0
1FFFFFFFE0
1FFFFFFFE0
0FFFFFFFE0
0FFFFFFFE0
07FFFFFFC0
07FFFFFF80
03FFFFFF00
01FFFFFF00
01FFFFFE00
001FFFF800
000FFFE000
00003F8000
ENDCHAR
STARTCHAR 010D
ENCODING 269
SWIDTH 488 0
DWIDTH 38 0
BBX 36 66 1 1
BITMAP
000F801F00
001FC07FC0
001FF0FFC0
001FF9FFC0
001FFFFF80
000FFFFF00
0007FFFE00
0001FFFC00
0000FFF800
00007FE000
00003FC000
00000F0000
0000000000
0000000000
00001F8000
0000FFF800
0007FFFE00
001FFFFF80
00FFFFFFC0
01FFFFFFE0
03FFFFFFF0
07FFFFFFF0
0FFFFFFFF0
0FFFFFFFF0
1FFFFFFFF0
1FFFFFFFF0
3FFFFFFFE0
3FFFFFFFE0
7FFFFFFEE0
7FFFFE0200
7FFFF00000
7FFFE00000
FFFFC00000
FFFF800000
FFFF800000
7FFF000000
FFFF000000
7FFF000000
FFFF000000
FFFF000000
7FFF000000
FFFF800000
FFFF800000
FFFFE003E0
FFFFF1FFE0
7FFFFFFFE0
7FFFFFFFE0
7FFFFFFFE0
7FFFFFFFE0
7FFFFFFFE0
3FFFFFFFE0
3FFFFFFFE0
3FFFFFFFE0
1FFFFFFFE0
1FFFFFFFE0
1FFFFFFFE0
0FFFFFFFE0
0FFFFFFFE0
07FFFFFFC0
07FFFFFF80
03FFFFFF00
01FFFFFF00
01FFFFFE00
001FFFF800
000FFFE000
00003F8000
ENDCHAR
STARTCHAR 010E
ENCODING 270
SWIDTH 462 0
DWIDTH 36 0
BBX 34 68 1 0
BITMAP
00007E0000
0C01FE0000
7F03FE0000
FF87FE0000
FFEFFC0000
FFFFFC0000
3FFFF80000
1FFFF00000
0FFFE00000
03FFC00000
01FF000000
007E000000
0018000000
0000000000
0000000000
0FFE000000
3FFF800000
FFFFF00000
FFFFFE0000
FFFFFF0000
FFFFFF8000
FFFFFFC000
FFFFFFE000
FFFFFFF000
FFFFFFF800
FFFFFFF800
FFFFFFFC00
FFFFFFFE00
FFFFFFFE00
FFFF3FFF00
7FFE0FFF00
7FFE03FF80
7FFE01FF80
7FFC00FF80
7FFC00FFC0
7FFC01FFC0
7FFE01FFC0
7FFE01FFC0
7FFE01FFC0
3FFE01FFC0
3FFE03FF80
3FFE03FF80
3FFE07FF80
3FFE0FFF00
3FFF0FFF00
3FFF1FFE00
1FFF7FFE00
1FFFFFFC00
1FFFFFFC00
1FFFFFF800
1FFFFFF800
0FFFFFF000
0FFFFFF000
0FFFFFE000
0FFFFFE000
0FFFFFC000
07FFFF8000
07FFFF0000
07FFFF0000
07FFFE0000
03FFFC0000
03FFF80000
03FFE00000
03FF800000
01FE000000
01F8000000
01E0000000
0180000000
ENDCHAR
STARTCHAR 010F
ENCODING 271
SWIDTH 462 0
DWIDTH 36 0
BBX 34 68 1 0
BITMAP
00007E0000
0C01FE0000
7F03FE0000
FF87FE0000
FFEFFC0000
FFFFFC0000
3FFFF80000
1FFFF00000
0FFFE00000
03FFC00000
01FF000000
007E000000
0018000000
0000000000
0000000000
0FFE000000
3FFF800000
FFFFF00000
FFFFFE0000
FFFFFF0000
FFFFFF8000
FFFFFFC000
FFFFFFE000
FFFFFFF000
FFFFFFF800
FFFFFFF800
FFFFFFFC00
FFFFFFFE00
FFFFFFFE00
FFFF3FFF00
7FFE0FFF00
7FFE03FF80
7FFE01FF80
7FFC00FF80
7FFC00FFC0
7FFC01FFC0
7FFE01FFC0
7FFE01FFC0
7FFE01FFC0
3FFE01FFC0
3FFE03FF80
3FFE03FF80
3FFE07FF80
3FFE0FFF00
3FFF0FFF00
3FFF1FFE00
1FFF7FFE00
1FFFFFFC00
1FFFFFFC00
1FFFFFF800
1FFFFFF800
0FFFFFF000
0FFFFFF000
0FFFFFE000
0FFFFFE000
0FFFFFC000
07FFFF8000
07FFFF0000
07FFFF0000
07FFFE0000
03FFFC0000
03FFF80000
03FFE00000
03FF800000
01FE000000
01F8000000
01E0000000
0180000000
ENDCHAR
STARTCHAR 0110
ENCODING 272
SWIDTH 488 0
DWIDTH 38 0
BBX 37 53 0 0
BITMAP
01FFC00000
03FFF80000
0FFFFE0000
0FFFFFC000
0FFFFFF000
0FFFFFF800
0FFFFFFC00
0FFFFFFC00
0FFFFFFE00
0FFFFFFF00
0FFFFFFF80
0FFFFFFF80
0FFFFFFFC0
0FFFFFFFE0
0FFFE7FFE0
0FFFE0FFF0
0FFFC03FF0
0FFFFE1FF0
0FFFFE1FF8
0FFFFE1FF8
FFFFFE1FF8
FFFFFE1FF8
FFFFFF1FF8
FFFFFF3FF8
FFFFFF3FF8
FFFFFF3FF8
7FFFFF7FF0
7FFFE07FF0
7FFFE0FFF0
7FFFE1FFE0
1BFFE3FFE0
03FFF7FFC0
03FFFFFFC0
03FFFFFF80
01FFFFFF80
01FFFFFF00
01FFFFFF00
01FFFFFE00
01FFFFFE00
00FFFFFC00
00FFFFF800
00FFFFF800
00FFFFF000
007FFFE000
007FFFC000
007FFF8000
007FFF0000
003FFE0000
003FF80000
003FE00000
003F800000
001E000000
0018000000
ENDCHAR
STARTCHAR 0111
ENCODING 273
SWIDTH 488 0
DWIDTH 38 0
BBX 37 53 0 0
BITMAP
01FFC00000
03FFF80000
0FFFFE0000
0FFFFFC000
0FFFFFF000
0FFFFFF800
0FFFFFFC00
0FFFFFFC00
0FFFFFFE00
0FFFFFFF00
0FFFFFFF80
0FFFFFFF80
0FFFFFFFC0
0FFFFFFFE0
0FFFE7FFE0
0FFFE0FFF0
0FFFC03FF0
0FFFFE1FF0
0FFFFE1FF8
0FFFFE1FF8
FFFFFE1FF8
FFFFFE1FF8
FFFFFF1FF8
FFFFFF3FF8
FFFFFF3FF8
FFFFFF3FF8
7FFFFF7FF0
7FFFE07FF0
7FFFE0FFF0
7FFFE1FFE0
1BFFE3FFE0
03FFF7FFC0
03FFFFFFC0
03FFFFFF80
01FFFFFF80
01FFFFFF00
01FFFFFF00
01FFFFFE00
01FFFFFE00
00FFFFFC00
00FFFFF800
00FFFFF800
00FFFFF000
007FFFE000
007FFFC000
007FFF8000
007FFF0000
003FFE0000
003FF80000
003FE00000
003F800000
001E000000
0018000000
ENDCHAR
STARTCHAR 0112
ENCODING 274
SWIDTH 488 0
DWIDTH 38 0
BBX 36 64 1 0
BITMAP
00001E0000
007FFE0000
7FFFFE0000
FFFFFE0000
FFFFFE0000
FFFFFE0000
7FFFF80000
7FFC000000
7F00000000
0000000000
00FFFF0000
0FFFFFF000
3FFFFFF800
7FFFFFF000
FFFFFFF000
FFFFFFF000
7FFFFFF000
7FFFFFE000
3FFFFFE000
3FFFFFE000
3FFFFFE000
3FFFFFE000
1FFFFFC000
1FFFFFE000
1FFFFFE000
1FFFFFC000
1FFFC00000
1FFF800000
0FFF000000
0FFF800000
0FFF800000
0FFF804000
0FFFCFE000
0FFFFFC000
07FFFFC000
07FFFFC000
07FFFFC000
07FFFFC000
07FFFFE000
03FFFFE000
03FFF00000
03FFE00000
03FFE00000
03FFE00380
03FFFFFF80
01FFFFFFC0
03FFFFFFC0
01FFFFFFC0
01FFFFFFC0
01FFFFFFE0
01FFFFFFE0
01FFFFFFE0
01FFFFFFE0
01FFFFFFF0
01FFFFFFF0
01FFFFFFF0
00FFFFFFF0
00FFFFFFF0
00FFFFFFE0
00FFFFFE00
00FFFFF000
00FFFE0000
007FE00000
0030000000
ENDCHAR
STARTCHAR 0113
ENCODING 275
SWIDTH 488 0
DWIDTH 38 0
BBX 36 64 1 0
BITMAP
00001E0000
007FFE0000
7FFFFE0000
FFFFFE0000
FFFFFE0000
FFFFFE0000
7FFFF80000
7FFC000000
7F00000000
0000000000
00FFFF0000
0FFFFFF000
3FFFFFF800
7FFFFFF000
FFFFFFF000
FFFFFFF000
7FFFFFF000
7FFFFFE000
3FFFFFE000
3FFFFFE000
3FFFFFE000
3FFFFFE000
1FFFFFC000
1FFFFFE000
1FFFFFE000
1FFFFFC000
1FFFC00000
1FFF800000
0FFF000000
0FFF800000
0FFF800000
0FFF804000
0FFFCFE000
0FFFFFC000
07FFFFC000
07FFFFC000
07FFFFC000
07FFFFC000
07FFFFE000
03FFFFE000
03FFF00000
03FFE00000
03FFE00000
03FFE00380
03FFFFFF80
01FFFFFFC0
03FFFFFFC0
01FFFFFFC0
01FFFFFFC0
01FFFFFFE0
01FFFFFFE0
01FFFFFFE0
01FFFFFFE0
01FFFFFFF0
01FFFFFFF0
01FFFFFFF0
00FFFFFFF0
00FFFFFFF0
00FFFFFFE0
00FFFFFE00
00FFFFF000
00FFFE0000
007FE00000
0030000000
ENDCHAR
STARTCHAR 0114
ENCODING 276
SWIDTH 488 0
DWIDTH 38 0
BBX 36 69 1 0
BITMAP
0000060000
00007E0000
3C00FE0000
FE00FE0000
7E01FE0000
7F87FE0000
7FFFFC0000
3FFFFC0000
3FFFF80000
1FFFF00000
0FFFE00000
07FFC00000
01FF000000
0000000000
0000000000
00FFFF0000
0FFFFFF000
3FFFFFF800
7FFFFFF000
FFFFFFF000
FFFFFFF000
7FFFFFF000
7FFFFFE000
3FFFFFE000
3FFFFFE000
3FFFFFE000
3FFFFFE000
1FFFFFC000
1FFFFFE000
1FFFFFE000
1FFFFFC000
1FFFC00000
1FFF800000
0FFF000000
0FFF800000
0FFF800000
0FFF804000
0FFFCFE000
0FFFFFC000
07FFFFC000
07FFFFC000
07FFFFC000
07FFFFC000
07FFFFE000
03FFFFE000
03FFF00000
03FFE00000
03FFE00000
03FFE00380
03FFFFFF80
01FFFFFFC0
03FFFFFFC0
01FFFFFFC0
01FFFFFFC0
01FFFFFFE0
01FFFFFFE0
01FFFFFFE0
01FFFFFFE0
01FFFFFFF0
01FFFFFFF0
01FFFFFFF0
00FFFFFFF0
00FFFFFFF0
00FFFFFFE0
00FFFFFE00
00FFFFF000
00FFFE0000
007FE00000
0030000000
ENDCHAR
STARTCHAR 0115
ENCODING 277
SWIDTH 488 0
DWIDTH 38 0
BBX 36 69 1 0
BITMAP
0000060000
00007E0000
3C00FE0000
FE00FE0000
7E01FE0000
7F87FE0000
7FFFFC0000
3FFFFC0000
3FFFF80000
1FFFF00000
0FFFE00000
07FFC00000
01FF000000
0000000000
0000000000
00FFFF0000
0FFFFFF000
3FFFFFF800
7FFFFFF000
FFFFFFF000
FFFFFFF000
7FFFFFF000
7FFFFFE000
3FFFFFE000
3FFFFFE000
3FFFFFE000
3FFFFFE000
1FFFFFC000
1FFFFFE000
1FFFFFE000
1FFFFFC000
1FFFC00000
1FFF800000
0FFF000000
0FFF800000
0FFF800000
0FFF804000
0FFFCFE000
0FFFFFC000
07FFFFC000
07FFFFC000
07FFFFC000
07FFFFC000
07FFFFE000
03FFFFE000
03FFF00000
03FFE00000
03FFE00000
03FFE00380
03FFFFFF80
01FFFFFFC0
03FFFFFFC0
01FFFFFFC0
01FFFFFFC0
01FFFFFFE0
01FFFFFFE0
01FFFFFFE0
01FFFFFFE0
01FFFFFFF0
01FFFFFFF0
01FFFFFFF0
00FFFFFFF0
00FFFFFFF0
00FFFFFFE0
00FFFFFE00
00FFFFF000
00FFFE0000
007FE00000
0030000000
ENDCHAR
STARTCHAR 0116
ENCODING 278
SWIDTH 488 0
DWIDTH 38 0
BBX 36 64 1 0
BITMAP
007C000000
00FE000000
00FE000000
01FF000000
01FF000000
01FF000000
00FE000000
007C000000
0000000000
0000000000
00FFFF0000
0FFFFFF000
3FFFFFF800
7FFFFFF000
FFFFFFF000
FFFFFFF000
7FFFFFF000
7FFFFFE000
3FFFFFE000
3FFFFFE000
3FFFFFE000
3FFFFFE000
1FFFFFC000
1FFFFFE000
1FFFFFE000
1FFFFFC000
1FFFC00000
1FFF800000
0FFF000000
0FFF800000
0FFF800000
0FFF804000
0FFFCFE000
0FFFFFC000
07FFFFC000
07FFFFC000
07FFFFC000
07FFFFC000
07FFFFE000
03FFFFE000
03FFF00000
03FFE00000
03FFE00000
03FFE00380
03FFFFFF80
01FFFFFFC0
03FFFFFFC0
01FFFFFFC0
01FFFFFFC0
01FFFFFFE0
01FFFFFFE0
01FFFFFFE0
01FFFFFFE0
01FFFFFFF0
01FFFFFFF0
01FFFFFFF0
00FFFFFFF0
00FFFFFFF0
00FFFFFFE0
00FFFFFE00
00FFFFF000
00FFFE0000
007FE00000
0030000000
ENDCHAR
STARTCHAR 0117
ENCODING 279
SWIDTH 488 0
DWIDTH 38 0
BBX 36 64 1 0
BITMAP
007C000000
00FE000000
00FE000000
01FF000000
01FF000000
01FF000000
00FE000000
007C000000
0000000000
0000000000
00FFFF0000
0FFFFFF000
3FFFFFF800
7FFFFFF000
FFFFFFF000
FFFFFFF000
7FFFFFF000
7FFFFFE000
3FFFFFE000
3FFFFFE000
3FFFFFE000
3FFFFFE000
1FFFFFC000
1FFFFFE000
1FFFFFE000
1FFFFFC000
1FFFC00000
1FFF800000
0FFF000000
0FFF800000
0FFF800000
0FFF804000
0FFFCFE000
0FFFFFC000
07FFFFC000
07FFFFC000
07FFFFC000
07FFFFC000
07FFFFE000
03FFFFE000
03FFF00000
03FFE00000
03FFE00000
03FFE00380
03FFFFFF80
01FFFFFFC0
03FFFFFFC0
01FFFFFFC0
01FFFFFFC0
01FFFFFFE0
01FFFFFFE0
01FFFFFFE0
01FFFFFFE0
01FFFFFFF0
01FFFFFFF0
01FFFFFFF0
00FFFFFFF0
00FFFFFFF0
00FFFFFFE0
00FFFFFE00
00FFFFF000
00FFFE0000
007FE00000
0030000000
ENDCHAR
STARTCHAR 0118
ENCODING 280
SWIDTH 488 0
DWIDTH 38 0
BBX 36 66 1 -12
BITMAP
00FFFF0000
0FFFFFF000
3FFFFFF800
7FFFFFF000
FFFFFFF000
FFFFFFF000
7FFFFFF000
7FFFFFE000
3FFFFFE000
3FFFFFE000
3FFFFFE000
3FFFFFE000
1FFFFFC000
1FFFFFE000
1FFFFFE000
1FFFFFC000
1FFFC00000
1FFF800000
0FFF000000
0FFF800000
0FFF800000
0FFF804000
0FFFCFE000
0FFFFFC000
07FFFFC000
07FFFFC000
07FFFFC000
07FFFFC000
07FFFFE000
03FFFFE000
03FFF00000
03FFE00000
03FFE00000
03FFE00380
03FFFFFF80
01FFFFFFC0
03FFFFFFC0
01FFFFFFC0
01FFFFFFC0
01FFFFFFE0
01FFFFFFE0
01FFFFFFE0
01FFFFFFE0
01FFFFFFF0
01FFFFFFF0
01FFFFFFF0
00FFFFFFF0
00FFFFFFF0
00FFFFFFE0
00FFFFFE00
00FFFFE000
00FFFF8000
007FFF0000
00303F0000
00003F0000
00007E0000
00007E0000
0000FE0060
0000FF01F0
0000FFBFF0
0000FFFFF0
0000FFFFF0
0000FFFFF0
00007FFFF0
00007FFF80
0000010000
ENDCHAR
STARTCHAR 0119
ENCODING 281
SWIDTH 488 0
DWIDTH 38 0
BBX 36 66 1 -12
BITMAP
00FFFF0000
0FFFFFF000
3FFFFFF800
7FFFFFF000
FFFFFFF000
FFFFFFF000
7FFFFFF000
7FFFFFE000
3FFFFFE000
3FFFFFE000
3FFFFFE000
3FFFFFE000
1FFFFFC000
1FFFFFE000
1FFFFFE000
1FFFFFC000
1FFFC00000
1FFF800000
0FFF000000
0FFF800000
0FFF800000
0FFF804000
0FFFCFE000
0FFFFFC000
07FFFFC000
07FFFFC000
07FFFFC000
07FFFFC000
07FFFFE000
03FFFFE000
03FFF00000
03FFE00000
03FFE00000
03FFE00380
03FFFFFF80
01FFFFFFC0
03FFFFFFC0
01FFFFFFC0
01FFFFFFC0
01FFFFFFE0
01FFFFFFE0
01FFFFFFE0
01FFFFFFE0
01FFFFFFF0
01FFFFFFF0
01FFFFFFF0
00FFFFFFF0
00FFFFFFF0
00FFFFFFE0
00FFFFFE00
00FFFFE000
00FFFF8000
007FFF0000
00303F0000
00003F0000
00007E0000
00007E0000
0000FE0060
0000FF01F0
0000FFBFF0
0000FFFFF0
0000FFFFF0
0000FFFFF0
00007FFFF0
00007FFF80
0000010000
ENDCHAR
STARTCHAR 011A
ENCODING 282
SWIDTH 488 0
DWIDTH 38 0
BBX 36 68 1 0
BITMAP
00007E0000
0C01FE0000
7F03FE0000
FF87FE0000
FFEFFC0000
FFFFFC0000
3FFFF80000
1FFFF00000
0FFFE00000
03FFC00000
01FF000000
007E000000
0018000000
0000000000
00FFFF0000
0FFFFFF000
3FFFFFF800
7FFFFFF000
FFFFFFF000
FFFFFFF000
7FFFFFF000
7FFFFFE000
3FFFFFE000
3FFFFFE000
3FFFFFE000
3FFFFFE000
1FFFFFC000
1FFFFFE000
1FFFFFE000
1FFFFFC000
1FFFC00000
1FFF800000
0FFF000000
0FFF800000
0FFF800000
0FFF804000
0FFFCFE000
0FFFFFC000
07FFFFC000
07FFFFC000
07FFFFC000
07FFFFC000
07FFFFE000
03FFFFE000
03FFF00000
03FFE00000
03FFE00000
03FFE00380
03FFFFFF80
01FFFFFFC0
03FFFFFFC0
01FFFFFFC0
01FFFFFFC0
01FFFFFFE0
01FFFFFFE0
01FFFFFFE0
01FFFFFFE0
01FFFFFFF0
01FFFFFFF0
01FFFFFFF0
00FFFFFFF0
00FFFFFFF0
00FFFFFFE0
00FFFFFE00
00FFFFF000
00FFFE0000
007FE00000
0030000000
ENDCHAR
STARTCHAR 011B
ENCODING 283
SWIDTH 488 0
DWIDTH 38 0
BBX 36 68 1 0
BITMAP
00007E0000
0C01FE0000
7F03FE0000
FF87FE0000
FFEFFC0000
FFFFFC0000
3FFFF80000
1FFFF00000
0FFFE00000
03FFC00000
01FF000000
007E000000
0018000000
0000000000
00FFFF0000
0FFFFFF000
3FFFFFF800
7FFFFFF000
FFFFFFF000
FFFFFFF000
7FFFFFF000
7FFFFFE000
3FFFFFE000
3FFFFFE000
3FFFFFE000
3FFFFFE000
1FFFFFC000
1FFFFFE000
1FFFFFE000
1FFFFFC000
1FFFC00000
1FFF800000
0FFF000000
0FFF800000
0FFF800000
0FFF804000
0FFFCFE000
0FFFFFC000
07FFFFC000
07FFFFC000
07FFFFC000
07FFFFC000
07FFFFE000
03FFFFE000
03FFF00000
03FFE00000
03FFE00000
03FFE00380
03FFFFFF80
01FFFFFFC0
03FFFFFFC0
01FFFFFFC0
01FFFFFFC0
01FFFFFFE0
01FFFFFFE0
01FFFFFFE0
01FFFFFFE0
01FFFFFFF0
01FFFFFFF0
01FFFFFFF0
00FFFFFFF0
00FFFFFFF0
00FFFFFFE0
00FFFFFE00
00FFFFF000
00FFFE0000
007FE00000
0030000000
ENDCHAR
STARTCHAR 011C
ENCODING 284
SWIDTH 501 0
DWIDTH 39 0
BBX 37 66 1 1
BITMAP
00001E0000
00007F0000
0001FFC000
0003FFE000
000FFFF000
001FFFF800
003FFFFC00
007FFFFE00
007FF3FF00
007FC1FF00
007F80FF00
001C003C00
0000000000
0000000000
0001FFE000
0003FFFC00
000FFFFE00
001FFFFF80
001FFFFFC0
003FFFFFC0
007FFFFFE0
00FFFFFFE0
00FFFFFFF0
01FFFFFFE0
01FFFFFFE0
03FFFEFFC0
03FFE03F00
07FF800000
07FF000000
07FE000000
0FFC000000
0FFC000000
0FFC000000
1FFC000000
1FF8000000
1FF8000000
1FF8001FF8
3FF003FFF8
3FF01FFFF8
3FF01FFFF8
3FF00FFFF8
3FF00FFFF8
7FF00FFFF8
7FF007FFF8
7FF807FFF8
7FF807FFF8
7FF807FFF8
7FF807FFF0
FFFC07FFF0
FFFE0FFFF0
FFFFFFFFF0
FFFFFFFFF0
FFFFFFFFF0
FFFFFFFFF0
FFFFFFFFF0
7FFFFFFFF0
7FFFFFFFE0
7FFFFFFFC0
3FFFFFFF00
3FFFFFFE00
1FFFFFF800
0FFFFFF000
07FFFFC000
03FFFF0000
00FFF80000
007F800000
ENDCHAR
STARTCHAR 011D
ENCODING 285
SWIDTH 501 0
DWIDTH 39 0
BBX 37 66 1 1
BITMAP
00001E0000
00007F0000
0001FFC000
0003FFE000
000FFFF000
001FFFF800
003FFFFC00
007FFFFE00
007FF3FF00
007FC1FF00
007F80FF00
001C003C00
0000000000
0000000000
0001FFE000
0003FFFC00
000FFFFE00
001FFFFF80
001FFFFFC0
003FFFFFC0
007FFFFFE0
00FFFFFFE0
00FFFFFFF0
01FFFFFFE0
01FFFFFFE0
03FFFEFFC0
03FFE03F00
07FF800000
07FF000000
07FE000000
0FFC000000
0FFC000000
0FFC000000
1FFC000000
1FF8000000
1FF8000000
1FF8001FF8
3FF003FFF8
3FF01FFFF8
3FF01FFFF8
3FF00FFFF8
3FF00FFFF8
7FF00FFFF8
7FF007FFF8
7FF807FFF8
7FF807FFF8
7FF807FFF8
7FF807FFF0
FFFC07FFF0
FFFE0FFFF0
FFFFFFFFF0
FFFFFFFFF0
FFFFFFFFF0
FFFFFFFFF0
FFFFFFFFF0
7FFFFFFFF0
7FFFFFFFE0
7FFFFFFFC0
3FFFFFFF00
3FFFFFFE00
1FFFFFF800
0FFFFFF000
07FFFFC000
03FFFF0000
00FFF80000
007F800000
ENDCHAR
STARTCHAR 011E
ENCODING 286
SWIDTH 501 0
DWIDTH 39 0
BBX 37 66 1 1
BITMAP
007E007F00
007E007F00
007E00FF00
007F81FF00
003FEFFE00
003FFFFE00
003FFFFC00
001FFFF800
000FFFF000
0007FFE000
0003FFC000
0000FF0000
0000000000
0000000000
0001FFE000
0003FFFC00
000FFFFE00
001FFFFF80
001FFFFFC0
003FFFFFC0
007FFFFFE0
00FFFFFFE0
00FFFFFFF0
01FFFFFFE0
01FFFFFFE0
03FFFEFFC0
03FFE03F00
07FF800000
07FF000000
07FE000000
0FFC000000
0FFC000000
0FFC000000
1FFC000000
1FF8000000
1FF8000000
1FF8001FF8
3FF003FFF8
3FF01FFFF8
3FF01FFFF8
3FF00FFFF8
3FF00FFFF8
7FF00FFFF8
7FF007FFF8
7FF807FFF8
7FF807FFF8
7FF807FFF8
7FF807FFF0
FFFC07FFF0
FFFE0FFFF0
FFFFFFFFF0
FFFFFFFFF0
FFFFFFFFF0
FFFFFFFFF0
FFFFFFFFF0
7FFFFFFFF0
7FFFFFFFE0
7FFFFFFFC0
3FFFFFFF00
3FFFFFFE00
1FFFFFF800
0FFFFFF000
07FFFFC000
03FFFF0000
00FFF80000
007F800000
ENDCHAR
STARTCHAR 011F
ENCODING 287
SWIDTH 501 0
DWIDTH 39 0
BBX 37 66 1 1
BITMAP
007E007F00
007E007F00
007E00FF00
007F81FF00
003FEFFE00
003FFFFE00
003FFFFC00
001FFFF800
000FFFF000
0007FFE000
0003FFC000
0000FF0000
0000000000
0000000000
0001FFE000
0003FFFC00
000FFFFE00
001FFFFF80
001FFFFFC0
003FFFFFC0
007FFFFFE0
00FFFFFFE0
00FFFFFFF0
01FFFFFFE0
01FFFFFFE0
03FFFEFFC0
03FFE03F00
07FF800000
07FF000000
07FE000000
0FFC000000
0FFC000000
0FFC000000
1FFC000000
1FF8000000
1FF8000000
1FF8001FF8
3FF003FFF8
3FF01FFFF8
3FF01FFFF8
3FF00FFFF8
3FF00FFFF8
7FF00FFFF8
7FF007FFF8
7FF807FFF8
7FF807FFF8
7FF807FFF8
7FF807FFF0
FFFC07FFF0
FFFE0FFFF0
FFFFFFFFF0
FFFFFFFFF0
FFFFFFFFF0
FFFFFFFFF0
FFFFFFFFF0
7FFFFFFFF0
7FFFFFFFE0
7FFFFFFFC0
3FFFFFFF00
3FFFFFFE00
1FFFFFF800
0FFFFFF000
07FFFFC000
03FFFF0000
00FFF80000
007F800000
ENDCHAR
STARTCHAR 0120
ENCODING 288
SWIDTH 501 0
DWIDTH 39 0
BBX 37 62 1 1
BITMAP
0000380000
00007E0000
0000FF0000
0000FF0000
0001FF0000
0001FF0000
0000FE0000
00007E0000
0000080000
0000000000
0001FFE000
0003FFFC00
000FFFFE00
001FFFFF80
001FFFFFC0
003FFFFFC0
007FFFFFE0
00FFFFFFE0
00FFFFFFF0
01FFFFFFE0
01FFFFFFE0
03FFFEFFC0
03FFE03F00
07FF800000
07FF000000
07FE000000
0FFC000000
0FFC000000
0FFC000000
1FFC000000
1FF8000000
1FF8000000
1FF8001FF8
3FF003FFF8
3FF01FFFF8
3FF01FFFF8
3FF00FFFF8
3FF00FFFF8
7FF00FFFF8
7FF007FFF8
7FF807FFF8
7FF807FFF8
7FF807FFF8
7FF807FFF0
FFFC07FFF0
FFFE0FFFF0
FFFFFFFFF0
FFFFFFFFF0
FFFFFFFFF0
FFFFFFFFF0
FFFFFFFFF0
7FFFFFFFF0
7FFFFFFFE0
7FFFFFFFC0
3FFFFFFF00
3FFFFFFE00
1FFFFFF800
0FFFFFF000
07FFFFC000
03FFFF0000
00FFF80000
007F800000
ENDCHAR
STARTCHAR 0121
ENCODING 289
SWIDTH 501 0
DWIDTH 39 0
BBX 37 62 1 1
BITMAP
0000380000
00007E0000
0000FF0000
0000FF0000
0001FF0000
0001FF0000
0000FE0000
00007E0000
0000080000
0000000000
0001FFE000
0003FFFC00
000FFFFE00
001FFFFF80
001FFFFFC0
003FFFFFC0
007FFFFFE0
00FFFFFFE0
00FFFFFFF0
01FFFFFFE0
01FFFFFFE0
03FFFEFFC0
03FFE03F00
07FF800000
07FF000000
07FE000000
0FFC000000
0FFC000000
0FFC000000
1FFC000000
1FF8000000
1FF8000000
1FF8001FF8
3FF003FFF8
3FF01FFFF8
3FF01FFFF8
3FF00FFFF8
3FF00FFFF8
7FF00FFFF8
7FF007FFF8
7FF807FFF8
7FF807FFF8
7FF807FFF8
7FF807FFF0
FFFC07FFF0
FFFE0FFFF0
FFFFFFFFF0
FFFFFFFFF0
FFFFFFFFF0
FFFFFFFFF0
FFFFFFFFF0
7FFFFFFFF0
7FFFFFFFE0
7FFFFFFFC0
3FFFFFFF00
3FFFFFFE00
1FFFFFF800
0FFFFFF000
07FFFFC000
03FFFF0000
00FFF80000
007F800000
ENDCHAR
STARTCHAR 0122
ENCODING 290
SWIDTH 501 0
DWIDTH 39 0
BBX 37 66 1 -13
BITMAP
0001FFE000
0003FFFC00
000FFFFE00
001FFFFF80
001FFFFFC0
003FFFFFC0
007FFFFFE0
00FFFFFFE0
00FFFFFFF0
01FFFFFFE0
01FFFFFFE0
03FFFEFFC0
03FFE03F00
07FF800000
07FF000000
07FE000000
0FFC000000
0FFC000000
0FFC000000
1FFC000000
1FF8000000
1FF8000000
1FF8001FF8
3FF003FFF8
3FF01FFFF8
3FF01FFFF8
3FF00FFFF8
3FF00FFFF8
7FF00FFFF8
7FF007FFF8
7FF807FFF8
7FF807FFF8
7FF807FFF8
7FF807FFF0
FFFC07FFF0
FFFE0FFFF0
FFFFFFFFF0
FFFFFFFFF0
FFFFFFFFF0
FFFFFFFFF0
FFFFFFFFF0
7FFFFFFFF0
7FFFFFFFE0
7FFFFFFFC0
3FFFFFFF00
3FFFFFFE00
1FFFFFF800
0FFFFFF000
07FFFFC000
03FFFF0000
00FFF80000
007F800000
0000000000
0000000000
003FE00000
007FE00000
007FF00000
007FF00000
007FF00000
007FE00000
007FE00000
00FFC00000
00FF800000
00FF800000
007F000000
001E000000
ENDCHAR
STARTCHAR 0123
ENCODING 291
SWIDTH 501 0
DWIDTH 39 0
BBX 37 66 1 -13
BITMAP
0001FFE000
0003FFFC00
000FFFFE00
001FFFFF80
001FFFFFC0
003FFFFFC0
007FFFFFE0
00FFFFFFE0
00FFFFFFF0
01FFFFFFE0
01FFFFFFE0
03FFFEFFC0
03FFE03F00
07FF800000
07FF000000
07FE000000
0FFC000000
0FFC000000
0FFC000000
1FFC000000
1FF8000000
1FF8000000
1FF8001FF8
3FF003FFF8
3FF01FFFF8
3FF01FFFF8
3FF00FFFF8
3FF00FFFF8
7FF00FFFF8
7FF007FFF8
7FF807FFF8
7FF807FFF8
7FF807FFF8
7FF807FFF0
FFFC07FFF0
FFFE0FFFF0
FFFFFFFFF0
FFFFFFFFF0
FFFFFFFFF0
FFFFFFFFF0
FFFFFFFFF0
7FFFFFFFF0
7FFFFFFFE0
7FFFFFFFC0
3FFFFFFF00
3FFFFFFE00
1FFFFFF800
0FFFFFF000
07FFFFC000
03FFFF0000
00FFF80000
007F800000
0000000000
0000000000
003FE00000
007FE00000
007FF00000
007FF00000
007FF00000
007FE00000
007FE00000
00FFC00000
00FF800000
00FF800000
007F000000
001E000000
ENDCHAR
STARTCHAR 0124
ENCODING 292
SWIDTH 552 0
DWIDTH 43 0
BBX 42 66 1 1
BITMAP
000000780000
000001FE0000
000007FF0000
00000FFF8000
00003FFFC000
00007FFFE000
0000FFFFF000
0000FFFFF800
0001FFCFFC00
0001FF07FC00
0001FE03FC00
00007000F000
000000000000
000000000000
000070000000
003FFC000000
03FFFC03FF80
07FFF807FFC0
07FFF80FFFC0
0FFFF00FFF80
07FFF80FFF80
07FFFC0FFF80
03FFF80FFF80
03FFF80FFF80
07FFF80FFF80
07FFF81FFF80
07FFF81FFF80
07FFF81FFF80
07FFF81FFF80
07FFF81FFF80
07FFF81FFF80
07FFF81FFF80
07FFF81FFF80
0FFFF83FFF00
0FFFFFFFFF00
0FFFFFFFFF00
0FFFFFFFFF00
0FFFFFFFFF00
0FFFFFFFFF00
0FFFFFFFFF00
0FFFFFFFFF00
0FFFFFFFFF00
0FFFFFFFFF00
1FFFFFFFFF80
1FFFFFFFFF80
1FFFFFFFFF80
1FFFFFFFFF80
1FFFFFFFFF80
1FFFFFFFFF80
1FFFF07FFF80
1FFFE07FFF00
1FFFE07FFF00
1FFFE07FFF00
1FFFE07FFF00
1FFFE07FFF00
1FFFE07FFF00
3FFFE07FFF00
3FFFE07FFF00
3FFFE07FFF00
3FFFE0FFFE00
3FFFE07FFE00
3FFFE07FFE00
7FFFE07FFE00
7FFFE07FFC00
FFFFC0FF0000
00FFC0F00000
ENDCHAR
STARTCHAR 0125
ENCODING 293
SWIDTH 552 0
DWIDTH 43 0
BBX 42 66 1 1
BITMAP
000000780000
000001FE0000
000007FF0000
00000FFF8000
00003FFFC000
00007FFFE000
0000FFFFF000
0000FFFFF800
0001FFCFFC00
0001FF07FC00
0001FE03FC00
00007000F000
000000000000
000000000000
000070000000
003FFC000000
03FFFC03FF80
07FFF807FFC0
07FFF80FFFC0
0FFFF00FFF80
07FFF80FFF80
07FFFC0FFF80
03FFF80FFF80
03FFF80FFF80
07FFF80FFF80
07FFF81FFF80
07FFF81FFF80
07FFF81FFF80
07FFF81FFF80
07FFF81FFF80
07FFF81FFF80
07FFF81FFF80
07FFF81FFF80
0FFFF83FFF00
0FFFFFFFFF00
0FFFFFFFFF00
0FFFFFFFFF00
0FFFFFFFFF00
0FFFFFFFFF00
0FFFFFFFFF00
0FFFFFFFFF00
0FFFFFFFFF00
0FFFFFFFFF00
1FFFFFFFFF80
1FFFFFFFFF80
1FFFFFFFFF80
1FFFFFFFFF80
1FFFFFFFFF80
1FFFFFFFFF80
1FFFF07FFF80
1FFFE07FFF00
1FFFE07FFF00
1FFFE07FFF00
1FFFE07FFF00
1FFFE07FFF00
1FFFE07FFF00
3FFFE07FFF00
3FFFE07FFF00
3FFFE07FFF00
3FFFE0FFFE00
3FFFE07FFE00
3FFFE07FFE00
7FFFE07FFE00
7FFFE07FFC00
FFFFC0FF0000
00FFC0F00000
ENDCHAR
STARTCHAR 0126
ENCODING 294
SWIDTH 591 0
DWIDTH 46 0
BBX 44 52 1 1
BITMAP
0000F0000000
007FFC000000
03FFFC03FF80
07FFF807FFC0
07FFF80FFFC0
0FFFF03FFF80
3FFFFFFFFFE0
7FFFFFFFFFE0
7FFFFFFFFFE0
7FFFFFFFFFF0
7FFFFFFFFFF0
7FFFFFFFFFF0
7FFFFFFFFFF0
FFFFFFFFFFF0
FFFFFFFFFFF0
FFFFFFFFFFE0
3FFFF81FFF80
07FFF81FFF80
07FFF81FFF80
0FFFF83FFF00
0FFFFFFFFF00
0FFFFFFFFF00
0FFFFFFFFF00
0FFFFFFFFF00
0FFFFFFFFF00
0FFFFFFFFF00
0FFFFFFFFF00
0FFFFFFFFF00
0FFFFFFFFF00
1FFFFFFFFF80
1FFFFFFFFF80
1FFFFFFFFF80
1FFFFFFFFF80
1FFFFFFFFF80
1FFFFFFFFF80
1FFFF07FFF80
1FFFE07FFF00
1FFFE07FFF00
1FFFE07FFF00
1FFFE07FFF00
1FFFE07FFF00
1FFFE07FFF00
3FFFE07FFF00
3FFFE07FFF00
3FFFE07FFF00
3FFFE0FFFE00
3FFFE07FFE00
3FFFE07FFE00
7FFFE07FFE00
7FFFE07FFE00
FFFFC0FF8000
01FFC0F00000
ENDCHAR
STARTCHAR 0127
ENCODING 295
SWIDTH 591 0
DWIDTH 46 0
BBX 44 52 1 1
BITMAP
0000F0000000
007FFC000000
03FFFC03FF80
07FFF807FFC0
07FFF80FFFC0
0FFFF03FFF80
3FFFFFFFFFE0
7FFFFFFFFFE0
7FFFFFFFFFE0
7FFFFFFFFFF0
7FFFFFFFFFF0
7FFFFFFFFFF0
7FFFFFFFFFF0
FFFFFFFFFFF0
FFFFFFFFFFF0
FFFFFFFFFFE0
3FFFF81FFF80
07FFF81FFF80
07FFF81FFF80
0FFFF83FFF00
0FFFFFFFFF00
0FFFFFFFFF00
0FFFFFFFFF00
0FFFFFFFFF00
0FFFFFFFFF00
0FFFFFFFFF00
0FFFFFFFFF00
0FFFFFFFFF00
0FFFFFFFFF00
1FFFFFFFFF80
1FFFFFFFFF80
1FFFFFFFFF80
1FFFFFFFFF80
1FFFFFFFFF80
1FFFFFFFFF80
1FFFF07FFF80
1FFFE07FFF00
1FFFE07FFF00
1FFFE07FFF00
1FFFE07FFF00
1FFFE07FFF00
1FFFE07FFF00
3FFFE07FFF00
3FFFE07FFF00
3FFFE07FFF00
3FFFE0FFFE00
3FFFE07FFE00
3FFFE07FFE00
7FFFE07FFE00
7FFFE07FFE00
FFFFC0FF8000
01FFC0F00000
ENDCHAR
STARTCHAR 0128
ENCODING 296
SWIDTH 334 0
DWIDTH 26 0
BBX 26 66 2 0
BITMAP
01F83FC0
07FC3FC0
07FF3FC0
0FFFFFC0
0FFFFFC0
0FFFFFC0
1FFFFFC0
1FFFFF00
1FCFFE00
1FC7FC00
1FC1F800
00000000
00000000
00000000
03FFF600
07FFFE00
07FFFE00
07FFFC00
03FFFC00
07FFFC00
07FFF800
07FFF800
07FFF800
07FFF800
07FFF800
0FFFF800
0FFFF800
0FFFF800
0FFFF000
0FFFF000
0FFFF000
0FFFF000
0FFFF000
0FFFF000
1FFFF000
1FFFF000
1FFFF000
1FFFF000
1FFFF000
1FFFF000
1FFFF000
1FFFF000
1FFFF000
1FFFF000
1FFFF000
1FFFF000
1FFFF000
1FFFF000
1FFFF000
1FFFF000
1FFFF000
1FFFF000
3FFFF000
3FFFF000
3FFFF000
3FFFF000
3FFFE000
3FFFE000
3FFFE000
3FFFC000
3FFFE000
7FFFE000
7FFFC000
FFFF8000
FFE00000
FC000000
ENDCHAR
STARTCHAR 0129
ENCODING 297
SWIDTH 334 0
DWIDTH 26 0
BBX 26 66 2 0
BITMAP
01F83FC0
07FC3FC0
07FF3FC0
0FFFFFC0
0FFFFFC0
0FFFFFC0
1FFFFFC0
1FFFFF00
1FCFFE00
1FC7FC00
1FC1F800
00000000
00000000
00000000
03FFF600
07FFFE00
07FFFE00
07FFFC00
03FFFC00
07FFFC00
07FFF800
07FFF800
07FFF800
07FFF800
07FFF800
0FFFF800
0FFFF800
0FFFF800
0FFFF000
0FFFF000
0FFFF000
0FFFF000
0FFFF000
0FFFF000
1FFFF000
1FFFF000
1FFFF000
1FFFF000
1FFFF000
1FFFF000
1FFFF000
1FFFF000
1FFFF000
1FFFF000
1FFFF000
1FFFF000
1FFFF000
1FFFF000
1FFFF000
1FFFF000
1FFFF000
1FFFF000
3FFFF000
3FFFF000
3FFFF000
3FFFF000
3FFFE000
3FFFE000
3FFFE000
3FFFC000
3FFFE000
7FFFE000
7FFFC000
FFFF8000
FFE00000
FC000000
ENDCHAR
STARTCHAR 012A
ENCODING 298
SWIDTH 334 0
DWIDTH 26 0
BBX 26 63 2 0
BITMAP
00406000
1FFFFFC0
1FFFFFC0
1FFFFFC0
1FFFFFC0
1FFFFFC0
1FFFFFC0
07800000
00000000
00000000
00000000
03FFF600
07FFFE00
07FFFE00
07FFFC00
03FFFC00
07FFFC00
07FFF800
07FFF800
07FFF800
07FFF800
07FFF800
0FFFF800
0FFFF800
0FFFF800
0FFFF000
0FFFF000
0FFFF000
0FFFF000
0FFFF000
0FFFF000
1FFFF000
1FFFF000
1FFFF000
1FFFF000
1FFFF000
1FFFF000
1FFFF000
1FFFF000
1FFFF000
1FFFF000
1FFFF000
1FFFF000
1FFFF000
1FFFF000
1FFFF000
1FFFF000
1FFFF000
1FFFF000
3FFFF000
3FFFF000
3FFFF000
3FFFF000
3FFFE000
3FFFE000
3FFFE000
3FFFC000
3FFFE000
7FFFE000
7FFFC000
FFFF8000
FFE00000
FC000000
ENDCHAR
STARTCHAR 012B
ENCODING 299
SWIDTH 334 0
DWIDTH 26 0
BBX 26 63 2 0
BITMAP
00406000
1FFFFFC0
1FFFFFC0
1FFFFFC0
1FFFFFC0
1FFFFFC0
1FFFFFC0
07800000
00000000
00000000
00000000
03FFF600
07FFFE00
07FFFE00
07FFFC00
03FFFC00
07FFFC00
07FFF800
07FFF800
07FFF800
07FFF800
07FFF800
0FFFF800
0FFFF800
0FFFF800
0FFFF000
0FFFF000
0FFFF000
0FFFF000
0FFFF000
0FFFF000
1FFFF000
1FFFF000
1FFFF000
1FFFF000
1FFFF000
1FFFF000
1FFFF000
1FFFF000
1FFFF000
1FFFF000
1FFFF000
1FFFF000
1FFFF000
1FFFF000
1FFFF000
1FFFF000
1FFFF000
1FFFF000
3FFFF000
3FFFF000
3FFFF000
3FFFF000
3FFFE000
3FFFE000
3FFFE000
3FFFC000
3FFFE000
7FFFE000
7FFFC000
FFFF8000
FFE00000
FC000000
ENDCHAR
STARTCHAR 012C
ENCODING 300
SWIDTH 334 0
DWIDTH 26 0
BBX 26 67 2 0
BITMAP
1F800FC0
1F801FC0
1FC01FC0
0FE07FC0
0FFFFFC0
0FFFFF80
07FFFF00
07FFFF00
03FFFE00
01FFF800
007FF800
001FC000
00000000
00000000
00000000
03FFF600
07FFFE00
07FFFE00
07FFFC00
03FFFC00
07FFFC00
07FFF800
07FFF800
07FFF800
07FFF800
07FFF800
0FFFF800
0FFFF800
0FFFF800
0FFFF000
0FFFF000
0FFFF000
0FFFF000
0FFFF000
0FFFF000
1FFFF000
1FFFF000
1FFFF000
1FFFF000
1FFFF000
1FFFF000
1FFFF000
1FFFF000
1FFFF000
1FFFF000
1FFFF000
1FFFF000
1FFFF000
1FFFF000
1FFFF000
1FFFF000
1FFFF000
1FFFF000
3FFFF000
3FFFF000
3FFFF000
3FFFF000
3FFFE000
3FFFE000
3FFFE000
3FFFC000
3FFFE000
7FFFE000
7FFFC000
FFFF8000
FFE00000
FC000000
ENDCHAR
STARTCHAR 012D
ENCODING 301
SWIDTH 334 0
DWIDTH 26 0
BBX 26 67 2 0
BITMAP
1F800FC0
1F801FC0
1FC01FC0
0FE07FC0
0FFFFFC0
0FFFFF80
07FFFF00
07FFFF00
03FFFE00
01FFF800
007FF800
001FC000
00000000
00000000
00000000
03FFF600
07FFFE00
07FFFE00
07FFFC00
03FFFC00
07FFFC00
07FFF800
07FFF800
07FFF800
07FFF800
07FFF800
0FFFF800
0FFFF800
0FFFF800
0FFFF000
0FFFF000
0FFFF000
0FFFF000
0FFFF000
0FFFF000
1FFFF000
1FFFF000
1FFFF000
1FFFF000
1FFFF000
1FFFF000
1FFFF000
1FFFF000
1FFFF000
1FFFF000
1FFFF000
1FFFF000
1FFFF000
1FFFF000
1FFFF000
1FFFF000
1FFFF000
1FFFF000
3FFFF000
3FFFF000
3FFFF000
3FFFF000
3FFFE000
3FFFE000
3FFFE000
3FFFC000
3FFFE000
7FFFE000
7FFFC000
FFFF8000
FFE00000
FC000000
ENDCHAR
STARTCHAR 012E
ENCODING 302
SWIDTH 334 0
DWIDTH 26 0
BBX 23 65 2 -13
BITMAP
03FFF6
07FFFE
07FFFE
07FFFC
03FFFC
07FFFC
07FFF8
07FFF8
07FFF8
07FFF8
07FFF8
0FFFF8
0FFFF8
0FFFF8
0FFFF0
0FFFF0
0FFFF0
0FFFF0
0FFFF0
0FFFF0
1FFFF0
1FFFF0
1FFFF0
1FFFF0
1FFFF0
1FFFF0
1FFFF0
1FFFF0
1FFFF0
1FFFF0
1FFFF0
1FFFF0
1FFFF0
1FFFF0
1FFFF0
1FFFF0
1FFFF0
1FFFF0
3FFFF0
3FFFF0
3FFFF0
3FFFF0
3FFFE0
3FFFE0
3FFFE0
3FFFC0
3FFFE0
7FFFE0
7FFFC0
FFFF80
FFF800
FFF000
07E000
07E000
0FE000
1FC000
1FC000
3FC000
3FE03E
3FFFFE
1FFFFE
1FFFFE
1FFFFE
0FFFFE
01FFF8
ENDCHAR
STARTCHAR 012F
ENCODING 303
SWIDTH 334 0
DWIDTH 26 0
BBX 23 65 2 -13
BITMAP
03FFF6
07FFFE
07FFFE
07FFFC
03FFFC
07FFFC
07FFF8
07FFF8
07FFF8
07FFF8
07FFF8
0FFFF8
0FFFF8
0FFFF8
0FFFF0
0FFFF0
0FFFF0
0FFFF0
0FFFF0
0FFFF0
1FFFF0
1FFFF0
1FFFF0
1FFFF0
1FFFF0
1FFFF0
1FFFF0
1FFFF0
1FFFF0
1FFFF0
1FFFF0
1FFFF0
1FFFF0
1FFFF0
1FFFF0
1FFFF0
1FFFF0
1FFFF0
3FFFF0
3FFFF0
3FFFF0
3FFFF0
3FFFE0
3FFFE0
3FFFE0
3FFFC0
3FFFE0
7FFFE0
7FFFC0
FFFF80
FFF800
FFF000
07E000
07E000
0FE000
1FC000
1FC000
3FC000
3FE03E
3FFFFE
1FFFFE
1FFFFE
1FFFFE
0FFFFE
01FFF8
ENDCHAR
STARTCHAR 0130
ENCODING 304
SWIDTH 334 0
DWIDTH 26 0
BBX 23 63 2 0
BITMAP
000F80
001FC0
001FE0
001FE0
001FE0
001FC0
001FC0
000F80
000000
000000
000000
03FFF6
07FFFE
07FFFE
07FFFC
03FFFC
07FFFC
07FFF8
07FFF8
07FFF8
07FFF8
07FFF8
0FFFF8
0FFFF8
0FFFF8
0FFFF0
0FFFF0
0FFFF0
0FFFF0
0FFFF0
0FFFF0
1FFFF0
1FFFF0
1FFFF0
1FFFF0
1FFFF0
1FFFF0
1FFFF0
1FFFF0
1FFFF0
1FFFF0
1FFFF0
1FFFF0
1FFFF0
1FFFF0
1FFFF0
1FFFF0
1FFFF0
1FFFF0
3FFFF0
3FFFF0
3FFFF0
3FFFF0
3FFFE0
3FFFE0
3FFFE0
3FFFC0
3FFFE0
7FFFE0
7FFFC0
FFFF80
FFE000
FC0000
ENDCHAR
STARTCHAR 0131
ENCODING 305
SWIDTH 334 0
DWIDTH 26 0
BBX 23 63 2 0
BITMAP
000F80
001FC0
001FE0
001FE0
001FE0
001FC0
001FC0
000F80
000000
000000
000000
03FFF6
07FFFE
07FFFE
07FFFC
03FFFC
07FFFC
07FFF8
07FFF8
07FFF8
07FFF8
07FFF8
0FFFF8
0FFFF8
0FFFF8
0FFFF0
0FFFF0
0FFFF0
0FFFF0
0FFFF0
0FFFF0
1FFFF0
1FFFF0
1FFFF0
1FFFF0
1FFFF0
1FFFF0
1FFFF0
1FFFF0
1FFFF0
1FFFF0
1FFFF0
1FFFF0
1FFFF0
1FFFF0
1FFFF0
1FFFF0
1FFFF0
1FFFF0
3FFFF0
3FFFF0
3FFFF0
3FFFF0
3FFFE0
3FFFE0
3FFFE0
3FFFC0
3FFFE0
7FFFE0
7FFFC0
FFFF80
FFE000
FC0000
ENDCHAR
STARTCHAR 0132
ENCODING 306
SWIDTH 604 0
DWIDTH 47 0
BBX 45 53 1 -1
BITMAP
000000000060
03FFA001FFE0
07FFE001FFF0
07FFE003FFF0
07FFC003FFF0
07FFC003FFF0
07FFC003FFF0
07FFC003FFF0
07FFC007FFF0
07FFC007FFF0
07FFC007FFF0
0FFF8007FFF0
0FFF8007FFF0
0FFF8007FFF0
0FFF8007FFF0
0FFF8007FFF0
0FFF8007FFF0
0FFF8007FFF8
0FFF8007FFF8
0FFF8007FFF8
0FFF8007FFF8
0FFF8007FFF8
0FFF8007FFF8
1FFF8007FFF8
1FFF8007FFF8
1FFF8007FFF8
1FFF8007FFF8
1FFF8007FFF8
1FFF8003FFF8
1FFF8003FFF8
1FFF8003FFF8
1FFF8001FFF8
1FFF8001FFF8
1FFF8001FFF8
1FFF8001FFF0
1FFF80E1FFF0
1FFF9FF0FFF0
1FFFBFF0FFF0
1FFF9FF8FFF0
1FFFBFF9FFF0
1FFF9FFDFFE0
1FFFBFFCFFE0
1FFFBFFEFFE0
1FFF1FFFFFC0
1FFF1FFFFFC0
3FFF0FFFFF80
3FFF0FFFFF80
3FFF07FFFF00
3FFF07FFFE00
3FFE03FFFC00
7FFC00FFF800
FFC0007FF800
7800000FE000
ENDCHAR
STARTCHAR 0133
ENCODING 307
SWIDTH 604 0
DWIDTH 47 0
BBX 45 53 1 -1
BITMAP
000000000060
03FFA001FFE0
07FFE001FFF0
07FFE003FFF0
07FFC003FFF0
07FFC003FFF0
07FFC003FFF0
07FFC003FFF0
07FFC007FFF0
07FFC007FFF0
07FFC007FFF0
0FFF8007FFF0
0FFF8007FFF0
0FFF8007FFF0
0FFF8007FFF0
0FFF8007FFF0
0FFF8007FFF0
0FFF8007FFF8
0FFF8007FFF8
0FFF8007FFF8
0FFF8007FFF8
0FFF8007FFF8
0FFF8007FFF8
1FFF8007FFF8
1FFF8007FFF8
1FFF8007FFF8
1FFF8007FFF8
1FFF8007FFF8
1FFF8003FFF8
1FFF8003FFF8
1FFF8003FFF8
1FFF8001FFF8
1FFF8001FFF8
1FFF8001FFF8
1FFF8001FFF0
1FFF80E1FFF0
1FFF9FF0FFF0
1FFFBFF0FFF0
1FFF9FF8FFF0
1FFFBFF9FFF0
1FFF9FFDFFE0
1FFFBFFCFFE0
1FFFBFFEFFE0
1FFF1FFFFFC0
1FFF1FFFFFC0
3FFF0FFFFF80
3FFF0FFFFF80
3FFF07FFFF00
3FFF07FFFE00
3FFE03FFFC00
7FFC00FFF800
FFC0007FF800
7800000FE000
ENDCHAR
STARTCHAR 0134
ENCODING 308
SWIDTH 450 0
DWIDTH 35 0
BBX 35 68 1 -1
BITMAP
0000038000
00000FC000
00003FF000
00007FF800
0000FFFE00
0001FFFF00
0003FFFF80
0007FFFFC0
000FFEFFE0
000FFC3FE0
001FF81FC0
001FF00400
000F800000
0000000000
0000000000
0000000600
0000FFFF00
0000FFFF00
0001FFFF00
0001FFFF00
0001FFFF00
0001FFFF80
0003FFFF80
0003FFFF80
0003FFFF80
0003FFFF80
0003FFFF80
0007FFFF80
0007FFFF80
0007FFFF80
0007FFFF80
0007FFFF80
0007FFFF80
0007FFFF80
0007FFFF80
0007FFFF80
0007FFFF80
0003FFFFC0
0007FFFFC0
0003FFFFC0
0003FFFFC0
0003FFFFC0
0003FFFFC0
0001FFFFC0
0001FFFFC0
0001FFFF80
0000FFFF80
0000FFFF80
0000FFFF80
0000FFFF80
00E07FFF80
3FF07FFF80
FFF07FFF80
7FF87FFF00
FFFC7FFF00
7FFCFFFF00
FFFE7FFE00
FFFE7FFE00
7FFFFFFC00
7FFFFFFC00
3FFFFFF800
1FFFFFF000
1FFFFFE000
0FFFFFC000
07FFFF8000
01FFFF0000
007FFE0000
000FF80000
ENDCHAR
STARTCHAR 0135
ENCODING 309
SWIDTH 450 0
DWIDTH 35 0
BBX 35 68 1 -1
BITMAP
0000038000
00000FC000
00003FF000
00007FF800
0000FFFE00
0001FFFF00
0003FFFF80
0007FFFFC0
000FFEFFE0
000FFC3FE0
001FF81FC0
001FF00400
000F800000
0000000000
0000000000
0000000600
0000FFFF00
0000FFFF00
0001FFFF00
0001FFFF00
0001FFFF00
0001FFFF80
0003FFFF80
0003FFFF80
0003FFFF80
0003FFFF80
0003FFFF80
0007FFFF80
0007FFFF80
0007FFFF80
0007FFFF80
0007FFFF80
0007FFFF80
0007FFFF80
0007FFFF80
0007FFFF80
0007FFFF80
0003FFFFC0
0007FFFFC0
0003FFFFC0
0003FFFFC0
0003FFFFC0
0003FFFFC0
0001FFFFC0
0001FFFFC0
0001FFFF80
0000FFFF80
0000FFFF80
0000FFFF80
0000FFFF80
00E07FFF80
3FF07FFF80
FFF07FFF80
7FF87FFF00
FFFC7FFF00
7FFCFFFF00
FFFE7FFE00
FFFE7FFE00
7FFFFFFC00
7FFFFFFC00
3FFFFFF800
1FFFFFF000
1FFFFFE000
0FFFFFC000
07FFFF8000
01FFFF0000
007FFE0000
000FF80000
ENDCHAR
STARTCHAR 0136
ENCODING 310
SWIDTH 552 0
DWIDTH 43 0
BBX 41 67 1 -13
BITMAP
000000008000
00101803C000
FFFFF807E000
FFFFFC0FF000
3FFFF81FF800
3FFFF81FFD00
3FFFF83FFF80
3FFFF87FFF00
7FFFF87FFE00
7FFFF8FFFE00
7FFFF8FFFC00
7FFFF9FFF800
7FFFF9FFF800
7FFFFBFFF000
7FFFFBFFE000
7FFFFBFFC000
7FFFFFFFC000
7FFFFFFF8000
7FFFFFFF0000
7FFFFFFE0000
7FFFFFFE0000
7FFFFFFC0000
7FFFFFFC0000
7FFFFFFC0000
7FFFFFF80000
7FFFFFF00000
7FFFFFF00000
7FFFFFE00000
FFFFFF800000
FFFFFFC00000
FFFFFFE00000
FFFFFFF00000
FFFFFFF80000
FFFFFFFC0000
FFFFFFFE0000
FFFFFFFF0000
FFFFFFFF8000
FFFFFFFFC000
FFFFFFFFE000
FFFFFBFFE000
FFFFFBFFF000
FFFFF9FFF800
FFFFF0FFF800
FFFFF0FFFC00
FFFFF07FFE00
FFFFF03FFE00
FFFFF03FFF00
FFFFF81FFF00
7FFFF81FFF00
7FFFF80FFF80
7FFFF807F380
FFFFF807C000
7FFFE0078000
000200030000
000000000000
00007FE00000
00007FE00000
00007FE00000
00007FE00000
0000FFE00000
0000FFE00000
0000FFC00000
0000FFC00000
0001FF800000
0001FF000000
0000FE000000
00003C000000
ENDCHAR
STARTCHAR 0137
ENCODING 311
SWIDTH 552 0
DWIDTH 43 0
BBX 41 67 1 -13
BITMAP
000000008000
00101803C000
FFFFF807E000
FFFFFC0FF000
3FFFF81FF800
3FFFF81FFD00
3FFFF83FFF80
3FFFF87FFF00
7FFFF87FFE00
7FFFF8FFFE00
7FFFF8FFFC00
7FFFF9FFF800
7FFFF9FFF800
7FFFFBFFF000
7FFFFBFFE000
7FFFFBFFC000
7FFFFFFFC000
7FFFFFFF8000
7FFFFFFF0000
7FFFFFFE0000
7FFFFFFE0000
7FFFFFFC0000
7FFFFFFC0000
7FFFFFFC0000
7FFFFFF80000
7FFFFFF00000
7FFFFFF00000
7FFFFFE00000
FFFFFF800000
FFFFFFC00000
FFFFFFE00000
FFFFFFF00000
FFFFFFF80000
FFFFFFFC0000
FFFFFFFE0000
FFFFFFFF0000
FFFFFFFF8000
FFFFFFFFC000
FFFFFFFFE000
FFFFFBFFE000
FFFFFBFFF000
FFFFF9FFF800
FFFFF0FFF800
FFFFF0FFFC00
FFFFF07FFE00
FFFFF03FFE00
FFFFF03FFF00
FFFFF81FFF00
7FFFF81FFF00
7FFFF80FFF80
7FFFF807F380
FFFFF807C000
7FFFE0078000
000200030000
000000000000
00007FE00000
00007FE00000
00007FE00000
00007FE00000
0000FFE00000
0000FFE00000
0000FFC00000
0000FFC00000
0001FF800000
0001FF000000
0000FE000000
00003C000000
ENDCHAR
STARTCHAR 0138
ENCODING 312
SWIDTH 527 0
DWIDTH 41 0
BBX 39 43 1 -1
BITMAP
0000100300
FFFFF00F80
FFFFF81FC0
3FFFF83FF0
3FFFF07FFE
7FFFF07FFE
7FFFF0FFFC
7FFFF1FFF8
7FFFF1FFF0
7FFFF3FFE0
7FFFF3FFC0
7FFFF7FF80
7FFFFFFF80
7FFFFFFF00
7FFFFFFE00
7FFFFFFC00
7FFFFFF800
7FFFFFF800
7FFFFFF000
7FFFFFF000
7FFFFFE000
7FFFFFC000
FFFFFF0000
FFFFFFC000
FFFFFFE000
FFFFFFF000
FFFFFFF800
FFFFFFFC00
FFFFFFFE00
FFFFFFFF00
FFFFFFFF80
FFFFF7FFC0
FFFFF3FFE0
FFFFF1FFF0
FFFFE0FFF8
FFFFE0FFF8
FFFFE07FFC
FFFFF03FFC
7FFFF03FFE
7FFFF01FFE
FFFFF00FC2
FFFFE00F00
0004000E00
ENDCHAR
STARTCHAR 0139
ENCODING 313
SWIDTH 514 0
DWIDTH 40 0
BBX 38 68 1 -1
BITMAP
000007FE00
00000FFE00
00001FFC00
00001FF800
00003FF000
00007FF000
00007FE000
00007FC000
0000FF8000
0000FF0000
0001FE0000
00003E0000
0000000000
0000000000
0001FFC000
003FFFE000
00FFFFE000
01FFFFE000
01FFFFE000
01FFFFE000
01FFFFE000
01FFFFE000
03FFFFC000
03FFFFC000
03FFFFC000
03FFFFC000
03FFFFC000
03FFFFC000
03FFFF8000
03FFFF8000
03FFFF8000
03FFFF8000
03FFFF8000
03FFFF8000
03FFFF0000
07FFFF0000
07FFFF0000
07FFFF0000
07FFFF0000
07FFFF0000
0FFFFE0000
0FFFFE0000
0FFFFE0000
0FFFFE0000
0FFFFE0000
0FFFFE0000
1FFFFC0000
1FFFFC0000
1FFFFC0000
1FFFFC0000
1FFFFE0000
1FFFFFFFF8
1FFFFFFFF0
1FFFFFFFF0
3FFFFFFFF0
3FFFFFFFF0
1FFFFFFFF0
3FFFFFFFF8
3FFFFFFFF0
3FFFFFFFF0
3FFFFFFFF8
3FFFFFFFF8
3FFFFFFFF8
3FFFFFFFFC
3FFFFFFE00
3FFFFFFF00
7FFE000000
FE00000000
ENDCHAR
STARTCHAR 013A
ENCODING 314
SWIDTH 514 0
DWIDTH 40 0
BBX 38 68 1 -1
BITMAP
000007FE00
00000FFE00
00001FFC00
00001FF800
00003FF000
00007FF000
00007FE000
00007FC000
0000FF8000
0000FF0000
0001FE0000
00003E0000
0000000000
0000000000
0001FFC000
003FFFE000
00FFFFE000
01FFFFE000
01FFFFE000
01FFFFE000
01FFFFE000
01FFFFE000
03FFFFC000
03FFFFC000
03FFFFC000
03FFFFC000
03FFFFC000
03FFFFC000
03FFFF8000
03FFFF8000
03FFFF8000
03FFFF8000
03FFFF8000
03FFFF8000
03FFFF0000
07FFFF0000
07FFFF0000
07FFFF0000
07FFFF0000
07FFFF0000
0FFFFE0000
0FFFFE0000
0FFFFE0000
0FFFFE0000
0FFFFE0000
0FFFFE0000
1FFFFC0000
1FFFFC0000
1FFFFC0000
1FFFFC0000
1FFFFE0000
1FFFFFFFF8
1FFFFFFFF0
1FFFFFFFF0
3FFFFFFFF0
3FFFFFFFF0
1FFFFFFFF0
3FFFFFFFF8
3FFFFFFFF0
3FFFFFFFF0
3FFFFFFFF8
3FFFFFFFF8
3FFFFFFFF8
3FFFFFFFFC
3FFFFFFE00
3FFFFFFF00
7FFE000000
FE00000000
ENDCHAR
STARTCHAR 013B
ENCODING 315
SWIDTH 514 0
DWIDTH 40 0
BBX 38 66 1 -13
BITMAP
0001FFC000
003FFFE000
00FFFFE000
01FFFFE000
01FFFFE000
01FFFFE000
01FFFFE000
01FFFFE000
03FFFFC000
03FFFFC000
03FFFFC000
03FFFFC000
03FFFFC000
03FFFFC000
03FFFF8000
03FFFF8000
03FFFF8000
03FFFF8000
03FFFF8000
03FFFF8000
03FFFF0000
07FFFF0000
07FFFF0000
07FFFF0000
07FFFF0000
07FFFF0000
0FFFFE0000
0FFFFE0000
0FFFFE0000
0FFFFE0000
0FFFFE0000
0FFFFE0000
1FFFFC0000
1FFFFC0000
1FFFFC0000
1FFFFC0000
1FFFFE0000
1FFFFFFFF8
1FFFFFFFF0
1FFFFFFFF0
3FFFFFFFF0
3FFFFFFFF0
1FFFFFFFF0
3FFFFFFFF8
3FFFFFFFF0
3FFFFFFFF0
3FFFFFFFF8
3FFFFFFFF8
3FFFFFFFF8
3FFFFFFFFC
3FFFFFFE00
3FFFFFFF00
7FFE000000
FE00000000
0003FE0000
0007FE0000
0007FE0000
0007FF0000
0007FE0000
0007FE0000
000FFC0000
000FFC0000
000FF80000
000FF00000
0007F00000
0003C00000
ENDCHAR
STARTCHAR 013C
ENCODING 316
SWIDTH 514 0
DWIDTH 40 0
BBX 38 66 1 -13
BITMAP
0001FFC000
003FFFE000
00FFFFE000
01FFFFE000
01FFFFE000
01FFFFE000
01FFFFE000
01FFFFE000
03FFFFC000
03FFFFC000
03FFFFC000
03FFFFC000
03FFFFC000
03FFFFC000
03FFFF8000
03FFFF8000
03FFFF8000
03FFFF8000
03FFFF8000
03FFFF8000
03FFFF0000
07FFFF0000
07FFFF0000
07FFFF0000
07FFFF0000
07FFFF0000
0FFFFE0000
0FFFFE0000
0FFFFE0000
0FFFFE0000
0FFFFE0000
0FFFFE0000
1FFFFC0000
1FFFFC0000
1FFFFC0000
1FFFFC0000
1FFFFE0000
1FFFFFFFF8
1FFFFFFFF0
1FFFFFFFF0
3FFFFFFFF0
3FFFFFFFF0
1FFFFFFFF0
3FFFFFFFF8
3FFFFFFFF0
3FFFFFFFF0
3FFFFFFFF8
3FFFFFFFF8
3FFFFFFFF8
3FFFFFFFFC
3FFFFFFE00
3FFFFFFF00
7FFE000000
FE00000000
0003FE0000
0007FE0000
0007FE0000
0007FF0000
0007FE0000
0007FE0000
000FFC0000
000FFC0000
000FF80000
000FF00000
0007F00000
0003C00000
ENDCHAR
STARTCHAR 013D
ENCODING 317
SWIDTH 514 0
DWIDTH 40 0
BBX 38 56 1 -1
BITMAP
00000003F8
00000003FC
0001FFC3FC
003FFFE3FC
00FFFFE3FC
01FFFFE3FC
01FFFFE7FC
01FFFFE7F8
01FFFFE7F8
01FFFFE7F8
03FFFFC7F8
03FFFFC7F0
03FFFFC7F0
03FFFFC7F0
03FFFFC7E0
03FFFFC7E0
03FFFF83C0
03FFFF81C0
03FFFF8000
03FFFF8000
03FFFF8000
03FFFF8000
03FFFF0000
07FFFF0000
07FFFF0000
07FFFF0000
07FFFF0000
07FFFF0000
0FFFFE0000
0FFFFE0000
0FFFFE0000
0FFFFE0000
0FFFFE0000
0FFFFE0000
1FFFFC0000
1FFFFC0000
1FFFFC0000
1FFFFC0000
1FFFFE0000
1FFFFFFFF8
1FFFFFFFF0
1FFFFFFFF0
3FFFFFFFF0
3FFFFFFFF0
1FFFFFFFF0
3FFFFFFFF8
3FFFFFFFF0
3FFFFFFFF0
3FFFFFFFF8
3FFFFFFFF8
3FFFFFFFF8
3FFFFFFFFC
3FFFFFFE00
3FFFFFFF00
7FFE000000
FE00000000
ENDCHAR
STARTCHAR 013E
ENCODING 318
SWIDTH 514 0
DWIDTH 40 0
BBX 38 56 1 -1
BITMAP
00000003F8
00000003FC
0001FFC3FC
003FFFE3FC
00FFFFE3FC
01FFFFE3FC
01FFFFE7FC
01FFFFE7F8
01FFFFE7F8
01FFFFE7F8
03FFFFC7F8
03FFFFC7F0
03FFFFC7F0
03FFFFC7F0
03FFFFC7E0
03FFFFC7E0
03FFFF83C0
03FFFF81C0
03FFFF8000
03FFFF8000
03FFFF8000
03FFFF8000
03FFFF0000
07FFFF0000
07FFFF0000
07FFFF0000
07FFFF0000
07FFFF0000
0FFFFE0000
0FFFFE0000
0FFFFE0000
0FFFFE0000
0FFFFE0000
0FFFFE0000
1FFFFC0000
1FFFFC0000
1FFFFC0000
1FFFFC0000
1FFFFE0000
1FFFFFFFF8
1FFFFFFFF0
1FFFFFFFF0
3FFFFFFFF0
3FFFFFFFF0
1FFFFFFFF0
3FFFFFFFF8
3FFFFFFFF0
3FFFFFFFF0
3FFFFFFFF8
3FFFFFFFF8
3FFFFFFFF8
3FFFFFFFFC
3FFFFFFE00
3FFFFFFF00
7FFE000000
FE00000000
ENDCHAR
STARTCHAR 013F
ENCODING 319
SWIDTH 514 0
DWIDTH 40 0
BBX 38 54 1 -1
BITMAP
0001FFC000
003FFFE000
00FFFFE000
01FFFFE000
01FFFFE000
01FFFFE000
01FFFFE000
01FFFFE000
03FFFFC000
03FFFFC000
03FFFFC000
03FFFFC000
03FFFFC000
03FFFFC000
03FFFF8000
03FFFF8000
03FFFF8000
03FFFF8000
03FFFF8000
03FFFF8000
03FFFF0000
07FFFF0000
07FFFF1F00
07FFFF3F80
07FFFF3FC0
07FFFF3FC0
0FFFFE3FC0
0FFFFE3F80
0FFFFE3F80
0FFFFE1F00
0FFFFE0000
0FFFFE0000
1FFFFC0000
1FFFFC0000
1FFFFC0000
1FFFFC0000
1FFFFE0000
1FFFFFFFF8
1FFFFFFFF0
1FFFFFFFF0
3FFFFFFFF0
3FFFFFFFF0
1FFFFFFFF0
3FFFFFFFF8
3FFFFFFFF0
3FFFFFFFF0
3FFFFFFFF8
3FFFFFFFF8
3FFFFFFFF8
3FFFFFFFFC
3FFFFFFE00
3FFFFFFF00
7FFE000000
FE00000000
ENDCHAR
STARTCHAR 0140
ENCODING 320
SWIDTH 514 0
DWIDTH 40 0
BBX 38 54 1 -1
BITMAP
0001FFC000
003FFFE000
00FFFFE000
01FFFFE000
01FFFFE000
01FFFFE000
01FFFFE000
01FFFFE000
03FFFFC000
03FFFFC000
03FFFFC000
03FFFFC000
03FFFFC000
03FFFFC000
03FFFF8000
03FFFF8000
03FFFF8000
03FFFF8000
03FFFF8000
03FFFF8000
03FFFF0000
07FFFF0000
07FFFF1F00
07FFFF3F80
07FFFF3FC0
07FFFF3FC0
0FFFFE3FC0
0FFFFE3F80
0FFFFE3F80
0FFFFE1F00
0FFFFE0000
0FFFFE0000
1FFFFC0000
1FFFFC0000
1FFFFC0000
1FFFFC0000
1FFFFE0000
1FFFFFFFF8
1FFFFFFFF0
1FFFFFFFF0
3FFFFFFFF0
3FFFFFFFF0
1FFFFFFFF0
3FFFFFFFF8
3FFFFFFFF0
3FFFFFFFF0
3FFFFFFFF8
3FFFFFFFF8
3FFFFFFFF8
3FFFFFFFFC
3FFFFFFE00
3FFFFFFF00
7FFE000000
FE00000000
ENDCHAR
STARTCHAR 0141
ENCODING 321
SWIDTH 540 0
DWIDTH 42 0
BBX 41 54 0 -1
BITMAP
00003FF80000
0003FFFE0000
000FFFFE0000
001FFFFE0000
001FFFFC0000
003FFFFC0000
003FFFFC0000
003FFFFC0000
003FFFFC3000
003FFFFC7800
003FFFF9FC00
003FFFFBFE00
007FFFFFFF00
007FFFFFFF00
007FFFFFFF00
007FFFFFFF00
007FFFFFFF00
007FFFFFFE00
007FFFFFFC00
007FFFFFF800
007FFFFFE000
007FFFFFC000
007FFFFF8000
00FFFFFF0000
00FFFFFC0000
00FFFFF80000
00FFFFF00000
00FFFFE00000
01FFFFC00000
07FFFFC00000
0FFFFFC00000
1FFFFFC00000
7FFFFFC00000
FFFFFFC00000
FFFFFF800000
FFFFFFC00000
FFFFFFC00000
7FFFFFFFFF00
7FFFFFFFFF00
7FFFFFFFFF00
7FFFFFFFFF00
3FFFFFFFFF00
3BFFFFFFFF00
33FFFFFFFF00
03FFFFFFFF00
03FFFFFFFF00
03FFFFFFFF00
03FFFFFFFF00
03FFFFFFFF80
03FFFFFFFF80
03FFFFFFE000
07FFFFFFE000
07FFC0000000
0FC000000000
ENDCHAR
STARTCHAR 0142
ENCODING 322
SWIDTH 540 0
DWIDTH 42 0
BBX 41 54 0 -1
BITMAP
00003FF80000
0003FFFE0000
000FFFFE0000
001FFFFE0000
001FFFFC0000
003FFFFC0000
003FFFFC0000
003FFFFC0000
003FFFFC3000
003FFFFC7800
003FFFF9FC00
003FFFFBFE00
007FFFFFFF00
007FFFFFFF00
007FFFFFFF00
007FFFFFFF00
007FFFFFFF00
007FFFFFFE00
007FFFFFFC00
007FFFFFF800
007FFFFFE000
007FFFFFC000
007FFFFF8000
00FFFFFF0000
00FFFFFC0000
00FFFFF80000
00FFFFF00000
00FFFFE00000
01FFFFC00000
07FFFFC00000
0FFFFFC00000
1FFFFFC00000
7FFFFFC00000
FFFFFFC00000
FFFFFF800000
FFFFFFC00000
FFFFFFC00000
7FFFFFFFFF00
7FFFFFFFFF00
7FFFFFFFFF00
7FFFFFFFFF00
3FFFFFFFFF00
3BFFFFFFFF00
33FFFFFFFF00
03FFFFFFFF00
03FFFFFFFF00
03FFFFFFFF00
03FFFFFFFF00
03FFFFFFFF80
03FFFFFFFF80
03FFFFFFE000
07FFFFFFE000
07FFC0000000
0FC000000000
ENDCHAR
STARTCHAR 0143
ENCODING 323
SWIDTH 565 0
DWIDTH 44 0
BBX 42 66 1 1
BITMAP
0000001FF800
0000003FF800
0000003FF800
0000007FF000
000000FFE000
000000FFC000
000001FF8000
000001FF0000
000003FE0000
000003FC0000
000003FC0000
000000F80000
000000000000
000000000000
000000000000
007C0000FC00
01FFE003FF00
07FFF81FFF80
07FFF81FFFC0
07FFF81FFFC0
07FFF81FFFC0
07FFF81FFFC0
07FFF01FFF80
0FFFF81FFF80
0FFFF81FFF80
0FFFF81FFF80
0FFFF83FFF80
0FFFFC3FFF80
0FFFFC3FFF80
1FFFFC3FFF80
1FFFFC3FFF80
1FFFFE3FFF00
1FFFFE3FFF00
1FFFFE3FFF00
1FFFFE3FFF00
1FFFFF3FFF00
1FFFFF3FFF00
3FFFFF3FFF00
3FFFFF3FFF00
3FFFFFBFFF00
3FFFFFBFFF00
3FFFFFBFFE00
3FFFFFFFFE00
3FFFFFFFFE00
3FFFFFFFFE00
3FFFBFFFFE00
3FFFBFFFFE00
3FFF9FFFFE00
3FFF9FFFFE00
3FFF9FFFFE00
3FFF8FFFFE00
7FFF8FFFFE00
7FFF8FFFFE00
7FFF87FFFE00
7FFF87FFFC00
7FFF87FFFE00
7FFF03FFFE00
7FFF03FFFC00
7FFF03FFFC00
7FFF01FFFC00
7FFF01FFFC00
7FFF01FFFC00
7FFF01FFFC00
FFFF01FFFC00
FFFF01FFF800
FFE0003FC000
ENDCHAR
STARTCHAR 0144
ENCODING 324
SWIDTH 565 0
DWIDTH 44 0
BBX 42 66 1 1
BITMAP
0000001FF800
0000003FF800
0000003FF800
0000007FF000
000000FFE000
000000FFC000
000001FF8000
000001FF0000
000003FE0000
000003FC0000
000003FC0000
000000F80000
000000000000
000000000000
000000000000
007C0000FC00
01FFE003FF00
07FFF81FFF80
07FFF81FFFC0
07FFF81FFFC0
07FFF81FFFC0
07FFF81FFFC0
07FFF01FFF80
0FFFF81FFF80
0FFFF81FFF80
0FFFF81FFF80
0FFFF83FFF80
0FFFFC3FFF80
0FFFFC3FFF80
1FFFFC3FFF80
1FFFFC3FFF80
1FFFFE3FFF00
1FFFFE3FFF00
1FFFFE3FFF00
1FFFFE3FFF00
1FFFFF3FFF00
1FFFFF3FFF00
3FFFFF3FFF00
3FFFFF3FFF00
3FFFFFBFFF00
3FFFFFBFFF00
3FFFFFBFFE00
3FFFFFFFFE00
3FFFFFFFFE00
3FFFFFFFFE00
3FFFBFFFFE00
3FFFBFFFFE00
3FFF9FFFFE00
3FFF9FFFFE00
3FFF9FFFFE00
3FFF8FFFFE00
7FFF8FFFFE00
7FFF8FFFFE00
7FFF87FFFE00
7FFF87FFFC00
7FFF87FFFE00
7FFF03FFFE00
7FFF03FFFC00
7FFF03FFFC00
7FFF01FFFC00
7FFF01FFFC00
7FFF01FFFC00
7FFF01FFFC00
FFFF01FFFC00
FFFF01FFF800
FFE0003FC000
ENDCHAR
STARTCHAR 0145
ENCODING 325
SWIDTH 565 0
DWIDTH 44 0
BBX 42 65 1 -13
BITMAP
007C0000FC00
01FFE003FF00
07FFF81FFF80
07FFF81FFFC0
07FFF81FFFC0
07FFF81FFFC0
07FFF81FFFC0
07FFF01FFF80
0FFFF81FFF80
0FFFF81FFF80
0FFFF81FFF80
0FFFF83FFF80
0FFFFC3FFF80
0FFFFC3FFF80
1FFFFC3FFF80
1FFFFC3FFF80
1FFFFE3FFF00
1FFFFE3FFF00
1FFFFE3FFF00
1FFFFE3FFF00
1FFFFF3FFF00
1FFFFF3FFF00
3FFFFF3FFF00
3FFFFF3FFF00
3FFFFFBFFF00
3FFFFFBFFF00
3FFFFFBFFE00
3FFFFFFFFE00
3FFFFFFFFE00
3FFFFFFFFE00
3FFFBFFFFE00
3FFFBFFFFE00
3FFF9FFFFE00
3FFF9FFFFE00
3FFF9FFFFE00
3FFF8FFFFE00
7FFF8FFFFE00
7FFF8FFFFE00
7FFF87FFFE00
7FFF87FFFC00
7FFF87FFFE00
7FFF03FFFE00
7FFF03FFFC00
7FFF03FFFC00
7FFF01FFFC00
7FFF01FFFC00
7FFF01FFFC00
7FFF01FFFC00
FFFF01FFFC00
FFFF01FFF800
FFE0003FC000
000000000000
000000000000
0003FE000000
0007FE000000
0007FE000000
0007FF000000
0007FE000000
0007FE000000
000FFC000000
000FFC000000
000FF8000000
000FF0000000
0007F0000000
0003C0000000
ENDCHAR
STARTCHAR 0146
ENCODING 326
SWIDTH 565 0
DWIDTH 44 0
BBX 42 65 1 -13
BITMAP
007C0000FC00
01FFE003FF00
07FFF81FFF80
07FFF81FFFC0
07FFF81FFFC0
07FFF81FFFC0
07FFF81FFFC0
07FFF01FFF80
0FFFF81FFF80
0FFFF81FFF80
0FFFF81FFF80
0FFFF83FFF80
0FFFFC3FFF80
0FFFFC3FFF80
1FFFFC3FFF80
1FFFFC3FFF80
1FFFFE3FFF00
1FFFFE3FFF00
1FFFFE3FFF00
1FFFFE3FFF00
1FFFFF3FFF00
1FFFFF3FFF00
3FFFFF3FFF00
3FFFFF3FFF00
3FFFFFBFFF00
3FFFFFBFFF00
3FFFFFBFFE00
3FFFFFFFFE00
3FFFFFFFFE00
3FFFFFFFFE00
3FFFBFFFFE00
3FFFBFFFFE00
3FFF9FFFFE00
3FFF9FFFFE00
3FFF9FFFFE00
3FFF8FFFFE00
7FFF8FFFFE00
7FFF8FFFFE00
7FFF87FFFE00
7FFF87FFFC00
7FFF87FFFE00
7FFF03FFFE00
7FFF03FFFC00
7FFF03FFFC00
7FFF01FFFC00
7FFF01FFFC00
7FFF01FFFC00
7FFF01FFFC00
FFFF01FFFC00
FFFF01FFF800
FFE0003FC000
000000000000
000000000000
0003FE000000
0007FE000000
0007FE000000
0007FF000000
0007FE000000
0007FE000000
000FFC000000
000FFC000000
000FF8000000
000FF0000000
0007F0000000
0003C0000000
ENDCHAR
STARTCHAR 0147
ENCODING 327
SWIDTH 565 0
DWIDTH 44 0
BBX 42 65 1 1
BITMAP
0003F007E000
0007F81FF000
0007FC3FF000
0007FE7FF000
0003FFFFE000
0001FFFFC000
0000FFFF8000
00007FFF0000
00003FFE0000
00000FF80000
000007E00000
000003800000
000000000000
000000000000
007C0000FC00
01FFE003FF00
07FFF81FFF80
07FFF81FFFC0
07FFF81FFFC0
07FFF81FFFC0
07FFF81FFFC0
07FFF01FFF80
0FFFF81FFF80
0FFFF81FFF80
0FFFF81FFF80
0FFFF83FFF80
0FFFFC3FFF80
0FFFFC3FFF80
1FFFFC3FFF80
1FFFFC3FFF80
1FFFFE3FFF00
1FFFFE3FFF00
1FFFFE3FFF00
1FFFFE3FFF00
1FFFFF3FFF00
1FFFFF3FFF00
3FFFFF3FFF00
3FFFFF3FFF00
3FFFFFBFFF00
3FFFFFBFFF00
3FFFFFBFFE00
3FFFFFFFFE00
3FFFFFFFFE00
3FFFFFFFFE00
3FFFBFFFFE00
3FFFBFFFFE00
3FFF9FFFFE00
3FFF9FFFFE00
3FFF9FFFFE00
3FFF8FFFFE00
7FFF8FFFFE00
7FFF8FFFFE00
7FFF87FFFE00
7FFF87FFFC00
7FFF87FFFE00
7FFF03FFFE00
7FFF03FFFC00
7FFF03FFFC00
7FFF01FFFC00
7FFF01FFFC00
7FFF01FFFC00
7FFF01FFFC00
FFFF01FFFC00
FFFF01FFF800
FFE0003FC000
ENDCHAR
STARTCHAR 0148
ENCODING 328
SWIDTH 565 0
DWIDTH 44 0
BBX 42 65 1 1
BITMAP
0003F007E000
0007F81FF000
0007FC3FF000
0007FE7FF000
0003FFFFE000
0001FFFFC000
0000FFFF8000
00007FFF0000
00003FFE0000
00000FF80000
000007E00000
000003800000
000000000000
000000000000
007C0000FC00
01FFE003FF00
07FFF81FFF80
07FFF81FFFC0
07FFF81FFFC0
07FFF81FFFC0
07FFF81FFFC0
07FFF01FFF80
0FFFF81FFF80
0FFFF81FFF80
0FFFF81FFF80
0FFFF83FFF80
0FFFFC3FFF80
0FFFFC3FFF80
1FFFFC3FFF80
1FFFFC3FFF80
1FFFFE3FFF00
1FFFFE3FFF00
1FFFFE3FFF00
1FFFFE3FFF00
1FFFFF3FFF00
1FFFFF3FFF00
3FFFFF3FFF00
3FFFFF3FFF00
3FFFFFBFFF00
3FFFFFBFFF00
3FFFFFBFFE00
3FFFFFFFFE00
3FFFFFFFFE00
3FFFFFFFFE00
3FFFBFFFFE00
3FFFBFFFFE00
3FFF9FFFFE00
3FFF9FFFFE00
3FFF9FFFFE00
3FFF8FFFFE00
7FFF8FFFFE00
7FFF8FFFFE00
7FFF87FFFE00
7FFF87FFFC00
7FFF87FFFE00
7FFF03FFFE00
7FFF03FFFC00
7FFF03FFFC00
7FFF01FFFC00
7FFF01FFFC00
7FFF01FFFC00
7FFF01FFFC00
FFFF01FFFC00
FFFF01FFF800
FFE0003FC000
ENDCHAR
STARTCHAR 0149
ENCODING 329
SWIDTH 630 0
DWIDTH 49 0
BBX 47 56 1 1
BITMAP
0F0000000000
1FF000000000
3FF000000000
3FF800000000
3FF800000000
3FF83C0003F0
3FF8FFE00FFC
3FFBFFF83FFE
3FFBFFF83FFE
3FFBFFF83FFE
3FFBFFF03FFE
7FFBFFF03FFE
7FF3FFF03FFE
7FF7FFF03FFE
7FF7FFF07FFE
7FF7FFF87FFE
7FF7FFF87FFC
7FE7FFF87FFC
7FE7FFF87FFC
7FE7FFF87FFC
FFC7FFFC7FFC
FFCFFFFC7FFC
FFCFFFFC7FFC
7F8FFFFC7FFC
7F8FFFFE7FFC
3F0FFFFE7FFC
1F0FFFFE7FF8
0E0FFFFE7FF8
000FFFFF7FF8
000FFFFF7FF8
000FFFFF7FF8
001FFFFF7FF8
001FFFFFFFF8
001FFFFFFFF8
001FFFFFFFF8
001FFFBFFFF8
001FFFBFFFF8
001FFFBFFFF8
001FFF9FFFF8
001FFF9FFFF8
001FFF9FFFF0
001FFF8FFFF0
001FFF8FFFF0
001FFF8FFFF0
001FFF8FFFF0
001FFF07FFF0
001FFF07FFF0
001FFF07FFF0
003FFF03FFF0
003FFF03FFF0
003FFF03FFF0
003FFF03FFF0
003FFF03FFF0
003FFF03FFF0
003FFF03FFE0
003FE0007F00
ENDCHAR
STARTCHAR 014A
ENCODING 330
SWIDTH 540 0
DWIDTH 42 0
BBX 41 64 1 -10
BITMAP
070000000000
3FC00E000000
7FE07FE00000
FFE3FFFC0000
FFF7FFFF0000
FFFFFFFF8000
FFFFFFFF8000
FFFFFFFFC000
FFFFFFFFE000
FFFFFFFFE000
FFFFFFFFF000
7FFFFFFFF800
7FFFFFFFF800
7FFFFFFFFC00
7FFFFFFFFC00
7FFFFFFFFC00
7FFFFFFFFE00
7FFFFFFFFE00
7FFFFFFFFE00
7FFF01FFFE00
7FFE00FFFF00
7FFE007FFF00
7FFC007FFF00
7FFC003FFF00
7FFC003FFF80
7FFC003FFF00
7FFC003FFF00
7FF8001FFF00
7FF8001FFF00
7FF8001FFF00
7FF8001FFF00
7FF8000FFF00
7FF8001FFF00
7FF8001FFF00
7FF8001FFF00
7FF8001FFF00
7FF8001FFF00
7FF8001FFF00
7FF8001FFF00
7FF8001FFF00
7FF8001FFE00
3FF8001FFE00
3FF8001FFE00
3FF8001FFE00
3FF8001FFE00
3FF8001FFE00
3FF8001FFE00
3FF8001FFE00
3FF8001FFC00
3FF8003FFC00
3FF8003FFC00
3FF8003FFC00
3FF800FFFC00
1F8001FFFC00
00000FFFFC00
00007FFFF800
00007FFFF800
00007FFFF800
00007FFFF000
00007FFFE000
00007FFFC000
00007FFF8000
00007FFE0000
00003FE00000
ENDCHAR
STARTCHAR 014B
ENCODING 331
SWIDTH 540 0
DWIDTH 42 0
BBX 41 64 1 -10
BITMAP
070000000000
3FC00E000000
7FE07FE00000
FFE3FFFC0000
FFF7FFFF0000
FFFFFFFF8000
FFFFFFFF8000
FFFFFFFFC000
FFFFFFFFE000
FFFFFFFFE000
FFFFFFFFF000
7FFFFFFFF800
7FFFFFFFF800
7FFFFFFFFC00
7FFFFFFFFC00
7FFFFFFFFC00
7FFFFFFFFE00
7FFFFFFFFE00
7FFFFFFFFE00
7FFF01FFFE00
7FFE00FFFF00
7FFE007FFF00
7FFC007FFF00
7FFC003FFF00
7FFC003FFF80
7FFC003FFF00
7FFC003FFF00
7FF8001FFF00
7FF8001FFF00
7FF8001FFF00
7FF8001FFF00
7FF8000FFF00
7FF8001FFF00
7FF8001FFF00
7FF8001FFF00
7FF8001FFF00
7FF8001FFF00
7FF8001FFF00
7FF8001FFF00
7FF8001FFF00
7FF8001FFE00
3FF8001FFE00
3FF8001FFE00
3FF8001FFE00
3FF8001FFE00
3FF8001FFE00
3FF8001FFE00
3FF8001FFE00
3FF8001FFC00
3FF8003FFC00
3FF8003FFC00
3FF8003FFC00
3FF800FFFC00
1F8001FFFC00
00000FFFFC00
00007FFFF800
00007FFFF800
00007FFFF800
00007FFFF000
00007FFFE000
00007FFFC000
00007FFF8000
00007FFE0000
00003FE00000
ENDCHAR
STARTCHAR 014C
ENCODING 332
SWIDTH 527 0
DWIDTH 41 0
BBX 40 64 1 -1
BITMAP
0080400000
1FFFFF8000
1FFFFF8000
1FFFFF8000
1FFFFFC000
1FFFFFC000
1FFFFF8000
0F00000000
0000000000
000FC00000
001FF00000
003FFC0000
007FFF0000
007FFF8000
00FFFFE000
00FFFFF000
01FFFFFC00
03FFFFFE00
03FFFFFE00
03FFFFFF00
07FFFFFF80
07FFFFFFC0
0FFFFFFFC0
0FFFFFFFE0
1FFFFFFFE0
1FFFFFFFF0
1FFFFFFFF0
3FFFFFFFF8
3FFFFFFFF8
3FFF83FFFC
7FFF00FFFC
7FFF00FFFC
7FFE00FFFE
FFFE00FFFE
FFFE007FFE
FFFE007FFE
FFFE007FFE
FFFE00FFFF
FFFE00FFFF
FFFE00FFFF
7FFF00FFFF
7FFF81FFFF
7FFFE3FFFE
7FFFFFFFFE
7FFFFFFFFE
3FFFFFFFFE
3FFFFFFFFE
3FFFFFFFFC
3FFFFFFFFC
1FFFFFFFFC
1FFFFFFFFC
1FFFFFFFF8
0FFFFFFFF8
0FFFFFFFF8
07FFFFFFF8
07FFFFFFF0
03FFFFFFF0
01FFFFFFE0
00FFFFFFC0
007FFFFF80
001FFFFE00
0007FFFC00
0000FFF000
00000F0000
ENDCHAR
STARTCHAR 014D
ENCODING 333
SWIDTH 527 0
DWIDTH 41 0
BBX 40 64 1 -1
BITMAP
0080400000
1FFFFF8000
1FFFFF8000
1FFFFF8000
1FFFFFC000
1FFFFFC000
1FFFFF8000
0F00000000
0000000000
000FC00000
001FF00000
003FFC0000
007FFF0000
007FFF8000
00FFFFE000
00FFFFF000
01FFFFFC00
03FFFFFE00
03FFFFFE00
03FFFFFF00
07FFFFFF80
07FFFFFFC0
0FFFFFFFC0
0FFFFFFFE0
1FFFFFFFE0
1FFFFFFFF0
1FFFFFFFF0
3FFFFFFFF8
3FFFFFFFF8
3FFF83FFFC
7FFF00FFFC
7FFF00FFFC
7FFE00FFFE
FFFE00FFFE
FFFE007FFE
FFFE007FFE
FFFE007FFE
FFFE00FFFF
FFFE00FFFF
FFFE00FFFF
7FFF00FFFF
7FFF81FFFF
7FFFE3FFFE
7FFFFFFFFE
7FFFFFFFFE
3FFFFFFFFE
3FFFFFFFFE
3FFFFFFFFC
3FFFFFFFFC
1FFFFFFFFC
1FFFFFFFFC
1FFFFFFFF8
0FFFFFFFF8
0FFFFFFFF8
07FFFFFFF8
07FFFFFFF0
03FFFFFFF0
01FFFFFFE0
00FFFFFFC0
007FFFFF80
001FFFFE00
0007FFFC00
0000FFF000
00000F0000
ENDCHAR
STARTCHAR 014E
ENCODING 334
SWIDTH 527 0
DWIDTH 41 0
BBX 40 68 1 -1
BITMAP
1F801FC000
1F801FC000
1FC03FC000
1FE0FF8000
0FFFFF8000
0FFFFF0000
0FFFFF0000
07FFFE0000
03FFFC0000
01FFF00000
007FF00000
000E000000
0000000000
000FC00000
001FF00000
003FFC0000
007FFF0000
007FFF8000
00FFFFE000
00FFFFF000
01FFFFFC00
03FFFFFE00
03FFFFFE00
03FFFFFF00
07FFFFFF80
07FFFFFFC0
0FFFFFFFC0
0FFFFFFFE0
1FFFFFFFE0
1FFFFFFFF0
1FFFFFFFF0
3FFFFFFFF8
3FFFFFFFF8
3FFF83FFFC
7FFF00FFFC
7FFF00FFFC
7FFE00FFFE
FFFE00FFFE
FFFE007FFE
FFFE007FFE
FFFE007FFE
FFFE00FFFF
FFFE00FFFF
FFFE00FFFF
7FFF00FFFF
7FFF81FFFF
7FFFE3FFFE
7FFFFFFFFE
7FFFFFFFFE
3FFFFFFFFE
3FFFFFFFFE
3FFFFFFFFC
3FFFFFFFFC
1FFFFFFFFC
1FFFFFFFFC
1FFFFFFFF8
0FFFFFFFF8
0FFFFFFFF8
07FFFFFFF8
07FFFFFFF0
03FFFFFFF0
01FFFFFFE0
00FFFFFFC0
007FFFFF80
001FFFFE00
0007FFFC00
0000FFF000
00000F0000
ENDCHAR
STARTCHAR 014F
ENCODING 335
SWIDTH 527 0
DWIDTH 41 0
BBX 40 68 1 -1
BITMAP
1F801FC000
1F801FC000
1FC03FC000
1FE0FF8000
0FFFFF8000
0FFFFF0000
0FFFFF0000
07FFFE0000
03FFFC0000
01FFF00000
007FF00000
000E000000
0000000000
000FC00000
001FF00000
003FFC0000
007FFF0000
007FFF8000
00FFFFE000
00FFFFF000
01FFFFFC00
03FFFFFE00
03FFFFFE00
03FFFFFF00
07FFFFFF80
07FFFFFFC0
0FFFFFFFC0
0FFFFFFFE0
1FFFFFFFE0
1FFFFFFFF0
1FFFFFFFF0
3FFFFFFFF8
3FFFFFFFF8
3FFF83FFFC
7FFF00FFFC
7FFF00FFFC
7FFE00FFFE
FFFE00FFFE
FFFE007FFE
FFFE007FFE
FFFE007FFE
FFFE00FFFF
FFFE00FFFF
FFFE00FFFF
7FFF00FFFF
7FFF81FFFF
7FFFE3FFFE
7FFFFFFFFE
7FFFFFFFFE
3FFFFFFFFE
3FFFFFFFFE
3FFFFFFFFC
3FFFFFFFFC
1FFFFFFFFC
1FFFFFFFFC
1FFFFFFFF8
0FFFFFFFF8
0FFFFFFFF8
07FFFFFFF8
07FFFFFFF0
03FFFFFFF0
01FFFFFFE0
00FFFFFFC0
007FFFFF80
001FFFFE00
0007FFFC00
0000FFF000
00000F0000
ENDCHAR
STARTCHAR 0150
ENCODING 336
SWIDTH 527 0
DWIDTH 41 0
BBX 40 68 1 -1
BITMAP
007FE1FF80
007FE3FF80
00FFE3FF00
01FFC7FF00
01FF8FFE00
03FF0FFC00
07FE1FF800
07FC1FF000
07F83FE000
0FF83FC000
0FF03FC000
01E00F8000
0000000000
000FC00000
001FF00000
003FFC0000
007FFF0000
007FFF8000
00FFFFE000
00FFFFF000
01FFFFFC00
03FFFFFE00
03FFFFFE00
03FFFFFF00
07FFFFFF80
07FFFFFFC0
0FFFFFFFC0
0FFFFFFFE0
1FFFFFFFE0
1FFFFFFFF0
1FFFFFFFF0
3FFFFFFFF8
3FFFFFFFF8
3FFF83FFFC
7FFF00FFFC
7FFF00FFFC
7FFE00FFFE
FFFE00FFFE
FFFE007FFE
FFFE007FFE
FFFE007FFE
FFFE00FFFF
FFFE00FFFF
FFFE00FFFF
7FFF00FFFF
7FFF81FFFF
7FFFE3FFFE
7FFFFFFFFE
7FFFFFFFFE
3FFFFFFFFE
3FFFFFFFFE
3FFFFFFFFC
3FFFFFFFFC
1FFFFFFFFC
1FFFFFFFFC
1FFFFFFFF8
0FFFFFFFF8
0FFFFFFFF8
07FFFFFFF8
07FFFFFFF0
03FFFFFFF0
01FFFFFFE0
00FFFFFFC0
007FFFFF80
001FFFFE00
0007FFFC00
0000FFF000
00000F0000
ENDCHAR
STARTCHAR 0151
ENCODING 337
SWIDTH 527 0
DWIDTH 41 0
BBX 40 68 1 -1
BITMAP
007FE1FF80
007FE3FF80
00FFE3FF00
01FFC7FF00
01FF8FFE00
03FF0FFC00
07FE1FF800
07FC1FF000
07F83FE000
0FF83FC000
0FF03FC000
01E00F8000
0000000000
000FC00000
001FF00000
003FFC0000
007FFF0000
007FFF8000
00FFFFE000
00FFFFF000
01FFFFFC00
03FFFFFE00
03FFFFFE00
03FFFFFF00
07FFFFFF80
07FFFFFFC0
0FFFFFFFC0
0FFFFFFFE0
1FFFFFFFE0
1FFFFFFFF0
1FFFFFFFF0
3FFFFFFFF8
3FFFFFFFF8
3FFF83FFFC
7FFF00FFFC
7FFF00FFFC
7FFE00FFFE
FFFE00FFFE
FFFE007FFE
FFFE007FFE
FFFE007FFE
FFFE00FFFF
FFFE00FFFF
FFFE00FFFF
7FFF00FFFF
7FFF81FFFF
7FFFE3FFFE
7FFFFFFFFE
7FFFFFFFFE
3FFFFFFFFE
3FFFFFFFFE
3FFFFFFFFC
3FFFFFFFFC
1FFFFFFFFC
1FFFFFFFFC
1FFFFFFFF8
0FFFFFFFF8
0FFFFFFFF8
07FFFFFFF8
07FFFFFFF0
03FFFFFFF0
01FFFFFFE0
00FFFFFFC0
007FFFFF80
001FFFFE00
0007FFFC00
0000FFF000
00000F0000
ENDCHAR
STARTCHAR 0152
ENCODING 338
SWIDTH 732 0
DWIDTH 57 0
BBX 55 55 1 -1
BITMAP
000000E3FE0000
000007FFFFFC00
00001FFFFFFF00
00007FFFFFFE00
0000FFFFFFFE00
0003FFFFFFFE00
0007FFFFFFFE00
001FFFFFFFFC00
003FFFFFFFFC00
007FFFFFFFFC00
00FFFFFFFFFC00
01FFFFFFFFFC00
01FFFFFFFFF800
03FFFFFFFFFC00
07FFFFFFFFFC00
07FFFFFFFFF800
0FFFFFFFFF3000
0FFFFFFFF00000
1FFFFFFFE00000
1FFFFFFFE00000
3FFFFFFFF00000
3FFF81FFF00000
3FFF00FFF07800
7FFF00FFFFFC00
7FFE007FFFF800
7FFE007FFFF800
7FFE007FFFF800
7FFE007FFFF800
FFFE007FFFFC00
FFFE007FFFFC00
FFFF007FFF8000
FFFF00FFF80000
FFFF01FFFC0000
FFFF83FFFC0020
7FFFC7FFFEFDF0
7FFFFFFFFFFFF0
7FFFFFFFFFFFF8
7FFFFFFFFFFFF8
7FFFFFFFFFFFF8
3FFFFFFFFFFFFC
3FFFFFFFFFFFFC
3FFFFFFFFFFFFC
3FFFFFFFFFFFFC
3FFFFFFFFFFFFC
1FFFFFFFFFFFFE
1FFFFFFFFFFFFE
1FFFFFFFFFFFFE
0FFFFFFFFFFFFE
0FFFFFFFFFFFFE
07FFFFFFFFFFF0
03FFFFFFFFFF00
01FFFFFFFFF000
007FFFFFFE0000
001FFFCFE00000
0007FE04000000
ENDCHAR
STARTCHAR 0153
ENCODING 339
SWIDTH 732 0
DWIDTH 57 0
BBX 55 55 1 -1
BITMAP
000000E3FE0000
000007FFFFFC00
00001FFFFFFF00
00007FFFFFFE00
0000FFFFFFFE00
0003FFFFFFFE00
0007FFFFFFFE00
001FFFFFFFFC00
003FFFFFFFFC00
007FFFFFFFFC00
00FFFFFFFFFC00
01FFFFFFFFFC00
01FFFFFFFFF800
03FFFFFFFFFC00
07FFFFFFFFFC00
07FFFFFFFFF800
0FFFFFFFFF3000
0FFFFFFFF00000
1FFFFFFFE00000
1FFFFFFFE00000
3FFFFFFFF00000
3FFF81FFF00000
3FFF00FFF07800
7FFF00FFFFFC00
7FFE007FFFF800
7FFE007FFFF800
7FFE007FFFF800
7FFE007FFFF800
FFFE007FFFFC00
FFFE007FFFFC00
FFFF007FFF8000
FFFF00FFF80000
FFFF01FFFC0000
FFFF83FFFC0020
7FFFC7FFFEFDF0
7FFFFFFFFFFFF0
7FFFFFFFFFFFF8
7FFFFFFFFFFFF8
7FFFFFFFFFFFF8
3FFFFFFFFFFFFC
3FFFFFFFFFFFFC
3FFFFFFFFFFFFC
3FFFFFFFFFFFFC
3FFFFFFFFFFFFC
1FFFFFFFFFFFFE
1FFFFFFFFFFFFE
1FFFFFFFFFFFFE
0FFFFFFFFFFFFE
0FFFFFFFFFFFFE
07FFFFFFFFFFF0
03FFFFFFFFFF00
01FFFFFFFFF000
007FFFFFFE0000
001FFFCFE00000
0007FE04000000
ENDCHAR
STARTCHAR 0154
ENCODING 340
SWIDTH 578 0
DWIDTH 45 0
BBX 43 68 1 -1
BITMAP
0007FE000000
0007FE000000
000FFE000000
001FFC000000
001FF8000000
003FF0000000
007FE0000000
007FC0000000
007F80000000
00FF80000000
00FF00000000
001E00000000
000000000000
000000000000
000FFE000000
01FFFF800000
1FFFFFF00000
3FFFFFFC0000
7FFFFFFE0000
FFFFFFFF8000
FFFFFFFFC000
FFFFFFFFE000
FFFFF3FFE000
FFFFC07FF000
7FFFC01FF000
7FFFC00FF000
7FFFC00FF000
7FFFC00FF800
7FFFC00FF800
7FFFE00FF800
7FFFE00FF800
7FFFE00FF800
7FFFE01FF800
7FFFF03FF800
7FFFF87FF000
7FFFF9FFF000
3FFFFFFFF000
3FFFFFFFE000
3FFFFFFFE000
3FFFFFFFC000
3FFFFFFF8000
3FFFFFFC0000
3FFFFFFC0000
3FFFFFFE0000
3FFFFFFE0000
3FFFFFFF0000
3FFFFFFF8000
3FFFFFFF8000
3FFFFBFFC000
3FFFFBFFC000
3FFFF9FFE000
1FFFF8FFF000
1FFFF8FFF000
3FFFF87FF800
3FFFF87FF800
1FFFF83FFC00
1FFFFC3FFE00
1FFFFC1FFE00
1FFFFC1FFF00
1FFFFC0FFF00
1FFFFC0FFF80
1FFFFC0FFFC0
0FFFFC07FFC0
0FFFFE07FFE0
0FFFFC03FFE0
07FFFC03FFC0
07FFFC01FC00
03FFF0018000
ENDCHAR
STARTCHAR 0155
ENCODING 341
SWIDTH 578 0
DWIDTH 45 0
BBX 43 68 1 -1
BITMAP
0007FE000000
0007FE000000
000FFE000000
001FFC000000
001FF8000000
003FF0000000
007FE0000000
007FC0000000
007F80000000
00FF80000000
00FF00000000
001E00000000
000000000000
000000000000
000FFE000000
01FFFF800000
1FFFFFF00000
3FFFFFFC0000
7FFFFFFE0000
FFFFFFFF8000
FFFFFFFFC000
FFFFFFFFE000
FFFFF3FFE000
FFFFC07FF000
7FFFC01FF000
7FFFC00FF000
7FFFC00FF000
7FFFC00FF800
7FFFC00FF800
7FFFE00FF800
7FFFE00FF800
7FFFE00FF800
7FFFE01FF800
7FFFF03FF800
7FFFF87FF000
7FFFF9FFF000
3FFFFFFFF000
3FFFFFFFE000
3FFFFFFFE000
3FFFFFFFC000
3FFFFFFF8000
3FFFFFFC0000
3FFFFFFC0000
3FFFFFFE0000
3FFFFFFE0000
3FFFFFFF0000
3FFFFFFF8000
3FFFFFFF8000
3FFFFBFFC000
3FFFFBFFC000
3FFFF9FFE000
1FFFF8FFF000
1FFFF8FFF000
3FFFF87FF800
3FFFF87FF800
1FFFF83FFC00
1FFFFC3FFE00
1FFFFC1FFE00
1FFFFC1FFF00
1FFFFC0FFF00
1FFFFC0FFF80
1FFFFC0FFFC0
0FFFFC07FFC0
0FFFFE07FFE0
0FFFFC03FFE0
07FFFC03FFC0
07FFFC01FC00
03FFF0018000
ENDCHAR
STARTCHAR 0156
ENCODING 342
SWIDTH 578 0
DWIDTH 45 0
BBX 43 66 1 -13
BITMAP
000FFE000000
01FFFF800000
1FFFFFF00000
3FFFFFFC0000
7FFFFFFE0000
FFFFFFFF8000
FFFFFFFFC000
FFFFFFFFE000
FFFFF3FFE000
FFFFC07FF000
7FFFC01FF000
7FFFC00FF000
7FFFC00FF000
7FFFC00FF800
7FFFC00FF800
7FFFE00FF800
7FFFE00FF800
7FFFE00FF800
7FFFE01FF800
7FFFF03FF800
7FFFF87FF000
7FFFF9FFF000
3FFFFFFFF000
3FFFFFFFE000
3FFFFFFFE000
3FFFFFFFC000
3FFFFFFF8000
3FFFFFFC0000
3FFFFFFC0000
3FFFFFFE0000
3FFFFFFE0000
3FFFFFFF0000
3FFFFFFF8000
3FFFFFFF8000
3FFFFBFFC000
3FFFFBFFC000
3FFFF9FFE000
1FFFF8FFF000
1FFFF8FFF000
3FFFF87FF800
3FFFF87FF800
1FFFF83FFC00
1FFFFC3FFE00
1FFFFC1FFE00
1FFFFC1FFF00
1FFFFC0FFF00
1FFFFC0FFF80
1FFFFC0FFFC0
0FFFFC07FFC0
0FFFFE07FFE0
0FFFFC03FFE0
07FFFC03FFC0
07FFFC01FC00
03FFF0018000
00000FFC0000
00000FFC0000
00000FFC0000
00000FFC0000
00000FFC0000
00001FFC0000
00001FF80000
00001FF80000
00001FF00000
00001FE00000
00001FC00000
000007800000
ENDCHAR
ENDFONT
